<?xml version="1.0" encoding="utf-8"?>
<svg width="700pt" height="700pt" version="1.1" viewBox="0 0 700 700" xmlns="http://www.w3.org/2000/svg" xmlns:xlink="http://www.w3.org/1999/xlink">
  <g>
    <path d="m612.71 138.03-51.945-9.6953-24.148-10.066-20.789 8.9453-5.1875 26.02-7.8477 25.516-14.379 6.1602-9.4414 20.355-26.133 28.867-5.6758 10.43-8.4414 25.355 3.3945 3.1992-5.4336 14.09-2.2383 7.2383-17.879-41.125c4.6133-14.062-1.9805-32.984-5.8867-42.195 7.6016-0.29297 15.371-1.9961 22.617-5.1016 27.41-11.754 41.812-39.762 32.102-62.426-6.6133-15.422-22.891-24.996-42.477-24.996-8.3086 0-16.91 1.8047-24.879 5.2227-5.3125 2.2734-10.121 5.1797-14.371 8.5195l-18.27 5.1094-23.688-27.816c-1.3438-1.1953-32.852-29.043-57.527-30.926l-18.164-7.1406-13.461-14.645-34.645-8.2812-24.852 43.609 26.805 17.422 15.477-4.2227 27.984 16.191 10.27 9.1289-19.922 36.008-31.277 68.25-8.4648 32.004-18.848 23.254c-18.871 26.133-18.871 26.895-18.871 28.414v43.609l28.52 67.34h18.965l11.934 13.266-14.77 0.007812-63.805-7.8477-8.0078-4.7812c-0.34375-0.20312-0.72266-0.35156-1.1211-0.44141-17.031-3.8984-28.051 13.566-31.359 19.738l-3.9609 0.28125-22.191-4.4375-1.3945 1.1211c-0.50391 0.40625-12.102 9.9102-7.75 25.09-0.32031 4.5352-2.2031 15.555-8.0156 21.371-0.38672 0.42188-3.7109 4.207-1.9609 8.9375 1.8477 5.0039 8.0977 7.9648 19.676 9.332l0.82031 0.089844 0.77734-0.23828c0.82031-0.25781 20.168-6.3828 38.555-17.078 0.28516-0.097656 28.273-10.137 55.965 0.18359l101.82 17.074h29.73l15.973-19.48v-24.934l-0.40625-1.1211 4.4727 3.1797 10.988 6.125c0.015625 0.007812 0.019531 0.015625 0.035156 0.019531l64.094 35.723c0.56641 0.32031 1.2109 0.48828 1.8672 0.48828h106.54c0.72656 0 1.4414-0.21094 2.0508-0.60156l56.938-36.16c27.195-11.844 41.445-39.695 31.781-62.273-9.7305-22.652-39.93-31.535-67.355-19.773-5.2695 2.2617-10.004 5.3047-14.379 8.7578l-13.105-9.1719v-9.4727l-26.488-33.117 2.1719 2.4492 19.957-17.738 4.2422-40.703 24.414-95.559c4.3125-15.98 24.297-24.508 24.207-24.508l40.16-10.809c12.199 5.1641 19.551-0.40625 21.777-4.2227l0.49609-1.457c1.4375-11.559-9.9531-17.41-16.363-18.93zm-158.52 109.57 4.6602-8.6602 26.215-28.953 9.0781-19.172 10.031-4.2969 6.293 12.062v12.605l-18.5-3.3672-1.3789 7.5469 19.879 3.6172v1.7422l3.332 5.2773-23.234 29.52-8.9258 1.5742-18.969-12.426-4.2148 6.418 17.844 11.691-3.6953 12.312-24.066-6.4453-1.0156-0.95312zm-53.117-116.72c7.0156-3.0117 14.574-4.5977 21.855-4.5977 16.465 0 30.035 7.7969 35.414 20.348 8.0508 18.781-4.543 42.258-28.07 52.352-7.0156 3.0117-14.574 4.5977-21.855 4.5977-16.465 0-30.043-7.7969-35.422-20.348-8.0469-18.781 4.5547-42.266 28.078-52.352zm-140.54 39.359 18.516-33.438 3.4375 4.2773c0.75781 0.9375 1.875 1.4297 2.9883 1.4297 0.84766 0 1.6953-0.28125 2.4062-0.84766 1.6523-1.3242 1.9102-3.7461 0.58203-5.3984l-5.4023-6.7188 0.23828-0.42578-15.477-13.648-25.562-14.859 14.961-12.398-4.9766-5.8398-18.188 15.492-8.6445 2.3594 21.742-24.969-5.7812-5.0391-24.625 28.273-13.41-8.7148 18.418-32.32 26.762 6.3984 13.07 14.223 20.363 8 1.1758 0.25781c22.07 1.2969 53.074 28.664 53.129 28.656l26.496 31.184 10.148-2.8359c-9.7383 12.973-12.938 28.953-6.9492 42.926 5.8945 13.734 19.469 22.785 36.203 24.613 4.1289 8.6875 11.598 28.98 6.7344 41.168l-0.60156 1.4844 21.566 49.617 2.2031-0.96094-10.719 34.578-0.050781 11.43-27.027-46.863-25.922-53.34-30.051 18.348-4.5586-13.41-20.922-22.219-32.25 1.5742-10.148 14.82-7.3438 27.48c-10.438-6.8945-30.172-16.273-37.941-19.887l4.4883-17.086zm86.609 294.65c12.285-10.961 48.973-44.574 62.105-66.199l1.2305 0.41406c-17.121 35.352-51.008 61.902-59.305 68.031zm70.891-71.336 7.2539-3.2617 2.0859 6.4102zm-132.27-109.14-7.6289 0.89062 4.7656 40.84-5.0547 11.559-12.16-43.113 11.43-43.707 7.6211-11.129 24.969-1.2188 17.031 17.668 20.242 59.52c-23.484 20.516-47.637 15.086-56.406 12.031l0.1875-0.44141zm-63.855-17.445 1.2383-4.7266c10.953 5.1328 30.371 14.672 37.82 20.203l-1.6875 6.3203zm139.05 66.004-5.8867-17.316c-0.007812-0.007813-0.007812-0.019532-0.007812-0.027344l-14.23-41.848 24.312-14.84 22.344 45.988 8.8633 15.371zm-177.05 28.559v-41.91c1.8047-2.9531 9.9453-14.488 17.289-24.66l17.172-21.176 14.59 8.5117-2.8633 19.844c-0.22266 1.5742 0.85937 3.0391 2.4375 3.2617 0.14062 0.019531 0.28125 0.027343 0.41406 0.027343 1.4062 0 2.6406-1.0352 2.8477-2.4648l2.5352-17.543 20.117 11.738 14.938 52.949 17.785 25.852-7.8555-1.2539-32.633-19.746 4.1914 34.379-38.816 32.648h-6.2305zm-38.207 75.688 8.1484 4.8633c0.45312 0.27344 0.96484 0.44141 1.4922 0.51172l22.246 2.7383-51.66 3.6133c3.8555-5.7656 10.812-13.414 19.773-11.727zm181.26 51.855-11.934 14.555-25.453 0.050781-100.48-16.824c-29.574-11.102-59.332-0.46094-61.188 0.27344-16.156 9.3398-33.074 15.176-36.84 16.43-11.312-1.457-12.535-4.2227-12.543-4.25-0.11328-0.28125 0.22266-0.88281 0.28516-0.97266 9.3242-9.3086 10.156-26.266 10.191-26.984l0.019531-0.67188-0.20312-0.64453c-2.5547-8.0977 1.6328-13.949 3.8203-16.332l19.488 3.9062 100.04-7.0078h40.703l-25.375-28.211 35.484-29.863-2.7852-22.84 19.77 11.969 16.59 2.9062 30.402 83.008v21.504zm-23.953-109.23-21.559-31.199 6.082-13.895c4.2773 1.4766 11.93 3.5508 21.453 3.5508 11.801 0 26.375-3.2812 40.672-14.77l6.5664 19.293 0.31641-0.11328 14.035 31.57c0.63672 1.4297 2.0352 2.2734 3.5078 2.2734 0.52344 0 1.0508-0.10547 1.5625-0.32812 1.9336-0.85938 2.8086-3.1289 1.9453-5.0664l-5.957-13.398 6.9805-2.1211c1.5195-0.45312 2.3711-2.0664 1.9102-3.5898-0.46094-1.5273-2.043-2.4062-3.5898-1.9102l-7.6523 2.3242-5.4961-12.355 36.469-13.062 7.8477 13.613-6.6094 2.0078c-1.5195 0.45312-2.3711 2.0664-1.9102 3.5898 0.37891 1.2383 1.5117 2.0352 2.75 2.0352 0.28125 0 0.55469-0.035156 0.83984-0.125l7.875-2.3945 10.184 17.668-0.054688 13.523 1.7344 5.9766-25.824 11.621 4.7305 1.5977c-9.0781 14.141-28.477 33.727-43.547 48.02l-11.801-14.777c-0.98828-1.2461-2.793-1.4492-4.0469-0.44922-1.2383 0.98828-1.4414 2.8008-0.44922 4.0469l12.098 15.141c-6.0547 5.6562-11.039 10.137-13.746 12.543l-7.293-5.207c-0.83203-0.59375-1.8203-0.78516-2.7656-0.65234zm218.11 123.79h-104.43l-58.141-32.391c12.012-9.1719 42.875-35.09 59.281-69.648l12.531 4.2344 12.656 37.289c0.1875 0.54688 0.49609 1.043 0.89453 1.457l24.066 24.422c0.75781 0.76172 1.7422 1.1484 2.7383 1.1484 0.97266 0 1.9453-0.36328 2.6875-1.0977 1.5117-1.4922 1.5273-3.9219 0.042969-5.4258l-23.457-23.801-12.977-38.246-0.007813-0.015625-8.1602-25.172v-37.898l15.098-48.742 5.0391-13.039 21.453 5.7461-3.7461 12.473-2.2891 68.055 22.52 58.113 1.5547 0.61719c0.21094 0.089843 21.391 8.7227 27.98 25.277 2.9688 7.4336 2.4766 15.504-1.4297 23.98l6.9727 3.2188c0.82422-1.793 1.3594-3.5625 1.9336-5.3359 8.4219 7.2383 19.754 11.102 31.961 11.094 0.90234 0 1.8281-0.097656 2.7383-0.14062zm5.8359-95.449-6.8945 18.191-6.8867 2.7109c-7.7148-7.5898-16.68-12.172-20.277-13.812l-1.9375-5.0117 14.062-9.9102-4.4258-6.2773-12.504 8.8125-7.0352-18.152 9.1055 0.875 22.148 11.746 14.434 10.102c0.058594 0.25 0.11328 0.48828 0.21094 0.72656zm21.723-8.6328c23.508-10.094 49.211-3.0234 57.266 15.742 8.0508 18.773-4.543 42.258-28.07 52.34-19.25 8.2734-40.805 4.9336-52.031-7.7148 0.45312-5.4102-0.22266-10.688-2.2461-15.777-1.3008-3.2773-3.1289-6.1797-5.1328-8.9023l7.5664-2.9805 9.2891-24.484c4.0195-3.2656 8.4258-6.1172 13.359-8.2227zm-38.184-11.852-17.395-9.2266-15.121-1.707-5.8516-15.098 0.11719-3.6523 12.867 12.789 5.4102-5.4375-17.941-17.836 0.050781-1.6016h6.3633l31.492 39.391v2.3789zm98.285-232.59-1.2734-0.60938-43.301 11.684c-0.97266 0.39844-23.836 10.023-29.16 29.812l-24.527 96.152-4.0234 38.297-17.57 15.609-6.2383-7.7969h-9.8086l1.3164-41.594 9.6445-32.137 10.969-1.9375 28.398-36.078-5.0391-7.9805v-21.812l-8.0781-15.492 8-26.074 4.4883-22.449 14.105-6.0703 21.531 8.9688 52.922 9.9609c0.44141 0.11328 10.395 2.6328 10.41 9.5078-1.25 1.2695-4.8711 3.7695-12.766 0.039062z" style="fill: rgb(0, 62, 232);"/>
    <path d="m243.31 346.01c0.52344 0.96094 1.5117 1.5039 2.5352 1.5039 0.46094 0 0.9375-0.11328 1.3711-0.34375 1.3945-0.75781 1.918-2.5078 1.1602-3.9062l-10.961-20.242c-0.76172-1.3945-2.5078-1.8984-3.9062-1.1602-1.3945 0.75781-1.918 2.5078-1.1602 3.9062z" style="fill: rgb(0, 62, 232);"/>
    <path d="m328.96 407.5-4.4648-16.227c-0.42188-1.5312-2.0234-2.4492-3.5352-2.0078-1.5273 0.42188-2.4375 2.0039-2.0078 3.5352l4.6211 16.793c0.10547 0.37891 0.28516 0.72656 0.52344 1.0352l3.5 4.375c0.56641 0.72266 1.4062 1.0859 2.2461 1.0859 0.62891 0 1.2656-0.20312 1.8008-0.62891 1.2383-0.99219 1.4414-2.8008 0.44922-4.0469z" style="fill: rgb(0, 62, 232);"/>
    <path d="m312.27 346.9c-0.42188-1.5273-2.0156-2.4414-3.5352-2.0078-1.5273 0.42188-2.4375 2.0039-2.0078 3.5352l6.1055 22.191c0.35156 1.2734 1.5039 2.1133 2.7734 2.1133 0.25391 0 0.51172-0.027344 0.76172-0.10547 1.5273-0.42188 2.4375-2.0039 2.0078-3.5352z" style="fill: rgb(0, 62, 232);"/>
    <use transform="matrix(1, 0, 0, 1, 70, 665)" style="fill: rgb(0, 62, 232);" xlink:href="#s"/>
    <use transform="matrix(1, 0, 0, 1, 95.6875, 665)" style="fill: rgb(0, 62, 232);" xlink:href="#e"/>
    <use transform="matrix(1, 0, 0, 1, 112.9453125, 665)" style="fill: rgb(0, 62, 232);" xlink:href="#c"/>
    <use transform="matrix(1, 0, 0, 1, 136.68359375, 665)" style="fill: rgb(0, 62, 232);" xlink:href="#a"/>
    <use transform="matrix(1, 0, 0, 1, 160.3046875, 665)" style="fill: rgb(0, 62, 232);" xlink:href="#b"/>
    <use transform="matrix(1, 0, 0, 1, 177.03515625, 665)" style="fill: rgb(0, 62, 232);" xlink:href="#c"/>
    <use transform="matrix(1, 0, 0, 1, 200.7734375, 665)" style="fill: rgb(0, 62, 232);" xlink:href="#l"/>
    <use transform="matrix(1, 0, 0, 1, 238.01171875, 665)" style="fill: rgb(0, 62, 232);" xlink:href="#k"/>
    <use transform="matrix(1, 0, 0, 1, 263.0625, 665)" style="fill: rgb(0, 62, 232);" xlink:href="#j"/>
    <use transform="matrix(1, 0, 0, 1, 298.0625, 665)" style="fill: rgb(0, 62, 232);" xlink:href="#g"/>
    <use transform="matrix(1, 0, 0, 1, 310.0625, 665)" style="fill: rgb(0, 62, 232);" xlink:href="#d"/>
    <use transform="matrix(1, 0, 0, 1, 334.10546875, 665)" style="fill: rgb(0, 62, 232);" xlink:href="#f"/>
    <use transform="matrix(1, 0, 0, 1, 359.0234375, 665)" style="fill: rgb(0, 62, 232);" xlink:href="#a"/>
    <use transform="matrix(1, 0, 0, 1, 382.640625, 665)" style="fill: rgb(0, 62, 232);" xlink:href="#b"/>
    <use transform="matrix(1, 0, 0, 1, 399.37109375, 665)" style="fill: rgb(0, 62, 232);" xlink:href="#a"/>
    <use transform="matrix(1, 0, 0, 1, 435.17578125, 665)" style="fill: rgb(0, 62, 232);" xlink:href="#i"/>
    <use transform="matrix(1, 0, 0, 1, 460.09375, 665)" style="fill: rgb(0, 62, 232);" xlink:href="#a"/>
    <use transform="matrix(1, 0, 0, 1, 483.7109375, 665)" style="fill: rgb(0, 62, 232);" xlink:href="#f"/>
    <use transform="matrix(1, 0, 0, 1, 508.62890625, 665)" style="fill: rgb(0, 62, 232);" xlink:href="#h"/>
    <use transform="matrix(1, 0, 0, 1, 533.6796875, 665)" style="fill: rgb(0, 62, 232);" xlink:href="#h"/>
    <use transform="matrix(1, 0, 0, 1, 558.734375, 665)" style="fill: rgb(0, 62, 232);" xlink:href="#a"/>
    <use transform="matrix(1, 0, 0, 1, 70, 700)" style="fill: rgb(0, 62, 232);" xlink:href="#r"/>
    <use transform="matrix(1, 0, 0, 1, 85.2265625, 700)" style="fill: rgb(0, 62, 232);" xlink:href="#e"/>
    <use transform="matrix(1, 0, 0, 1, 102.48828125, 700)" style="fill: rgb(0, 62, 232);" xlink:href="#d"/>
    <use transform="matrix(1, 0, 0, 1, 126.53125, 700)" style="fill: rgb(0, 62, 232);" xlink:href="#q"/>
    <use transform="matrix(1, 0, 0, 1, 175.1875, 700)" style="fill: rgb(0, 62, 232);" xlink:href="#b"/>
    <use transform="matrix(1, 0, 0, 1, 191.91796875, 700)" style="fill: rgb(0, 62, 232);" xlink:href="#i"/>
    <use transform="matrix(1, 0, 0, 1, 216.8359375, 700)" style="fill: rgb(0, 62, 232);" xlink:href="#c"/>
    <use transform="matrix(1, 0, 0, 1, 252.7578125, 700)" style="fill: rgb(0, 62, 232);" xlink:href="#p"/>
    <use transform="matrix(1, 0, 0, 1, 282.05078125, 700)" style="fill: rgb(0, 62, 232);" xlink:href="#d"/>
    <use transform="matrix(1, 0, 0, 1, 306.09765625, 700)" style="fill: rgb(0, 62, 232);" xlink:href="#o"/>
    <use transform="matrix(1, 0, 0, 1, 331.01171875, 700)" style="fill: rgb(0, 62, 232);" xlink:href="#f"/>
    <use transform="matrix(1, 0, 0, 1, 368.1171875, 700)" style="fill: rgb(0, 62, 232);" xlink:href="#n"/>
    <use transform="matrix(1, 0, 0, 1, 393.765625, 700)" style="fill: rgb(0, 62, 232);" xlink:href="#e"/>
    <use transform="matrix(1, 0, 0, 1, 411.02734375, 700)" style="fill: rgb(0, 62, 232);" xlink:href="#d"/>
    <use transform="matrix(1, 0, 0, 1, 435.07421875, 700)" style="fill: rgb(0, 62, 232);" xlink:href="#g"/>
    <use transform="matrix(1, 0, 0, 1, 447.0703125, 700)" style="fill: rgb(0, 62, 232);" xlink:href="#c"/>
    <use transform="matrix(1, 0, 0, 1, 470.80859375, 700)" style="fill: rgb(0, 62, 232);" xlink:href="#m"/>
    <use transform="matrix(1, 0, 0, 1, 491.5546875, 700)" style="fill: rgb(0, 62, 232);" xlink:href="#b"/>
  </g>
</svg>