<?xml version="1.0" encoding="utf-8"?>
<svg width="700pt" height="700pt" version="1.1" viewBox="0 0 700 700" xmlns="http://www.w3.org/2000/svg" xmlns:xlink="http://www.w3.org/1999/xlink">
  <g>
    <path d="m510.98 399.58c0.097656-0.28516 0.21875-0.55859 0.23828-0.875 1.8008-24.941-18.762-39.004-22.195-41.176l0.94531-2.0586c0.62891-1.3633 0.31641-2.9883-0.78516-4.0195l-16.945-15.855 6.9922-24.023c0.30859-1.0703 0.089843-2.2344-0.59375-3.1211l-42.078-54.293 21.328-11.598c0.91016-0.49609 1.5547-1.3711 1.7578-2.3867l7.9375-39.684c0.019531-0.097657-0.015625-0.19531 0-0.29297l1.9258 0.035156h0.0625c1.0703 0 2.0938-0.49609 2.7578-1.3438 0.67969-0.86719 0.91016-1.9961 0.62891-3.0586l-22.316-83.664c-0.37109-1.3789-1.5391-2.3945-2.9531-2.5703l-32.418-3.9961c-0.38672-0.042968-0.75-0.035156-1.1133 0.042969l-20.992 4.1914-8.5977-23.863c-0.32812-0.91016-1.0234-1.6445-1.9102-2.0312-0.89453-0.37891-1.8984-0.38672-2.7852 0.015625l-27.852 12.25-14.742-19.152-12.426-38.059-0.003906-13.844c0-1.0859-0.50391-2.1133-1.3633-2.7734-0.59375-0.45312-6-4.418-11.766-2.5703-3.7188 1.2109-6.4102 4.4375-8.0078 9.5977l-12.621 23.668c-0.11328 0.21094-0.19531 0.43359-0.26562 0.65625-0.35156 1.1914-8.4336 29.316 4.8711 42.617 0.23828 0.23828 0.50391 0.44141 0.79688 0.59375 2.0156 1.0977 8.3008 4.3125 13.098 4.4922l9.625 9.4727c-27.355-8.7852-59.684-12.676-65.406-13.32-1.2266-0.11719-2.4414 0.39062-3.1836 1.3711l-10.27 13.648c-35.477 3.4453-39.367-10.332-39.395-10.332-1.75-15.785-7.5586-17.953-9.3242-18.25-17.34-2.7383-25.523 9.7734-26.152 10.863-10.219 24.652 13.754 58.332 14.777 59.754 0.1875 0.26562 0.41406 0.49609 0.67188 0.69922 3.3047 2.6094 7.0078 3.6875 10.668 3.0859 5.1641-0.82422 8.9805-4.6133 10.816-6.832h12.824c-6.6133 5.4727-11.562 12.559-13.867 20.938-3.2812 11.969-0.9375 24.684 6.6016 35.789 7.3711 10.863 18.879 18.906 32.402 22.68l6.9375 21.238-46.18 40.125c-0.35156 0.30078-0.63672 0.67188-0.83984 1.0859l-56.406 114.2-11.527 19.066-24.695 35.883c-2.8008 4.2266-9.1914 14.656-7.9883 20.074 0.28516 1.2734 1.2539 2.2812 2.5078 2.6172 0.90234 0.24609 16.535 4.3828 32.039 4.3828 5.957 0 11.895-0.61719 16.969-2.2891 0.55859-0.20312 5.5234-2.1836 7.4258-7.8242 1.5742-4.6836 0.47656-10.242-3.2617-16.512 0.78906-4.2969 4.3398-19.27 15.75-24.207l13.328 2.3945 0.085938 0.015625 25.262 4.5273c1.6523 0.25781 3.3516-0.67188 3.9219-2.2891l32.137-91.965 16.57-5.3281c0.35547 0.80469 0.75 1.6094 1.1211 2.4141l-10.59 8.9688c-0.78906 0.67969-1.2461 1.6641-1.2383 2.7109 0.015625 1.0352 0.48438 2.0234 1.2969 2.6797l36.633 29.82 26.047 46.004c4.3477 7.7344 9.5742 14.723 15.73 20.91 28.961 29.094 68.984 32.039 83.922 32.039 3.4102 0 5.5078-0.15234 5.8711-0.18359h25.691c0.53906 0 1.043-0.14844 1.4961-0.36328 0.125-0.0625 0.23047-0.16016 0.35156-0.23828 0.32031-0.21094 0.60938-0.44922 0.84766-0.75 0.054688-0.070313 0.14844-0.097657 0.20312-0.18359 0.097656-0.14844 0.16797-0.35547 0.25781-0.51172 0.019531-0.050781 0.054687-0.097656 0.078124-0.14844 2.7773-4.5859 3.9219-12.066 4.3594-18.277 7.4336 9.332 17.996 16.156 30.203 19.355 4.9648 1.3086 10.031 1.9609 15.062 1.9609 23.199 0 43.098-14.09 48.383-34.266 3.2344-12.312 0.85547-25.277-6.6836-36.52-7.043-10.449-17.816-18.184-30.477-22.039zm-6.7422-1.582c-3.5156-0.64453-7.0547-1.0859-10.59-1.0859-0.94531 0-1.8359 0.16016-2.7656 0.21094-0.078124-0.1875-0.10547-0.38672-0.21875-0.56641-5.7266-8.8984-11.691-11.844-15.422-12.844v-4.9844c0.23047-0.089844 0.48437-0.125 0.71484-0.23047 6.3789-2.8438 8.5547-10.219 9.0234-12.164l1.0938-2.3711c4.2188 2.8477 19.465 14.555 18.164 34.035zm-46.871 12.969c-0.015626-5.3125-0.82422-9.2539-1.6094-11.887l17.18-6.2383c0.89453-0.32031 1.4766-1.0508 1.8633-1.8828 2.1133 0.88281 5.1016 2.8633 8.3008 7.0703-10 1.9219-18.93 6.4375-25.734 12.938zm-42.332-214.27c0.39844 1.5195 1.75 2.5898 3.3242 2.6172l12.824 0.23047-3.0586 4.5586-8.6953 2.3711c-1.1602 0.31641-2.0781 1.2109-2.4297 2.3672l-5.5078 18.258c-0.32031 1.0586-0.125 2.2031 0.53906 3.1016 0.66406 0.89062 1.6992 1.4141 2.8086 1.4141h10.809l1.457 1.7578-19.613 59.012-47.578-46.859c0.019532-5.5703 0.019532-11.137 0-16.633l19.902-42.727 30.27-8.3789zm-61.402 117.16 0.65625 0.32812-30.387 25.957-5.1445-29.484zm15.836 8 5.5039 2.7773-11.781 3.8633zm14.91-0.30859-24.934-12.605c-0.22266-0.39844-0.50391-0.74219-0.85937-1.0273 0.76172-15.898 1.1406-34.125 1.2891-52.633l78.262 77.078c-7.8594 0.69141-14.504 4.0117-18.492 6.4961-6.957-18.207-17.414-22.027-18.031-22.238-0.72266-0.22266-1.4844-0.23828-2.1992 0zm40.941 45.453c-0.60937-8.3633-1.8398-15.371-3.4492-21.23 2.918-2.0078 9.3789-5.7266 17.094-6.3477-0.097656 0.125-0.27344 0.34375-0.29297 0.37891-0.55859 0.76953-0.78516 1.7422-0.61719 2.6875 0.91797 5.0195 5.9727 30.324 15.875 35.273 0.76953 0.39062 1.6602 0.47656 2.4844 0.24609l4.5234-1.2305 0.007812 0.007812-5.1992 4.0898zm29.457 21.117c1.1758 0.54688 2.582 0.37891 3.6133-0.43359l9.8477-7.7344v7.1484l-20.363 7.3984-15.098-11.844-3.0586-5.957zm23.68-24.379c-0.11719 0.25391-0.20312 0.51953-0.25781 0.79687-0.007813 0.054688-1.2969 5.8672-5.1016 7.5586-0.67188 0.30078-1.3984 0.46094-2.1914 0.48828 0.26562-0.67969 0.32031-1.4414 0.11719-2.1992-0.42578-1.5547-1.8398-2.5742-3.375-2.5742-0.30078 0-0.61719 0.042969-0.92578 0.125l-10.633 2.9062c-4.4531-3.7852-8.8047-17.766-10.844-28.027 0.83203-0.92969 2.2109-2.2969 4.0469-3.5898 0.097656-0.070312 0.21094-0.11719 0.30078-0.20312 3.1133-2.1289 7.4688-3.9609 12.727-3.1211l20.238 18.934zm-6.4531-52.41-5.5039 18.906-0.14844-0.13281c-0.46094-0.43359-1.0273-0.72656-1.6523-0.85938-6.8828-1.4961-12.578 0.30078-16.941 2.793l-35.113-34.586c0.39844-0.37891 0.79688-0.76953 0.98828-1.3242l11.969-36 4.7266-2.5703zm-18.906-74.145-24.262 13.195 5.5352-16.66c0.38672-1.1484 0.14844-2.4062-0.62891-3.3398l-3.7539-4.5234c-0.66406-0.79688-1.6523-1.2656-2.6953-1.2656h-7.7344l3.5898-11.887 8.0859-2.2031c0.80469-0.22266 1.5195-0.72656 1.9805-1.4297l6.3086-9.3945 21 0.37109zm-38.145-124.58 29.512 3.6406 20.516 76.895-43.848-0.77734-5.1797-19.84v-0.007813-0.007812l-3.3398-12.789c-0.48438-1.8633-2.3789-2.9805-4.2617-2.5-1.875 0.48828-2.9961 2.4023-2.5 4.2695l2.4844 9.5-31.926 8.8398c-0.98828 0.27344-1.8047 0.96484-2.2344 1.8984l-14.336 30.773c-0.33594-40.922-1.3711-74.605-1.3867-75.207-0.015625-0.37891-0.085937-0.74219-0.21094-1.0977-0.050782-0.125-0.11719-0.24609-0.16797-0.36328l16.137-2.2969c1.4336-0.20312 2.4375-1.5312 2.2266-2.9688-0.19531-1.4297-1.4688-2.4727-2.9688-2.2266l-18.242 2.5898c-1.7773-2.2891-4.0898-4.4453-6.832-6.4688 7.6719-2.8008 20.848-6.7695 29.715-4.7891 0.48438 0.10547 0.98047 0.11328 1.4414 0.015625zm-101.56-17.234c-0.82422-0.8125-1.9727-1.168-3.1445-0.9375-1.5469 0.30859-6.3633-1.4961-9.9609-3.3867-9.2461-9.9102-3.6484-32.082-2.8555-35.02l12.605-23.633c0.11328-0.21094 0.19531-0.43359 0.26562-0.65625 0.60938-2.0664 1.7148-4.6562 3.5508-5.2656 1.2617-0.42187 2.8281 0.089844 3.9766 0.65234v12.418c0 0.37109 0.0625 0.73438 0.16797 1.0859l12.789 39.156c0.125 0.37891 0.31641 0.72656 0.55469 1.0508l14.75 19.16-7.5469 6.4062c-1.4766 1.2539-1.6523 3.457-0.40625 4.9336 0.69141 0.82031 1.6719 1.2383 2.668 1.2383 0.79687 0 1.6016-0.27344 2.2617-0.83203l9.7109-8.2383 26.469-11.633 6.9727 19.355-7.3359 1.4688c-13.25-2.5-32.324 4.8281-37.918 7.1602-1.7578-0.94531-3.5781-1.8672-5.5039-2.7422zm-99.645 109.03c-6.3711-9.3867-8.3711-20.039-5.6406-30.008 2.8125-10.254 10.281-18.395 20.348-23.051 0.078125-0.027344 0.16797-0.019531 0.23828-0.054687 2.4062-1.0977 4.9414-1.9375 7.5234-2.6172 0.60938-0.15234 1.2383-0.26562 1.8555-0.39844 1.9258-0.42578 3.8867-0.72266 5.8711-0.91797 0.92969-0.089844 1.8672-0.16016 2.8203-0.19531 1.8672-0.078124 3.7578-0.027343 5.6562 0.10547 0.85547 0.054688 1.707 0.078125 2.5547 0.17578 2.7305 0.32031 5.4609 0.78906 8.1758 1.5312 2.9609 0.8125 5.7969 1.8906 8.5039 3.1367 0.1875 0.089844 0.39062 0.16016 0.58203 0.25391 2.625 1.2539 5.1016 2.7227 7.4336 4.3555 0.18359 0.125 0.37891 0.24609 0.55859 0.37891 2.3789 1.7148 4.5859 3.6172 6.5938 5.6992 0.050782 0.050781 0.097657 0.097657 0.14844 0.14844 2.0586 2.1562 3.8984 4.4883 5.5039 6.9844 0.30078 0.46875 0.63672 0.91797 0.91797 1.3945l-13.949 49.477c-10.641 5.7188-24.191 7.0547-36.969 3.5508-12.031-3.3086-22.238-10.395-28.727-19.949zm51.715 65.172-7.2461-6.4453-9.9531-30.465c2.8438 0.40625 5.6914 0.63672 8.5312 0.63672 1.7695 0 3.5078-0.17578 5.25-0.32813l2.8359 17.457c0.14844 0.85938 0.88281 1.4688 1.7305 1.4688 0.089844 0 0.18359-0.007813 0.28125-0.019532 0.96094-0.15234 1.6016-1.0508 1.4492-2.0078l-2.8125-17.297c3.9844-0.60938 7.832-1.6016 11.492-3.0234zm-23.441 75.836c-1.043 0.33594-1.8672 1.1406-2.2266 2.1758l-31.723 90.789-9.0078-1.6172 5.9375-15.898c0.50391-1.3516-0.18359-2.8711-1.5469-3.375-1.3438-0.48828-2.8633 0.17578-3.375 1.5469l-6.2734 16.785-8.0234-1.4414c-0.007812 0-0.015625-0.007812-0.019531-0.007812l-34.09-6.2109c-1.8555-0.29297-3.7227 0.91797-4.0742 2.8125-0.34375 1.8984 0.91797 3.7227 2.8125 4.0742l10.766 1.9609c-10.688 9.4648-12.867 25.508-12.973 26.336-0.10547 0.80469 0.085937 1.6328 0.51953 2.3164 3.0469 4.7734 4.1719 8.7773 3.2695 11.598-0.8125 2.5469-3.1367 3.5352-3.1211 3.5352h0.007812c-13.168 4.3242-34.391 0.18359-42.043-1.5625 0.92578-2.9414 3.5703-8.0977 6.6133-12.703l24.773-36.008 11.789-19.496 56.23-113.84 43.422-37.715 2.1992 6.7266c0.1875 0.58984 0.53906 1.1133 1.0078 1.5273l10.449 9.3047-4.9141 17.012c-0.11719 0.39844-0.15234 0.8125-0.13281 1.2266l1.3867 18.887-17.145 9.0312c-1.2891 0.67969-1.7773 2.2617-1.0977 3.5508 0.46875 0.89453 1.3789 1.3984 2.3242 1.3984 0.42187 0 0.83203-0.097656 1.2266-0.30078l15.113-7.9648 1.4141 19.285zm26.809-1.9258-3.5352-48.109 36.219-125.41c0.51172-1.7852-0.45312-3.6602-2.2109-4.2773l-1.5469-0.54688c-0.90234-1.3359-1.8828-2.625-2.9102-3.8789-0.050781-0.054687-0.085938-0.11719-0.13281-0.17578-0.84766-1.0234-1.75-2.0039-2.6758-2.9688-0.33594-0.35547-0.67188-0.71484-1.0234-1.0625-0.76953-0.75781-1.5664-1.4844-2.3789-2.1992-0.59375-0.52344-1.1914-1.0352-1.8047-1.5312-0.69141-0.55469-1.3945-1.0977-2.1133-1.625-0.8125-0.59375-1.6523-1.168-2.5-1.7227-0.62109-0.40625-1.2461-0.82031-1.8906-1.2031-1-0.60156-2.0352-1.1602-3.0781-1.707-0.57422-0.30078-1.1406-0.61719-1.7305-0.89453-1.1836-0.57422-2.4062-1.0859-3.6406-1.582-0.50391-0.20312-0.98828-0.43359-1.4961-0.62109-1.7578-0.65625-3.543-1.2539-5.3828-1.7578-2.3867-0.65234-4.7969-1.1133-7.2031-1.4688-0.49609-0.078125-0.99219-0.15234-1.4922-0.21875-2.3398-0.29297-4.6758-0.45312-7-0.47656-0.16016 0-0.32812-0.035156-0.48828-0.035156-0.28516 0-0.55469 0.054687-0.83984 0.0625-2.3594 0.035156-4.6953 0.18359-7.0078 0.49609-0.42578 0.054687-0.84766 0.125-1.2734 0.1875-1.9609 0.31641-3.8867 0.75-5.7812 1.2656-0.83984 0.22266-1.6797 0.44922-2.5 0.71484-1.6719 0.54687-3.3164 1.1484-4.9297 1.8555h-25.836c-1.1758 0-2.2695 0.58984-2.918 1.5664-0.80469 1.2109-3.8711 4.8086-7.2656 5.3477-1.5547 0.26562-3.1992-0.1875-4.8438-1.3867-2.6094-3.7852-21.902-32.797-13.992-52.012 0.0625-0.089843 6.2305-9.1758 18.324-7.3438 0.027343 0.015625 2.8477 1.6992 4.0547 12.504 0.14062 0.8125 3.8438 18.754 41.848 16.652l-8.3438 14.469c-0.96484 1.6719-0.39062 3.8164 1.2891 4.7812 0.55469 0.31641 1.1562 0.46875 1.75 0.46875 1.2109 0 2.3867-0.62891 3.0391-1.75l11.57-20.062 9.8359-13.07c18.27 2.1992 54.258 8.4141 76.98 18.395 0.125 0.0625 0.23828 0.125 0.37109 0.16797 9.5742 4.25 16.785 9.1719 19.133 14.762 0.25391 8.6016 3.0664 106.22 0.16797 168.53l-36.785-3.375c-1.0781-0.054688-2.1562 0.30859-2.8906 1.1133-0.73438 0.79688-1.0625 1.8984-0.875 2.9766l5.2852 30.297-3.1211-1.0156c-0.007812-0.31641-0.050781-0.62891-0.17578-0.9375l-2.1055-5.207c-0.53906-1.3359-2.0781-1.9883-3.4141-1.4492-1.3438 0.53906-1.9883 2.0703-1.4492 3.4141l0.85938 2.1289-17.543-5.7188c-1.1484-0.37891-2.4141-0.125-3.3516 0.65625l-17.023 14.422c-0.078126-0.13281-0.15625-0.27734-0.22656-0.43359zm20.273-7.3633 25.5 8.3242-11.262 3.6953c-1.3281 0.44141-2.2734 1.625-2.3945 3.0312-0.42187 4.957-0.58984 9.7227-0.69922 14.441l-11.145 17.746-28.441-23.148zm8.9648 57.395 2.7578-6.7969c0.44922 5.2656 1.1289 10.34 2.0234 15.238zm122.84 91.062c-0.48828 0.050781-51.234 3.668-84.559-29.812-5.5703-5.6016-10.348-11.914-14.336-18.922-0.015624-0.027344-0.015624-0.0625-0.027343-0.089844l-0.14844-0.25781c-11.844-21.035-16.59-48.301-14.098-81.438l92.527-30.352c3.375 1.9102 15.492 10.953 18.039 42.715l-45.723 7.7422c-0.24609 0.042969-0.44141 0.16797-0.66406 0.25391-8.0859-6.9297-14.105-11.453-14.883-12.027-1.5547-1.1484-3.7383-0.82031-4.8945 0.72656-1.1562 1.5547-0.82422 3.7461 0.72656 4.8945 0.60938 0.44922 60.887 45.562 64.016 78.113 0.17578 1.8125 1.6992 3.1641 3.4805 3.1641 0.11719 0 0.22266-0.007813 0.34375-0.015625 1.918-0.18359 3.3398-1.8984 3.1484-3.8203-2.1367-22.219-26.566-48.266-45.297-65.199l41.516-7.0352 6.8242 13.312c0.23047 0.44141 0.55859 0.83984 0.96094 1.1562l17.234 13.516c0.62891 0.48828 1.3867 0.74219 2.1641 0.74219 0.40625 0 0.80469-0.070313 1.1953-0.21094l0.72266-0.26562c0.97266 3.4492 2.0508 10.066 0.19531 19.77-0.015626 0.0625 0.015624 0.125 0 0.1875-1.7148 3.0664-3.1914 6.2734-4.1016 9.7422-2.5469 9.7148-1.5547 19.824 2.6602 29.176-0.078125 0.30859-0.17578 0.60938-0.16016 0.9375 0.18359 6.4961-0.52344 17.801-2.9883 23.27zm120.46-28.203c-4.4883 17.094-21.594 29.035-41.613 29.035-4.4375 0-8.9023-0.58203-13.285-1.7305-12.012-3.1484-22.203-10.219-28.707-19.902-6.4062-9.5391-8.4414-20.496-5.7266-30.836 4.4883-17.094 21.602-29.035 41.621-29.035 4.4375 0 8.9023 0.58203 13.277 1.7305 12.012 3.1484 22.203 10.219 28.707 19.902 6.4062 9.543 8.4414 20.496 5.7266 30.836z" style="fill: rgb(0, 62, 232);"/>
    <path d="m310.22 204.74c-1.4336-0.17578-2.7148 0.94531-2.8438 2.3867l-1.8125 20.922c-0.125 1.4414 0.95312 2.7148 2.3945 2.8438 0.078125 0.007813 0.14844 0.007813 0.22266 0.007813 1.3516 0 2.4922-1.0273 2.6172-2.4023l1.8125-20.922c0.12891-1.4414-0.94922-2.7148-2.3906-2.8359z" style="fill: rgb(0, 62, 232);"/>
    <path d="m267.72 130.82c-11.633-3.207-20.379-4.7812-20.742-4.8438-1.4688-0.25391-2.793 0.69922-3.0508 2.1211-0.25781 1.4219 0.69922 2.7852 2.1211 3.0469 0.089844 0.015625 8.8906 1.6016 20.273 4.7383 0.23047 0.0625 0.46094 0.097656 0.69922 0.097656 1.1562 0 2.2031-0.76172 2.5273-1.9258 0.39062-1.4023-0.4375-2.8516-1.8281-3.2344z" style="fill: rgb(0, 62, 232);"/>
    <path d="m306.59 246.58c-1.4414-0.13281-2.7148 0.94531-2.8438 2.3867l-1.8125 20.922c-0.125 1.4414 0.95312 2.7148 2.3945 2.8438 0.078125 0.007813 0.14844 0.007813 0.22266 0.007813 1.3516 0 2.4922-1.0273 2.6172-2.4023l1.8125-20.922c0.12109-1.4375-0.94922-2.7109-2.3906-2.8359z" style="fill: rgb(0, 62, 232);"/>
    <path d="m311.59 189.05c0.078125 0.007813 0.14844 0.007813 0.22266 0.007813 1.3516 0 2.4922-1.0273 2.6172-2.4023l1.8125-20.922c0.125-1.4414-0.95313-2.7148-2.3945-2.8438-1.4297-0.15234-2.7148 0.94531-2.8438 2.3867l-1.8125 20.922c-0.12109 1.4492 0.95703 2.7227 2.3984 2.8516z" style="fill: rgb(0, 62, 232);"/>
    <path d="m300.7 314.57c0.078125 0.007812 0.14844 0.007812 0.22266 0.007812 1.3438 0 2.4922-1.0273 2.6172-2.4023l1.8203-20.914c0.125-1.4414-0.94531-2.7148-2.3945-2.8438-1.3789-0.10547-2.7148 0.95312-2.8438 2.3945l-1.8203 20.914c-0.11328 1.4414 0.94922 2.7148 2.3984 2.8438z" style="fill: rgb(0, 62, 232);"/>
    <path d="m305.97 151.49c0.88281 0 1.7422-0.44141 2.2344-1.2539 0.75781-1.2383 0.37109-2.8477-0.85938-3.6133-5.293-3.2422-11.816-6.3477-19.391-9.2461-1.3242-0.51172-2.8633 0.15234-3.3867 1.5117-0.51172 1.3594 0.16016 2.8789 1.5195 3.3867 7.2734 2.7852 13.504 5.7539 18.516 8.8281 0.42188 0.26563 0.89844 0.38672 1.3672 0.38672z" style="fill: rgb(0, 62, 232);"/>
    <path d="m383.57 246.13c0.16797 0.035156 0.34375 0.050782 0.51172 0.050782 1.2305 0 2.3242-0.85938 2.5742-2.1133l3.2461-16.262c0.28125-1.4219-0.64453-2.8008-2.0664-3.0859-1.3867-0.27344-2.8008 0.63672-3.0859 2.0586l-3.2461 16.262c-0.27734 1.4219 0.64844 2.8008 2.0664 3.0898z" style="fill: rgb(0, 62, 232);"/>
    <path d="m390.94 209.27c0.16797 0.035156 0.34375 0.050781 0.51172 0.050781 1.2305 0 2.3242-0.85938 2.5742-2.1133l4.1172-20.586c0.28125-1.4219-0.64453-2.8086-2.0664-3.0859-1.4062-0.28516-2.8008 0.63672-3.0859 2.0586l-4.1172 20.586c-0.28125 1.4219 0.64453 2.8008 2.0664 3.0898z" style="fill: rgb(0, 62, 232);"/>
    <path d="m218.16 378.15c-1.3516-0.48828-2.8633 0.17578-3.375 1.5469l-7.3516 19.676c-0.50391 1.3516 0.18359 2.8711 1.5469 3.375 0.30078 0.11328 0.60938 0.16016 0.91797 0.16016 1.0625 0 2.0664-0.65234 2.4648-1.707l7.3516-19.676c0.49609-1.3516-0.19922-2.8711-1.5547-3.375z" style="fill: rgb(0, 62, 232);"/>
    <path d="m232.86 338.8c-1.3438-0.48828-2.8633 0.17578-3.375 1.5469l-7.3516 19.672c-0.50391 1.3516 0.18359 2.8633 1.5469 3.375 0.30078 0.11328 0.60938 0.16016 0.91797 0.16016 1.0625 0 2.0664-0.65234 2.4648-1.707l7.3516-19.672c0.49609-1.3516-0.19531-2.8594-1.5547-3.375z" style="fill: rgb(0, 62, 232);"/>
    <path d="m431.07 475.27c-0.027344 0-3.0039 0.34375-7.8828 0.34375-4.082 0-8.2969-0.23047-12.523-0.69141-1.4844-0.089843-2.7383 0.89453-2.8906 2.332-0.15234 1.4414 0.89062 2.7383 2.332 2.8906 4.418 0.47656 8.8203 0.72266 13.082 0.72266 5.2227 0 8.3633-0.36328 8.4961-0.38672 1.4414-0.16797 2.4727-1.4688 2.2969-2.9102-0.16406-1.4336-1.4961-2.4844-2.9102-2.3008z" style="fill: rgb(0, 62, 232);"/>
    <path d="m319.06 379.94c-0.85547-5.7617-1.4688-11.859-1.8359-18.164 0.62109-0.6875 0.86719-1.6641 0.55469-2.6055-0.46094-1.3867-1.9805-2.1211-3.3242-1.6523l-0.76953 0.25781c-1.1133 0.37891-1.8477 1.4414-1.793 2.6172 0.35547 7.0547 1.0234 13.883 1.9688 20.309 0.1875 1.3086 1.3164 2.2383 2.5977 2.2383 0.125 0 0.25391-0.007812 0.38672-0.027344 1.4375-0.19922 2.4258-1.5352 2.2148-2.9727z" style="fill: rgb(0, 62, 232);"/>
    <path d="m323.33 400.11c-0.38672-1.3867-1.8047-2.2109-3.2422-1.8047-1.3945 0.39062-2.1992 1.8477-1.8047 3.2422 2.0078 7.0977 4.5156 13.84 7.4336 20.039 0.44141 0.95312 1.3867 1.5039 2.3711 1.5039 0.37891 0 0.75781-0.085938 1.1211-0.25391 1.3086-0.61719 1.875-2.1836 1.2539-3.4922-2.7891-5.9336-5.1914-12.41-7.1328-19.234z" style="fill: rgb(0, 62, 232);"/>
    <path d="m375.09 342.8c0.27344 0 0.55469-0.042969 0.82422-0.14062l19.938-6.6094c1.3711-0.44922 2.1211-1.9375 1.6602-3.3164-0.46094-1.3789-1.9531-2.1562-3.3164-1.6602l-19.938 6.6094c-1.3711 0.44922-2.1211 1.9375-1.6602 3.3164 0.36328 1.1016 1.3906 1.8008 2.4922 1.8008z" style="fill: rgb(0, 62, 232);"/>
    <path d="m340.89 436.91c-0.85938-1.1602-2.5078-1.3945-3.668-0.53906-1.1602 0.85937-1.4062 2.5078-0.53906 3.668 4.3242 5.8242 9.2539 11.129 14.645 15.758 0.48828 0.42578 1.0977 0.63672 1.707 0.63672 0.73438 0 1.4688-0.30859 1.9883-0.91797 0.94531-1.0938 0.82031-2.7578-0.28125-3.6953-5.0898-4.3828-9.75-9.3945-13.852-14.91z" style="fill: rgb(0, 62, 232);"/>
    <path d="m357.65 345.96c-0.45312-1.3711-1.9531-2.1562-3.3164-1.6602l-19.938 6.6094c-1.3711 0.44922-2.1211 1.9375-1.6602 3.3164 0.36328 1.0977 1.3867 1.8008 2.4844 1.8008 0.27344 0 0.55469-0.042969 0.82422-0.14062l19.938-6.6094c1.3789-0.45312 2.1211-1.9453 1.668-3.3164z" style="fill: rgb(0, 62, 232);"/>
    <path d="m390.52 470.94c-6.6836-1.9688-13.055-4.543-18.949-7.6719-1.2734-0.69922-2.8711-0.19531-3.5508 1.0859-0.6875 1.2812-0.1875 2.8711 1.0859 3.5508 6.2031 3.2891 12.906 6 19.938 8.0625 0.24609 0.078125 0.48828 0.11328 0.73438 0.11328 1.1328 0 2.1836-0.73438 2.5117-1.8906 0.42188-1.3789-0.37891-2.8438-1.7695-3.25z" style="fill: rgb(0, 62, 232);"/>
    <path d="m394.62 130.61c0.11719 0 0.24609-0.007813 0.37109-0.027344l20.789-2.9531c1.4336-0.20312 2.4375-1.5312 2.2266-2.9688-0.19531-1.4297-1.4688-2.4414-2.9688-2.2266l-20.789 2.9531c-1.4336 0.20313-2.4375 1.5312-2.2266 2.9688 0.18359 1.3086 1.3008 2.2539 2.5977 2.2539z" style="fill: rgb(0, 62, 232);"/>
    <path d="m450.17 186.26c0.35156 1.1289 1.3867 1.8555 2.5078 1.8555 0.25391 0 0.51172-0.035157 0.76953-0.11719 1.3789-0.42578 2.1641-1.8984 1.7344-3.2812l-6.168-20.074c-0.42578-1.3867-1.8672-2.1641-3.2812-1.7344-1.3789 0.42578-2.1641 1.8984-1.7344 3.2812z" style="fill: rgb(0, 62, 232);"/>
    <path d="m437.84 146.11c0.35156 1.1328 1.3867 1.8555 2.5078 1.8555 0.25391 0 0.51172-0.035156 0.76953-0.11719 1.3789-0.42578 2.1641-1.8984 1.7344-3.2773l-6.168-20.074c-0.42578-1.3867-1.8906-2.1836-3.2812-1.7422-1.3789 0.42578-2.1641 1.8984-1.7344 3.2773z" style="fill: rgb(0, 62, 232);"/>
    <use transform="matrix(1, 0, 0, 1, 70, 665)" style="fill: rgb(0, 62, 232);" xlink:href="#s"/>
    <use transform="matrix(1, 0, 0, 1, 95.6875, 665)" style="fill: rgb(0, 62, 232);" xlink:href="#e"/>
    <use transform="matrix(1, 0, 0, 1, 112.9453125, 665)" style="fill: rgb(0, 62, 232);" xlink:href="#c"/>
    <use transform="matrix(1, 0, 0, 1, 136.68359375, 665)" style="fill: rgb(0, 62, 232);" xlink:href="#a"/>
    <use transform="matrix(1, 0, 0, 1, 160.3046875, 665)" style="fill: rgb(0, 62, 232);" xlink:href="#b"/>
    <use transform="matrix(1, 0, 0, 1, 177.03515625, 665)" style="fill: rgb(0, 62, 232);" xlink:href="#c"/>
    <use transform="matrix(1, 0, 0, 1, 200.7734375, 665)" style="fill: rgb(0, 62, 232);" xlink:href="#l"/>
    <use transform="matrix(1, 0, 0, 1, 238.01171875, 665)" style="fill: rgb(0, 62, 232);" xlink:href="#k"/>
    <use transform="matrix(1, 0, 0, 1, 263.0625, 665)" style="fill: rgb(0, 62, 232);" xlink:href="#j"/>
    <use transform="matrix(1, 0, 0, 1, 298.0625, 665)" style="fill: rgb(0, 62, 232);" xlink:href="#g"/>
    <use transform="matrix(1, 0, 0, 1, 310.0625, 665)" style="fill: rgb(0, 62, 232);" xlink:href="#d"/>
    <use transform="matrix(1, 0, 0, 1, 334.10546875, 665)" style="fill: rgb(0, 62, 232);" xlink:href="#f"/>
    <use transform="matrix(1, 0, 0, 1, 359.0234375, 665)" style="fill: rgb(0, 62, 232);" xlink:href="#a"/>
    <use transform="matrix(1, 0, 0, 1, 382.640625, 665)" style="fill: rgb(0, 62, 232);" xlink:href="#b"/>
    <use transform="matrix(1, 0, 0, 1, 399.37109375, 665)" style="fill: rgb(0, 62, 232);" xlink:href="#a"/>
    <use transform="matrix(1, 0, 0, 1, 435.17578125, 665)" style="fill: rgb(0, 62, 232);" xlink:href="#i"/>
    <use transform="matrix(1, 0, 0, 1, 460.09375, 665)" style="fill: rgb(0, 62, 232);" xlink:href="#a"/>
    <use transform="matrix(1, 0, 0, 1, 483.7109375, 665)" style="fill: rgb(0, 62, 232);" xlink:href="#f"/>
    <use transform="matrix(1, 0, 0, 1, 508.62890625, 665)" style="fill: rgb(0, 62, 232);" xlink:href="#h"/>
    <use transform="matrix(1, 0, 0, 1, 533.6796875, 665)" style="fill: rgb(0, 62, 232);" xlink:href="#h"/>
    <use transform="matrix(1, 0, 0, 1, 558.734375, 665)" style="fill: rgb(0, 62, 232);" xlink:href="#a"/>
    <use transform="matrix(1, 0, 0, 1, 70, 700)" style="fill: rgb(0, 62, 232);" xlink:href="#r"/>
    <use transform="matrix(1, 0, 0, 1, 85.2265625, 700)" style="fill: rgb(0, 62, 232);" xlink:href="#e"/>
    <use transform="matrix(1, 0, 0, 1, 102.48828125, 700)" style="fill: rgb(0, 62, 232);" xlink:href="#d"/>
    <use transform="matrix(1, 0, 0, 1, 126.53125, 700)" style="fill: rgb(0, 62, 232);" xlink:href="#q"/>
    <use transform="matrix(1, 0, 0, 1, 175.1875, 700)" style="fill: rgb(0, 62, 232);" xlink:href="#b"/>
    <use transform="matrix(1, 0, 0, 1, 191.91796875, 700)" style="fill: rgb(0, 62, 232);" xlink:href="#i"/>
    <use transform="matrix(1, 0, 0, 1, 216.8359375, 700)" style="fill: rgb(0, 62, 232);" xlink:href="#c"/>
    <use transform="matrix(1, 0, 0, 1, 252.7578125, 700)" style="fill: rgb(0, 62, 232);" xlink:href="#p"/>
    <use transform="matrix(1, 0, 0, 1, 282.05078125, 700)" style="fill: rgb(0, 62, 232);" xlink:href="#d"/>
    <use transform="matrix(1, 0, 0, 1, 306.09765625, 700)" style="fill: rgb(0, 62, 232);" xlink:href="#o"/>
    <use transform="matrix(1, 0, 0, 1, 331.01171875, 700)" style="fill: rgb(0, 62, 232);" xlink:href="#f"/>
    <use transform="matrix(1, 0, 0, 1, 368.1171875, 700)" style="fill: rgb(0, 62, 232);" xlink:href="#n"/>
    <use transform="matrix(1, 0, 0, 1, 393.765625, 700)" style="fill: rgb(0, 62, 232);" xlink:href="#e"/>
    <use transform="matrix(1, 0, 0, 1, 411.02734375, 700)" style="fill: rgb(0, 62, 232);" xlink:href="#d"/>
    <use transform="matrix(1, 0, 0, 1, 435.07421875, 700)" style="fill: rgb(0, 62, 232);" xlink:href="#g"/>
    <use transform="matrix(1, 0, 0, 1, 447.0703125, 700)" style="fill: rgb(0, 62, 232);" xlink:href="#c"/>
    <use transform="matrix(1, 0, 0, 1, 470.80859375, 700)" style="fill: rgb(0, 62, 232);" xlink:href="#m"/>
    <use transform="matrix(1, 0, 0, 1, 491.5546875, 700)" style="fill: rgb(0, 62, 232);" xlink:href="#b"/>
  </g>
</svg>