<?xml version="1.0" encoding="utf-8"?>
<svg width="700pt" height="700pt" version="1.1" viewBox="0 0 700 700" xmlns="http://www.w3.org/2000/svg" xmlns:xlink="http://www.w3.org/1999/xlink">
  <g transform="matrix(1, 0, 0, 1, -0.000031, 0)">
    <path d="m292.88 193.76c-5.6016-5.0391-14-7.2812-21.281-5.6016-12.879 3.9219-34.719 13.441-38.641 28-1.1211 2.8008-2.2383 7.2812-3.9219 12.32-4.4805 12.879-7.8398 26.32-10.641 39.762-17.922 21.84-26.879 49.84-25.762 77.84 0.55859 14.559 5.6016 23.52 14 28 3.3594 1.6797 6.7188 2.2383 10.078 2.2383 10.641-1.1211 20.719-4.4805 29.121-10.641 12.32-1.1211 24.078-4.4805 35.281-9.5195-0.55859 16.801 0.55859 33.602 3.3594 50.398-5.6016 19.602-10.078 39.762-12.32 59.922-0.55859 3.3594 2.2383 6.1602 5.0391 6.7188h0.55859-0.55078c3.3594 0 5.6016-2.2383 6.1602-5.6016 2.8008-20.16 6.7188-39.762 12.32-58.801v-2.8008c-2.2383-12.32-3.3594-25.199-3.3594-38.078 3.3594 1.1211 6.7188-0.55859 7.8398-3.9219 1.1211-2.8008 0-5.6016-2.2383-6.7188-2.2383-2.2383-4.4805-4.4805-6.7188-6.7188-6.1602-6.7188-10.078-15.121-12.32-24.078-0.55859-3.3594-3.9219-5.6016-7.2812-4.4805-3.3594 0.55859-5.6016 3.9219-4.4805 7.2812 1.1211 5.6016 3.3594 11.762 6.1602 16.801-10.078 3.9219-20.719 6.7188-31.359 8.3984-1.1211 0-2.2383 0.55859-2.8008 1.1211-4.4805 3.3594-19.602 12.32-28 8.3984-5.0391-2.2383-6.7188-10.641-6.7188-17.359-0.55859-25.762 8.3984-50.961 24.641-71.121 1.1211-1.1211 1.6797-2.2383 1.6797-3.9219 2.2383-13.441 5.6016-26.32 10.078-38.641 1.6797-5.0391 2.8008-8.9609 3.9219-12.32 2.2383-7.2812 16.801-15.121 30.801-19.602 3.9219 0 7.2812 1.1211 10.078 3.3594 6.1602 4.4805 10.078 11.762 9.5195 19.602 0 4.4805-2.2383 8.3984-5.6016 11.199-7.8398 5.6016-17.922 7.2812-27.441 5.6016-3.9219-0.55859-6.7188-3.9219-6.1602-8.3984 0-3.3594-2.2383-6.1602-5.6016-6.7188-3.3594 0-6.1602 2.2383-6.7188 5.6016-1.1211 10.078 6.1602 19.602 16.238 21.281 1.6797 0.55859 3.3594 0.55859 4.4805 0.55859-3.918 10.078-6.7148 21.277-8.3945 31.918-1.6797 13.441-3.9219 26.879-7.8398 40.32-0.55859 3.3594 1.1211 6.7188 4.4805 7.2812 3.3594 0.55859 6.7188-1.1211 7.2812-4.4805 3.9219-14 6.1602-28.559 7.8398-43.121 1.6797-11.199 5.0391-22.398 9.5195-33.602 7.2812-1.1211 14-3.9219 19.602-8.3984 6.1602-5.0391 10.078-12.32 10.078-20.719 0.55859-10.641-4.4844-21.84-14.004-28.559z" style="fill: rgb(0, 61, 194);"/>
    <path d="m505.68 365.68c-1.1211-5.6016-1.6797-10.078-2.2383-14-2.2383-16.801-3.9219-25.762-15.68-42.559 0.55859-16.801-4.4805-33.602-14-47.602-10.078-14.559-25.762-24.641-43.121-28-12.879-11.199-28-19.602-44.238-24.078-3.3594-2.8008-3.9219-7.2812-1.6797-10.641 6.7188-13.441 7.8398-40.32 2.2383-68.32-6.1602-31.922-21.281-44.238-50.398-42.559-23.52 1.6797-50.398 8.9609-48.16 53.762 1.6797 36.961 4.4805 44.238 24.641 63.281 17.922 16.801 40.32 8.3984 49.281 1.6797 2.8008-2.2383 3.3594-5.6016 1.1211-8.3984-2.2383-2.8008-5.6016-3.3594-8.3984-1.1211-0.55859 0.55859-19.039 13.441-33.602-0.55859-17.359-16.801-19.039-20.719-20.719-54.879-1.6797-31.922 12.879-39.199 36.961-40.879 22.961-1.6797 32.48 6.7188 37.52 32.48 5.6016 28.559 3.3594 51.52-1.1211 60.48-5.0391 9.5195-2.2383 20.719 6.1602 26.879 0.55859 0.55859 1.1211 0.55859 1.6797 1.1211 15.121 4.4805 29.68 12.32 41.441 22.961 1.1211 1.1211 2.2383 1.6797 3.9219 1.6797 14.559 2.8008 28 10.641 36.961 22.961 8.3984 12.32 12.879 26.879 11.762 41.441 0 1.6797 0 3.3594 1.1211 4.4805 11.762 15.121 12.32 21.84 15.121 38.641 0.55859 4.4805 1.1211 8.9609 2.2383 14.559 4.4805 26.32-0.55859 45.922-4.4805 50.398-1.6797 1.6797-2.8008 1.6797-15.68-5.0391l-1.6797-1.1211c-14-6.7188-26.32-16.238-35.84-29.121-12.879-19.602-27.441-38.078-42.559-55.441-8.3984-8.3984-11.199-10.078-17.922-10.078-6.7188 0-13.441-1.1211-19.602-3.3594-4.4805-1.1211-7.8398-3.9219-10.078-8.3984-5.6016-10.078-2.2383-26.879-0.55859-33.039 1.6797-2.8008 10.078-14.559 28-6.1602 12.32 5.6016 14 10.078 16.238 16.238 2.2383 7.2812 7.2812 14 14 18.48 5.0391 3.3594 10.641 6.7188 16.801 10.078 14.559 8.3984 29.121 16.801 39.199 29.68 2.2383 2.8008 6.1602 3.3594 8.3984 1.1211 2.8008-2.2383 3.3594-6.1602 1.1211-8.3984-11.762-14.559-28-24.078-42.559-32.48-5.6016-3.3594-11.199-6.7188-16.238-10.078-4.4805-2.8008-7.8398-7.2812-9.5195-12.32-2.8008-7.2812-5.6016-15.121-22.398-22.961-30.238-14.559-44.238 11.762-44.238 11.762-1.6992-0.015625-1.6992 0.54688-1.6992 0.54688-0.55859 1.1211-7.8398 25.762 1.1211 42.559 3.3594 6.7188 10.078 12.32 17.359 14 7.2812 2.8008 15.121 3.9219 22.398 3.9219 2.8008 0 3.3594 0 9.5195 6.1602 15.121 16.801 29.121 34.719 42 53.762 2.2383 2.8008 4.4805 5.6016 6.7188 7.8398-2.2383 10.078-8.3984 41.441-5.6016 63.84 0 3.3594 2.8008 5.6016 6.1602 5.6016h0.55859c3.3594 0 5.6016-3.3594 5.6016-6.7188-0.55859-17.359 0.55859-35.281 4.4805-52.078 7.2812 5.6016 15.121 10.641 22.961 15.121l1.6797 1.1211c6.1602 3.9219 12.879 6.7188 20.16 7.2812 4.4805 0 8.3984-2.2383 10.641-5.6016 6.7227-8.4102 11.762-31.93 6.7227-59.93z" style="fill: rgb(0, 61, 194);"/>
    <use transform="matrix(1, 0, 0, 1, 70, 644)" style="fill: rgb(0, 61, 194);" xlink:href="#v"/>
    <use transform="matrix(1, 0, 0, 1, 90.546875, 644)" style="fill: rgb(0, 61, 194);" xlink:href="#d"/>
    <use transform="matrix(1, 0, 0, 1, 104.35546875, 644)" style="fill: rgb(0, 61, 194);" xlink:href="#a"/>
    <use transform="matrix(1, 0, 0, 1, 123.34765625, 644)" style="fill: rgb(0, 61, 194);" xlink:href="#c"/>
    <use transform="matrix(1, 0, 0, 1, 142.2421875, 644)" style="fill: rgb(0, 61, 194);" xlink:href="#b"/>
    <use transform="matrix(1, 0, 0, 1, 155.625, 644)" style="fill: rgb(0, 61, 194);" xlink:href="#a"/>
    <use transform="matrix(1, 0, 0, 1, 174.6171875, 644)" style="fill: rgb(0, 61, 194);" xlink:href="#i"/>
    <use transform="matrix(1, 0, 0, 1, 204.40625, 644)" style="fill: rgb(0, 61, 194);" xlink:href="#h"/>
    <use transform="matrix(1, 0, 0, 1, 224.44921875, 644)" style="fill: rgb(0, 61, 194);" xlink:href="#g"/>
    <use transform="matrix(1, 0, 0, 1, 252.44921875, 644)" style="fill: rgb(0, 61, 194);" xlink:href="#f"/>
    <use transform="matrix(1, 0, 0, 1, 272.97265625, 644)" style="fill: rgb(0, 61, 194);" xlink:href="#c"/>
    <use transform="matrix(1, 0, 0, 1, 291.8671875, 644)" style="fill: rgb(0, 61, 194);" xlink:href="#u"/>
    <use transform="matrix(1, 0, 0, 1, 317.734375, 644)" style="fill: rgb(0, 61, 194);" xlink:href="#a"/>
    <use transform="matrix(1, 0, 0, 1, 336.7265625, 644)" style="fill: rgb(0, 61, 194);" xlink:href="#t"/>
    <use transform="matrix(1, 0, 0, 1, 356.0703125, 644)" style="fill: rgb(0, 61, 194);" xlink:href="#s"/>
    <use transform="matrix(1, 0, 0, 1, 377.6328125, 644)" style="fill: rgb(0, 61, 194);" xlink:href="#c"/>
    <use transform="matrix(1, 0, 0, 1, 396.5234375, 644)" style="fill: rgb(0, 61, 194);" xlink:href="#r"/>
    <use transform="matrix(1, 0, 0, 1, 70, 672)" style="fill: rgb(0, 61, 194);" xlink:href="#q"/>
    <use transform="matrix(1, 0, 0, 1, 82.18359375, 672)" style="fill: rgb(0, 61, 194);" xlink:href="#d"/>
    <use transform="matrix(1, 0, 0, 1, 95.9921875, 672)" style="fill: rgb(0, 61, 194);" xlink:href="#e"/>
    <use transform="matrix(1, 0, 0, 1, 115.2265625, 672)" style="fill: rgb(0, 61, 194);" xlink:href="#p"/>
    <use transform="matrix(1, 0, 0, 1, 154.15234375, 672)" style="fill: rgb(0, 61, 194);" xlink:href="#b"/>
    <use transform="matrix(1, 0, 0, 1, 167.53515625, 672)" style="fill: rgb(0, 61, 194);" xlink:href="#o"/>
    <use transform="matrix(1, 0, 0, 1, 187.46875, 672)" style="fill: rgb(0, 61, 194);" xlink:href="#a"/>
    <use transform="matrix(1, 0, 0, 1, 216.20703125, 672)" style="fill: rgb(0, 61, 194);" xlink:href="#n"/>
    <use transform="matrix(1, 0, 0, 1, 239.640625, 672)" style="fill: rgb(0, 61, 194);" xlink:href="#e"/>
    <use transform="matrix(1, 0, 0, 1, 258.87890625, 672)" style="fill: rgb(0, 61, 194);" xlink:href="#m"/>
    <use transform="matrix(1, 0, 0, 1, 278.8125, 672)" style="fill: rgb(0, 61, 194);" xlink:href="#l"/>
    <use transform="matrix(1, 0, 0, 1, 308.4921875, 672)" style="fill: rgb(0, 61, 194);" xlink:href="#f"/>
    <use transform="matrix(1, 0, 0, 1, 329.015625, 672)" style="fill: rgb(0, 61, 194);" xlink:href="#d"/>
    <use transform="matrix(1, 0, 0, 1, 342.8203125, 672)" style="fill: rgb(0, 61, 194);" xlink:href="#e"/>
    <use transform="matrix(1, 0, 0, 1, 362.05859375, 672)" style="fill: rgb(0, 61, 194);" xlink:href="#k"/>
    <use transform="matrix(1, 0, 0, 1, 371.65625, 672)" style="fill: rgb(0, 61, 194);" xlink:href="#a"/>
    <use transform="matrix(1, 0, 0, 1, 390.6484375, 672)" style="fill: rgb(0, 61, 194);" xlink:href="#j"/>
    <use transform="matrix(1, 0, 0, 1, 407.2421875, 672)" style="fill: rgb(0, 61, 194);" xlink:href="#b"/>
  </g>
</svg>