<?xml version="1.0" encoding="utf-8"?>
<svg width="700pt" height="700pt" version="1.1" viewBox="0 0 700 700" xmlns="http://www.w3.org/2000/svg" xmlns:xlink="http://www.w3.org/1999/xlink">
  <g>
    <path d="m349.68 28c4.3555-0.12891 8.6523 1.0469 12.336 3.375 3.6875 2.3281 6.5898 5.707 8.3438 9.6992 1.8359 5.9844 2.1719 12.328 0.97656 18.469 0.82812-0.6875 1.8242-1.1406 2.8906-1.3125 0.85156 0.0625 1.6172 0.55078 2.0273 1.3008 1.1016 2.1953 1.3398 4.7266 0.66016 7.0859-0.80859 3.4102-2.0352 6.7031-3.6484 9.8125-0.44922 1.0078-1.1914 1.8711-1.9883 1.8711-0.48438 0-0.98828-0.31641-1.4609-1.1094-1.3047 1.3086-0.92188 4.4492-1.1836 6.1641-0.375 1.8164-0.93359 3.5859-1.6641 5.2891-1.1289 4.8359-0.24609 9.9219 2.4453 14.094 3.0078 3.7422 6.7305 6.8516 10.949 9.1484 3.5273 2.4922 7.2539 4.8594 10.957 7.0898 4.4688 1.668 9.0469 3.0273 13.699 4.0664 3.8945 1.6211 7.3516 4.1328 10.09 7.3359 5.6328 7.2656 9.2461 15.891 10.465 25 0.73438 4.5195 0.92188 9.1133 0.55859 13.68-0.36328 2.3086-0.49219 4.6484-0.38281 6.9844 0.55859 2.1914 1.2617 4.3398 2.1055 6.4375 1.0625 4.0039 1.7148 8.1016 1.9531 12.234-0.39062 5.0938 0.61719 10.195 2.9102 14.762 2.8164 3.9023 5.1602 8.1211 6.9883 12.574 1.5586 4.5742 2.6133 9.3047 3.1445 14.109 1.6992 10.031 4.1055 19.93 7.2031 29.617 2.6094 7.5625 6.1094 14.789 10.426 21.523 1.8984 2.9102 3.4883 6.0117 4.7461 9.25 0.5 2.6875 0.85938 5.3984 1.0781 8.1211 0.50781 1.332 0.78516 2.7422 0.82812 4.168-0.19141 1.1445-0.76172 2.1367-0.91797 3.3086l0.003906-0.003907c-0.066406 1.2227-0.25781 2.4375-0.57422 3.6172-0.42188 1.2383-1.0469 4.1875-2.2578 4.7188-0.27734 1.168-1.8477 5.8828-3.4492 5.8828l-0.003906 0.003907c-0.17578-0.003907-0.35156-0.058594-0.49609-0.16406-0.085938 0.011719-0.17188 0.015625-0.26172 0.015625-0.49609 0.007812-0.97266-0.1875-1.3281-0.53516-0.53125 0.80078-1.25 3.1992-2.457 3.1992-0.33594-0.019531-0.65234-0.16406-0.88672-0.40234-2.3906-0.082031-2.2383-3.3672-1.7461-4.9531-0.38672 0.72266-1.3945 2.6523-2.4375 2.6523-0.22266-0.003907-0.4375-0.089844-0.60156-0.23828-0.089844 0.015625-0.17969 0.023438-0.27344 0.023438-2.332 0-1.6797-5.9531-1.8398-7.375h0.003906c-0.066406-1.6641-0.37109-3.3086-0.91016-4.8867-0.71875-1.6562-1.8867-2.9102-2.4961-4.6641-1.7656-5.0977-4.7734-9.4922-6.0938-14.801v0.003907c-0.52344-2.2812-0.69531-4.625-0.50391-6.9531-0.16016-3.1094-1.3398-6.082-3.3594-8.4492-7.6211-10.246-14.707-20.879-21.223-31.855-2.875-5.0508-4.7734-10.598-5.5938-16.352-0.035157-3.0859 0.089843-6.1719 0.37109-9.2422-0.23438-3.5938-1.3008-7.082-3.1133-10.191-5.1641-10.242-7.418-21.699-6.5234-33.129 0.10547-1.5078 0.23047-3.0156 0.37109-4.5195v-0.003906c-1.668 5.7773-2.5078 11.762-2.5039 17.773-0.80859 5.2031-1.9375 10.348-3.3711 15.414-0.61328 2.5352-1.4219 5.0352-2.1445 7.5391-0.58984 2.0352-1.6641 3.9453-2.1484 6.0078-0.25391 2.5508-0.33203 5.1172-0.22656 7.6797-0.089844 0.95703-0.59766 1.8867-0.66406 2.8516h-0.003906c-0.035156 1.4844 0.44531 2.9297 1.3594 4.0977 1.3008 1.8086 2.2617 3.8398 2.8359 5.9961 0.20312 2.4141 0.71484 4.7969 1.5273 7.082 1.9648 4.5195 2.8906 9.4297 2.7031 14.355 0.48828 5.6094 1.2852 11.184 2.3828 16.707 0.58594 5.1484 0.625 10.344 0.11328 15.5 0.14453 11.172 0.92969 22.324 2.3516 33.402 0.26172 10.055-0.48828 20.113-2.2422 30.016-0.875 5.5938-2.4805 10.844-3.6836 16.336l0.003907 0.003906c-1.2422 6.5312-1.2734 13.23-0.097657 19.773 1.7422 10.484 2.7539 21.074 3.0273 31.695 0.10547 5.5938-0.4375 11.184-1.6211 16.648-1.3438 5.8086-3.0586 11.52-4.3828 17.336-2.5469 11.168-7.918 21.461-10.629 32.57v0.003907c-0.82422 2.6406-1.3672 5.3555-1.6289 8.1055-0.058594 2.293 0.46875 4.7031 0.55859 6.9922 0 2.6719 0.44141 5.3281 1.3086 7.8555 1.1133 2.8164 2.8594 3.6055 5.1445 5.207 1.9219 1.2227 3.4062 3.0195 4.2422 5.1367 0.41016 1.7383 0.14453 3.5664-0.73828 5.1172-0.75391 0.95703-1.5469 0.72656-2.6211 0.82422-1.3594 0.12109-2.7695 0.42188-4.2227 0.42188-0.19922 0-0.39844-0.003906-0.59766-0.019532-2.1289-0.13281-4.2578-0.17187-6.375-0.17187-2.7031 0-5.4023 0.0625-8.1172 0.0625h-0.16797v0.003906c-3.4922 0.45703-7.0195-0.50781-9.7969-2.6758-3.207-3.3867-1.4375-8.1797-1.1484-12.305 0.29297-2.9297 0.13281-5.8828-0.46484-8.7656-0.64453-2.0703-0.6875-4.2773-0.125-6.3711 1.6406-5.1406 2.6602-10.461 3.0352-15.844-0.13281-11.969-1.1641-23.91-3.0781-35.727-0.97266-10.766-0.21875-21.617 2.2344-32.145 1.9258-5.8477 2.543-12.051 1.8125-18.164-1.082-4.9648-2.7266-9.8047-3.4727-14.852-1.6133-10.895-2.4961-21.984-3.8164-32.93-1.1875-9.8555-1.6602-19.809-1.8633-29.734h0.003906c-0.19141-5.0156-0.089843-10.035 0.30469-15.039-1.0859 0.25391-2.2109 0.25391-3.293 0 0.66797 10.504 0.55469 21.047-0.33984 31.535-0.57813 10.738-2.2656 21.41-3.5664 32.078-0.59766 4.9102-0.79297 9.9023-1.5938 14.785-0.85156 5.207-2.6875 10.203-3.5352 15.398-0.40234 5.8125 0.29688 11.652 2.0625 17.207 1.1094 5.3398 1.8633 10.746 2.2539 16.184 0.47656 5.3203 0.43359 10.676-0.125 15.988-0.69531 5.9141-1.8672 11.762-2.4766 17.688-0.61328 6.0234-0.79688 12.082-0.54297 18.133 0.50391 5.4648 1.5703 10.863 3.1836 16.105 0.37891 2.1211 0.23047 4.3008-0.42969 6.3516-0.54688 3.2148-0.61328 6.4961-0.19531 9.7305 0.36719 4.0234 1.6914 8.0625-1.7773 11.105h0.003906c-2.4727 1.7539-5.4883 2.5586-8.5039 2.2734-0.6875 0-1.3633-0.015624-2.0117-0.027343-1.7031-0.039063-3.4023-0.054688-5.0938-0.054688-2.8555 0-5.6992 0.058594-8.5625 0.20703-0.16406-0.007812-0.32031-0.007812-0.47656-0.007812-1.4297 0-2.8477-0.30859-4.1719-0.42969-1.4258-0.12891-2.0547 0.050782-2.8047-1.2969h0.003906c-0.73437-1.5117-0.89844-3.2422-0.45703-4.8633 1-2.2891 2.7188-4.1914 4.8945-5.418 5.0547-3.0703 5.4414-7.918 5.6523-13.449 0.39453-2.5078 0.55078-5.043 0.46484-7.582-0.37109-2.5039-1.0586-5.0273-1.6797-7.4805-1.418-5.5977-3.6328-10.977-5.5859-16.406-3.8125-11.043-6.9688-22.305-9.4531-33.723-1.7539-10.582-1.7812-21.379-0.082031-31.973 1.0977-11.664 4.2109-23.742 1.5859-35.371-1.2266-5.4258-2.7812-10.602-3.6445-16.133-0.82422-5.2734-1.5742-10.543-1.9727-15.871v0.003906c-0.42578-10.254 0.035156-20.531 1.3828-30.707 0.69922-5.7227 0.92188-11.492 0.66797-17.25-0.48828-4.9961-0.43359-10.031 0.15625-15.016 1.1016-5.6875 1.9023-11.43 2.3984-17.199-0.14063-4.8281 0.80859-9.625 2.7852-14.035 0.79688-2.4219 1.3086-4.9336 1.5195-7.4766 0.73047-2.1445 1.7695-4.168 3.0898-6.0117 1.5664-2.625 0.53906-4.2227 0.37109-6.9648 0.17969-2.7031-0.007812-5.418-0.55469-8.0703-1.4062-4.2109-2.9844-8.3203-4.0156-12.668-1.4805-5.3984-2.6406-10.879-3.4688-16.414 0-5.6367-0.80078-11.246-2.3789-16.656 1.6367 11.578 0.09375 23.383-4.4648 34.156-1.668 2.9922-3.0703 6.1289-4.1836 9.3711-0.57422 3.3242-0.63281 6.7148-0.16797 10.055-0.125 6-1.6211 11.895-4.3672 17.234-5.6289 10.941-12.348 21.285-20.059 30.875-2 2.4961-3.7227 5.1992-5.1406 8.0664-0.59766 2.4062-0.75781 4.9023-0.47266 7.3711-0.78125 5.2773-2.5938 10.352-5.332 14.934-0.84375 2.1758-1.8008 4.3086-2.875 6.3867-1.0273 1.5352-1.6914 3.2852-1.9336 5.1172-0.20703 1.3828-0.31641 2.7812-0.32812 4.1758 0.003906 1.2695 0.45312 3.0547-0.52734 4.0781-0.25781 0.34766-0.64844 0.5625-1.0781 0.60156-0.085937-0.003907-0.16797-0.011719-0.25391-0.027344-0.16406 0.14844-0.37891 0.23438-0.60156 0.23828-1.0352 0-2.0508-1.918-2.4375-2.6523 0.44531 1.582 0.67969 4.8828-1.7461 4.9531-0.23438 0.23828-0.55078 0.38281-0.88672 0.40625-1.207 0-1.9258-2.3984-2.457-3.1992v-0.003907c-0.35156 0.35156-0.83203 0.54688-1.3281 0.53906-0.085938 0-0.17188-0.007813-0.25781-0.019532-0.14453 0.10547-0.32031 0.16016-0.49609 0.16406-1.5977 0-3.1719-4.6914-3.4531-5.8789-1.3789-0.60156-2.2969-4.5664-2.6016-6.0078-0.79297-2.5273-1.0508-5.1953-0.75781-7.8281 0.37109-1.7109 0.90625-3.4922 1.1055-5.2344v-0.003906c-0.027343-1.5508 0.085938-3.1055 0.33594-4.6406 1.3008-3.5586 3.0508-6.9414 5.207-10.059 10.914-17.27 14.723-37.129 18.359-56.973 0.89453-5.2188 2.6758-10.246 5.2656-14.867 1.2461-2.1641 3.0469-3.9844 4.2969-6.125 1.2188-2.3359 1.9062-4.9102 2.0195-7.5391 0.19531-5.0664 0.67969-10.117 1.457-15.125 0.45703-2.3477 1.0898-4.6562 1.8906-6.9062 0.875-2.3789 1.1758-4.9258 0.875-7.4414-1.1719-17.883 3.1836-42.684 22.684-49.363 2.3945-0.60156 4.8164-1.0742 7.2617-1.4141 2.4023-0.6875 4.6641-1.8008 6.6758-3.2812 4.1172-2.6875 8.2422-5.293 12.266-8.1172 4.5703-2.5469 8.0469-6.6797 9.7734-11.621 0.90625-2.8398 1.1055-5.8594 0.58203-8.793-0.77734-1.8125-1.4141-3.6797-1.9062-5.5898-0.29297-1.7773 0.10547-5.0156-1.2227-6.3555-0.48047 0.78516-0.96484 1.1055-1.4414 1.1055-1.8828 0-3.5859-5.0586-4.0625-6.4102-1.2773-2.8242-1.9141-5.8984-1.8633-9-0.10156-1.668 0.60547-3.2852 1.9023-4.3438 0.36719-0.24219 0.79688-0.375 1.2383-0.38672 0.98828 0 1.7656 0.76953 2.7031 1.3867v0.003906c-0.97656-5.5195-0.89062-11.172 0.25-16.66 1.8594-5.8789 6.1914-10.656 11.867-13.082 2.8984-1.1992 6.0117-1.8164 9.1523-1.8086m0-5.6016c-3.8828-0.011719-7.7266 0.75-11.309 2.2422-7.2383 3.0938-12.758 9.2031-15.098 16.719-1.0234 3.9219-1.375 7.9883-1.0391 12.031-0.21875 0.10938-0.43359 0.22656-0.64844 0.35547h-0.003907c-2.9531 1.9414-4.6953 5.2734-4.6094 8.8086-0.10156 3.9141 0.66406 7.8047 2.2461 11.387 0.89844 3.7461 3.1289 7.0391 6.2734 9.2656 0.035156 0.45312 0.078124 0.87109 0.14062 1.2461 0.30078 1.6367 0.79297 3.2305 1.4688 4.75 0.21484 0.52344 0.4375 1.0508 0.61719 1.6211 0.15625 1.8828-0.058594 3.7812-0.62891 5.582-0.96875 3.4258-3.2227 5.4883-7.6016 8.5625-3 2.1055-6.0156 4.0586-9.207 6.1289l-2.8984 1.8828-0.003906-0.003907c-1.4727 1.0977-3.1172 1.9492-4.8633 2.5156-0.82422 0.1875-1.6406 0.30078-2.457 0.41797h-0.003906c-1.8203 0.21094-3.6211 0.59766-5.3672 1.1562-21.676 7.4258-27.879 33.293-26.457 55.027h-0.003907c0.24609 1.7461 0.054688 3.5273-0.55469 5.1797-0.89453 2.5156-1.6016 5.0938-2.1133 7.7109-0.68359 3.8516-1.1055 7.7422-1.2617 11.652-0.085937 1.3672-0.16797 2.7344-0.28125 4.1094-0.054687 1.793-0.48828 3.5586-1.2734 5.1719-0.52734 0.84375-1.1055 1.6562-1.7305 2.4336-0.94141 1.1797-1.8047 2.4219-2.582 3.7188-2.9141 5.168-4.918 10.801-5.9258 16.652-3.2852 17.934-7.0117 38.262-17.586 54.992l0.003906-0.003906c-2.4492 3.5508-4.4141 7.4102-5.8477 11.477-0.38672 1.4414-0.55469 2.9336-0.5 4.4219 0.015625 0.38672 0.003906 0.77734-0.027344 1.1602-0.14453 0.98828-0.34375 1.9648-0.60156 2.9297-0.14453 0.58984-0.28516 1.1758-0.41016 1.7539l-0.003906-0.003906c-0.50391 3.0469-0.32422 6.1641 0.52734 9.1289l0.22266 1.0352h0.003906c0.41797 2.832 1.4844 5.5312 3.1172 7.8867 0.98047 3.0508 3.2383 7.9492 7.7109 8.418v-0.003907c1.9492 2.4961 5.3828 3.2695 8.2109 1.8555 1.3281-0.37891 2.5234-1.1211 3.4492-2.1484 0.19141-0.042969 0.38281-0.09375 0.57422-0.15234 1.5625-0.27344 2.9883-1.0586 4.0508-2.2344 1.7734-2.043 2.5508-4.7695 2.125-7.4414-0.015626-0.18359-0.03125-0.36328-0.035157-0.52734 0.011719-1.1211 0.10156-2.2383 0.26953-3.3477 0.125-1.0391 0.50391-2.0352 1.0977-2.8984 0.92188-1.5039 1.6836-3.0977 2.2695-4.7617 0.28125-0.72266 0.55078-1.4531 0.90234-2.1523l0.39062-0.77734 0.003906 0.003906c2.9219-5.0039 4.8008-10.547 5.5234-16.297 0.058594-1.082 0.046876-2.168-0.035156-3.25-0.125-0.77734-0.089844-1.5781 0.09375-2.3438 0.96484-1.9688 2.1406-3.8281 3.5039-5.543l1.0273-1.418c1.4648-2.0547 2.9648-4.0938 4.4648-6.1328 6.3008-7.9609 11.719-16.582 16.148-25.719 3.1055-6.1133 4.7617-12.855 4.8438-19.711-0.035157-0.94141-0.10156-1.8633-0.16797-2.7695v-0.003907c-0.26172-1.875-0.21094-3.7773 0.15234-5.6367 0.62109-1.9609 1.4453-3.8516 2.4492-5.6445 0.47656-0.92969 0.95312-1.8594 1.3867-2.7891l0.22266-0.48438c0.78516 2.9297 1.75 5.7188 2.6875 8.4297 0.34766 1.0078 0.69922 2.0156 1.0391 3.0312h0.003906c0.26172 1.1602 0.34375 2.3516 0.24219 3.5391-0.019531 1.0273-0.035156 2.0586 0.03125 3.0977 0.0625 0.88281 0.17188 1.7617 0.32813 2.6328 0.070312 0.35938 0.11719 0.71875 0.14844 1.082-0.30469 0.44141-0.54297 0.82031-0.77734 1.1953-1.3203 1.9219-2.3242 4.043-2.9766 6.2812-0.32422 1.2891-0.53516 2.6016-0.63281 3.9258-0.019531 0.80859-0.16406 1.6094-0.42969 2.375-2.375 5.1484-3.5469 10.766-3.4297 16.43-0.23047 3.6836-0.70312 7.3438-1.418 10.965-0.32422 1.8711-0.65234 3.75-0.92578 5.6602-0.65234 5.3867-0.71875 10.828-0.19922 16.23 0.22656 5.4414 0.007813 10.891-0.66016 16.297l-0.26562 2.7266c-1.2148 9.5938-1.5938 19.277-1.125 28.938 0.42188 5.6602 1.2227 11.188 2.0234 16.32 0.61719 3.9258 1.543 7.6406 2.4414 11.234 0.4375 1.7422 0.875 3.4922 1.2734 5.2656 1.2539 8.0742 1.0664 16.312-0.55859 24.32-0.41797 3.0352-0.84766 6.1758-1.1406 9.2891l-0.26562 2.7578v0.003907c-1.5469 10.289-1.3906 20.762 0.47266 30.996 2.5352 11.633 5.7539 23.105 9.6406 34.355 0.48047 1.3359 0.97656 2.668 1.4727 4h-0.003906c1.5312 3.8906 2.8516 7.8555 3.9531 11.887l0.25 0.98047c0.53906 1.9609 0.98047 3.9453 1.3203 5.9492 0.070312 1.0781 0.003906 2.1602-0.19531 3.2227-0.14844 1.0977-0.28906 2.2031-0.33203 3.3242-0.21094 5.5234-0.64453 7.4688-2.9609 8.875-3.2969 1.9141-5.8672 4.8711-7.293 8.4062-0.94141 3.1211-0.63281 6.4844 0.86719 9.375 1.3047 2.543 3.9219 4.1367 6.7773 4.1328l0.42578 0.03125c0.39062 0.035156 0.80078 0.09375 1.2109 0.15234v-0.003907c1.1445 0.17969 2.3008 0.28125 3.457 0.30078 0.25 0 0.50391-0.007812 0.75391-0.019531 2.6133-0.13281 5.3203-0.19922 8.2773-0.19922 1.6523 0 3.3125 0.019532 4.9727 0.054688 0.75 0.015625 1.4336 0.03125 2.1328 0.03125 4.3789 0.31641 8.7188-0.98828 12.199-3.668 3.7422-3.6133 5.2266-8.9766 3.8711-14-0.078125-0.60547-0.16016-1.2148-0.21484-1.8242-0.35156-2.6836-0.32031-5.4023 0.097656-8.0781l0.15625-0.72656c0.74219-2.6406 0.82422-5.4219 0.23047-8.1016-0.28125-1.1484-0.57422-2.2695-0.86328-3.3828-1.1367-3.7812-1.8594-7.6758-2.1602-11.617-0.24219-5.7812-0.070313-11.574 0.51562-17.332 0.31641-3.0586 0.78516-6.0742 1.2812-9.2695 0.42969-2.7734 0.86328-5.5508 1.1875-8.3398 0.60156-5.668 0.65234-11.383 0.14453-17.062-0.40625-5.6875-1.1953-11.34-2.3555-16.918-0.23047-1.0898-0.48047-2.168-0.72656-3.2461l-0.003907-0.003906c-1.1953-3.8438-1.6289-7.8867-1.2812-11.902 0.37891-2.3359 1-4.6914 1.6562-7.1875 0.69141-2.6289 1.4062-5.3477 1.875-8.207 0.51172-3.1328 0.78906-6.25 1.0547-9.2695 0.12891-1.457 0.25781-2.9102 0.41406-4.3633 0.47656 4.2773 1 8.5898 1.6328 12.852v0.007813c0.54297 3.293 1.2695 6.5508 2.1836 9.7617 0.48047 1.8125 0.96094 3.6289 1.3594 5.457v0.003906c0.56641 4.3047 0.17578 8.6836-1.1484 12.824-0.22656 0.98828-0.45703 1.9766-0.67188 2.9766-2.5859 11.117-3.3711 22.582-2.3281 33.949 0.33594 2.9922 0.72266 5.957 1.1055 8.9141l0.003906-0.003906c1.3672 8.5977 2.0195 17.293 1.9414 25.996-0.34375 4.8047-1.2617 9.5508-2.7266 14.141l-0.11328 0.41797c-0.80469 3-0.78125 6.1602 0.078125 9.1445 0.46094 2.332 0.57031 4.7188 0.32812 7.0859-0.054688 0.79297-0.17969 1.6172-0.30078 2.4492-1.3516 4.9023-0.24219 10.156 2.9727 14.098 3.7969 3.3477 8.8242 4.9531 13.859 4.4219 1.5273 0 2.8789-0.015625 4.2266-0.03125s2.707-0.03125 4.0586-0.03125c2.3672 0 4.2812 0.050781 6.0234 0.16016 0.32031 0.019531 0.63672 0.027344 0.95312 0.027344 1.1641-0.015625 2.3242-0.11328 3.4727-0.29297 0.41797-0.054687 0.83203-0.11328 1.2422-0.14844l0.30078-0.011719h-0.003907c2.4219 0.058593 4.7305-1.0273 6.2305-2.9297 2.0078-2.9609 2.6367-6.6445 1.7266-10.105-1.1797-3.3633-3.4336-6.2461-6.4141-8.1992-0.38672-0.27344-0.76172-0.52344-1.1211-0.76172-1.6016-1.0742-1.7539-1.2188-2.0312-1.9219-0.62109-1.9414-0.93359-3.9727-0.91797-6.0117-0.042969-1.1133-0.17188-2.2539-0.30859-3.3945-0.15234-1.0703-0.23828-2.1484-0.24609-3.2305 0.15234-1.7227 0.48438-3.4258 0.99609-5.082 0.16406-0.62109 0.32422-1.2383 0.47266-1.8438 1.3672-5.1367 3.0352-10.191 4.9961-15.137 2.2734-5.707 4.1602-11.559 5.6523-17.516 0.66797-2.9258 1.4336-5.8242 2.1992-8.7188 0.75781-2.8594 1.5117-5.7148 2.1797-8.5977 1.2852-5.8906 1.8789-11.906 1.7656-17.934-0.26562-10.883-1.2969-21.738-3.0859-32.477-1.0586-5.8828-1.0508-11.902 0.023438-17.781 0.42578-1.9414 0.90234-3.8516 1.3789-5.7578 0.87109-3.4922 1.7695-7.1016 2.3672-10.91 1.8047-10.273 2.5781-20.703 2.3047-31.133-0.19922-4.4492-0.72656-8.8945-1.2344-13.191l-0.003906 0.003906c-0.98047-6.4766-1.3555-13.023-1.1172-19.566 0.54297-5.5547 0.49219-11.152-0.15625-16.695-0.28125-1.9375-0.62109-3.8398-0.96094-5.7344-0.70312-3.418-1.1602-6.8828-1.3672-10.367 0.17188-5.7695-0.96875-11.504-3.3438-16.766-0.29688-0.76562-0.46094-1.5781-0.48828-2.4023-0.10938-1.1523-0.29688-2.2969-0.55859-3.4219-0.72266-2.7617-1.9336-5.3711-3.582-7.7031-0.22656-0.35156-0.35156-0.56641-0.41797-0.69531l0.050781-0.15625v-0.003906c0.27734-0.8125 0.46094-1.6562 0.55469-2.5117 0.10547-1.3164 0.11328-2.6367 0.027344-3.957-0.09375-0.99219-0.066406-1.9922 0.078125-2.9766 0.23438-0.83984 0.53125-1.6602 0.88281-2.457 0.45312-1.0703 0.85156-2.1602 1.1914-3.2695l0.64453-2.1758c0.41797-1.3945 0.83594-2.793 1.2109-4.1992 0.58984 1.4062 1.2266 2.8125 1.9141 4.2109l-0.003907-0.003906c1.4062 2.3555 2.2734 4.9961 2.543 7.7266 0 1.0938-0.10547 2.1758-0.20312 3.2578-0.26172 2.1719-0.30859 4.3633-0.14062 6.5469 0.87109 6.4727 2.9805 12.719 6.2109 18.398 4.2383 7.6523 9.0039 15 14.266 21.992 2.418 3.3711 4.9219 6.8594 7.2539 10.359 1.5859 2.3828 2.4805 3.793 2.4258 5.1055h-0.003906c-0.21484 2.8672 0.007813 5.7461 0.66406 8.543 0.91797 3.3242 2.1797 6.5469 3.7695 9.6094 0.92578 1.8438 1.75 3.7383 2.4688 5.6719 0.48047 1.3164 1.1172 2.5664 1.8906 3.7344 0.28516 0.42188 0.53906 0.86719 0.75781 1.3281 0.21484 0.78516 0.34766 1.5938 0.39062 2.4102l0.089844 0.86719c0 0.10156-0.003906 0.40234-0.007813 0.75391-0.4375 3.4102 0.49219 6.8594 2.5898 9.5898 1.0156 1.0273 2.3359 1.7031 3.7656 1.9258 0.19922 0.0625 0.40234 0.11328 0.60547 0.15625v0.003907c0.91797 1.0117 2.0977 1.75 3.4102 2.1289 2.832 1.4297 6.2773 0.65625 8.2266-1.8398 4.4805-0.46484 6.7383-5.375 7.7188-8.4297v-0.003906c1.1406-1.5977 1.957-3.3984 2.4102-5.3086l0.19141-0.62891h-0.003906c0.40234-1.25 0.64844-2.5469 0.73828-3.8594 0.027344-0.27344 0.050782-0.54687 0.089844-0.82812l-0.003906 0.003906c0.058594-0.21875 0.12891-0.43359 0.21484-0.64453 0.29297-0.80078 0.51953-1.6289 0.67187-2.4688 0.23438-1.8867 0.003907-3.8086-0.67578-5.5859-0.078125-0.25-0.15234-0.48047-0.19922-0.67969h-0.003906c-0.15625-0.91016-0.25391-1.8281-0.28906-2.75-0.054688-2.0156-0.375-4.0156-0.94531-5.9453-1.3516-3.582-3.082-7.0039-5.1641-10.211-4.1289-6.4219-7.4844-13.309-9.9922-20.52-3.0195-9.4336-5.3633-19.07-7.0156-28.84l-0.39453-2.457c-0.52344-4.3828-1.5625-8.6875-3.0859-12.832-1.9844-4.8398-4.5312-9.4336-7.5938-13.676-1.3672-2.7852-1.9766-5.8789-1.7656-8.9766-0.039062-0.99609-0.078124-1.9883-0.14453-2.9609v0.003906c-0.26172-4.5117-0.98047-8.9883-2.1484-13.352-0.30859-1.0469-0.67188-2.0742-1.0859-3.082-0.36719-0.82812-0.65625-1.6914-0.85547-2.5742-0.066407-1.2695 0-2.543 0.19922-3.8008 0.078125-0.67969 0.15234-1.3477 0.20703-1.9961 0.39844-5.0117 0.19531-10.051-0.60547-15.012-1.3789-10.109-5.4141-19.676-11.695-27.715-3.3008-3.875-7.4648-6.918-12.156-8.8828-2.3516-0.95312-4.8047-1.6289-7.3125-2.0195-1.9961-0.23828-3.9336-0.81641-5.7305-1.7109-4.0898-2.4648-7.5625-4.7148-10.621-6.8711-0.83984-0.59375-1.7266-1.1758-2.6289-1.7734-2.6055-1.4414-4.9062-3.3789-6.7656-5.7109-1.7891-2.7461-2.4883-6.0625-1.9531-9.2969l0.41406-1.1133v0.003906c0.69531-1.6758 1.2031-3.4258 1.5117-5.2148 0.046875-0.30469 0.082031-0.64062 0.11328-1 1.8516-0.96875 3.3008-2.5586 4.0977-4.4883l0.63672-1.3984v-0.003906c1.5547-3.0703 2.7031-6.3359 3.418-9.7031 1.0117-3.8477 0.42578-7.9375-1.625-11.348-0.84375-1.2227-1.9805-2.2109-3.3086-2.875 0.43359-4.8867-0.23047-9.8125-1.9414-14.41-2.1602-5.0352-5.7812-9.3086-10.395-12.266-4.6133-2.9531-10.008-4.457-15.484-4.3164z" style="fill: rgb(0, 88, 219);"/>
    <use transform="matrix(1, 0, 0, 1, 70, 644)" style="fill: rgb(0, 88, 219);" xlink:href="#t"/>
    <use transform="matrix(1, 0, 0, 1, 90.55078125, 644)" style="fill: rgb(0, 88, 219);" xlink:href="#b"/>
    <use transform="matrix(1, 0, 0, 1, 104.359375, 644)" style="fill: rgb(0, 88, 219);" xlink:href="#a"/>
    <use transform="matrix(1, 0, 0, 1, 123.34765625, 644)" style="fill: rgb(0, 88, 219);" xlink:href="#h"/>
    <use transform="matrix(1, 0, 0, 1, 142.2421875, 644)" style="fill: rgb(0, 88, 219);" xlink:href="#d"/>
    <use transform="matrix(1, 0, 0, 1, 155.62890625, 644)" style="fill: rgb(0, 88, 219);" xlink:href="#a"/>
    <use transform="matrix(1, 0, 0, 1, 174.6171875, 644)" style="fill: rgb(0, 88, 219);" xlink:href="#g"/>
    <use transform="matrix(1, 0, 0, 1, 204.41015625, 644)" style="fill: rgb(0, 88, 219);" xlink:href="#n"/>
    <use transform="matrix(1, 0, 0, 1, 224.453125, 644)" style="fill: rgb(0, 88, 219);" xlink:href="#m"/>
    <use transform="matrix(1, 0, 0, 1, 252.453125, 644)" style="fill: rgb(0, 88, 219);" xlink:href="#f"/>
    <use transform="matrix(1, 0, 0, 1, 273.79296875, 644)" style="fill: rgb(0, 88, 219);" xlink:href="#c"/>
    <use transform="matrix(1, 0, 0, 1, 293.03125, 644)" style="fill: rgb(0, 88, 219);" xlink:href="#e"/>
    <use transform="matrix(1, 0, 0, 1, 312.9609375, 644)" style="fill: rgb(0, 88, 219);" xlink:href="#g"/>
    <use transform="matrix(1, 0, 0, 1, 333.0078125, 644)" style="fill: rgb(0, 88, 219);" xlink:href="#h"/>
    <use transform="matrix(1, 0, 0, 1, 351.8984375, 644)" style="fill: rgb(0, 88, 219);" xlink:href="#l"/>
    <use transform="matrix(1, 0, 0, 1, 381.58203125, 644)" style="fill: rgb(0, 88, 219);" xlink:href="#f"/>
    <use transform="matrix(1, 0, 0, 1, 402.921875, 644)" style="fill: rgb(0, 88, 219);" xlink:href="#k"/>
    <use transform="matrix(1, 0, 0, 1, 422.859375, 644)" style="fill: rgb(0, 88, 219);" xlink:href="#b"/>
    <use transform="matrix(1, 0, 0, 1, 436.6640625, 644)" style="fill: rgb(0, 88, 219);" xlink:href="#j"/>
    <use transform="matrix(1, 0, 0, 1, 465.84375, 644)" style="fill: rgb(0, 88, 219);" xlink:href="#s"/>
    <use transform="matrix(1, 0, 0, 1, 475.4375, 644)" style="fill: rgb(0, 88, 219);" xlink:href="#i"/>
    <use transform="matrix(1, 0, 0, 1, 492.0390625, 644)" style="fill: rgb(0, 88, 219);" xlink:href="#e"/>
    <use transform="matrix(1, 0, 0, 1, 70, 672)" style="fill: rgb(0, 88, 219);" xlink:href="#r"/>
    <use transform="matrix(1, 0, 0, 1, 82.18359375, 672)" style="fill: rgb(0, 88, 219);" xlink:href="#b"/>
    <use transform="matrix(1, 0, 0, 1, 95.9921875, 672)" style="fill: rgb(0, 88, 219);" xlink:href="#c"/>
    <use transform="matrix(1, 0, 0, 1, 115.2265625, 672)" style="fill: rgb(0, 88, 219);" xlink:href="#j"/>
    <use transform="matrix(1, 0, 0, 1, 154.15234375, 672)" style="fill: rgb(0, 88, 219);" xlink:href="#d"/>
    <use transform="matrix(1, 0, 0, 1, 167.53515625, 672)" style="fill: rgb(0, 88, 219);" xlink:href="#e"/>
    <use transform="matrix(1, 0, 0, 1, 187.46875, 672)" style="fill: rgb(0, 88, 219);" xlink:href="#a"/>
    <use transform="matrix(1, 0, 0, 1, 216.20703125, 672)" style="fill: rgb(0, 88, 219);" xlink:href="#q"/>
    <use transform="matrix(1, 0, 0, 1, 239.640625, 672)" style="fill: rgb(0, 88, 219);" xlink:href="#c"/>
    <use transform="matrix(1, 0, 0, 1, 258.87890625, 672)" style="fill: rgb(0, 88, 219);" xlink:href="#k"/>
    <use transform="matrix(1, 0, 0, 1, 278.8125, 672)" style="fill: rgb(0, 88, 219);" xlink:href="#l"/>
    <use transform="matrix(1, 0, 0, 1, 308.4921875, 672)" style="fill: rgb(0, 88, 219);" xlink:href="#p"/>
    <use transform="matrix(1, 0, 0, 1, 329.015625, 672)" style="fill: rgb(0, 88, 219);" xlink:href="#b"/>
    <use transform="matrix(1, 0, 0, 1, 342.8203125, 672)" style="fill: rgb(0, 88, 219);" xlink:href="#c"/>
    <use transform="matrix(1, 0, 0, 1, 362.05859375, 672)" style="fill: rgb(0, 88, 219);" xlink:href="#o"/>
    <use transform="matrix(1, 0, 0, 1, 371.65625, 672)" style="fill: rgb(0, 88, 219);" xlink:href="#a"/>
    <use transform="matrix(1, 0, 0, 1, 390.6484375, 672)" style="fill: rgb(0, 88, 219);" xlink:href="#i"/>
    <use transform="matrix(1, 0, 0, 1, 407.2421875, 672)" style="fill: rgb(0, 88, 219);" xlink:href="#d"/>
  </g>
</svg>