<?xml version="1.0" encoding="utf-8"?>
<svg width="700pt" height="700pt" version="1.1" viewBox="0 0 700 700" xmlns="http://www.w3.org/2000/svg" xmlns:xlink="http://www.w3.org/1999/xlink">
  <g>
    <path d="m520.98 37.238-8.6875-0.78906c0.33594-0.46875 0.72266-0.91016 0.97266-1.4336 2.2461-4.6055 0.30078-9.0078 0.070312-9.4922-0.48828-1.0508-1.4766-1.7852-2.6172-1.9609l-68.293-10.781c-1.0781-0.17578-2.1641 0.16016-2.9531 0.91797l-10.457 9.9062c-0.34375 0.32031-0.61719 0.71484-0.79688 1.1406l-8.6445 19.852-16.016 29.441-35.832 14.184c-0.65625 0.25781-1.2188 0.70703-1.6016 1.2891l-14.16 20.848-99.234 2.6914c-19.941-5.1719-36.875-3.0391-50.309 6.3555-20.504 14.344-26.648 41.168-28.293 51.367l-17.773-4.5234c-1.0625-0.28125-2.1758-0.027344-3.0391 0.64453l-14 11.082c-0.8125 0.64453-1.3008 1.6094-1.3242 2.6445l-2.3281 84.574c-1.5117 40.461 22.195 62.848 30.652 69.512-4.0586 5.6406-7.3281 10.969-9.1484 15.562-4.3672 4.543-9.2383 15.043 0.32813 26.305 0.25781 0.30859 0.57422 0.56641 0.92969 0.76172 1.2109 0.69922 29.133 16.43 64.148 16.43 0.875 0 1.7578-0.019531 2.6406-0.042969 7.4219 5.3359 16.121 8.4062 25.047 8.4062 3.9883 0 8.0273-0.60156 11.992-1.8633 4.4023-1.3984 8.3867-3.5352 11.914-6.2109l25.305 5.9219c0.26562 0.0625 0.53125 0.089844 0.79688 0.089844 0.9375 0 1.8555-0.37891 2.5195-1.0703l17.422-18.066 6.707 9.8711c0.16797 1.0625 0.78906 2.0156 1.8047 2.5469l23.219 30.777 14.523 14.523 12.832 13.418c0.26562 0.27344 0.57422 0.50391 0.91016 0.6875l65.059 33.973 17.57 28.918c0.47656 0.77734 1.2383 1.3438 2.1289 1.5742l13.098 3.3672c-12.223 9.7773-13.867 19.082-13.938 19.523-0.18359 1.2031 0.25781 2.4141 1.1836 3.207 3.4805 2.9805 10.562 3.9531 18.305 3.9531 12.234 0 26.125-2.4297 30.113-3.1797 1.043-0.1875 1.9453-0.85547 2.4492-1.8008l14.59-27.418c0.48828-0.92578 0.54688-2.0234 0.14062-2.9961l-49-116.66c-0.21875-0.52344-0.55859-0.98828-1-1.3438l-39.789-32.863-15.812-26.434-8.0352-25.906c-0.078125-0.23828-0.17578-0.46875-0.30078-0.69141l-26.047-45.773 11.227-43.84c0.33594-1.2969-0.10547-2.668-1.1211-3.5352l-21.582-18.375c-0.63672-0.53906-1.4336-0.83203-2.2695-0.83203h-16.668l-1.9258-3.7188 41.887-23.598c0.22266-0.125 0.44141-0.28125 0.63672-0.45313l12.082-10.941c0.48828-0.44922 0.84766-1.0273 1.0234-1.6719l11.48-42.098 38.773-27.195 38.352-11.285 36.715 5.7344c17.688 1.9375 24.012-6.9375 24.27-7.3203 0.52344-0.76172 0.72656-1.6992 0.56641-2.6094-4.4688-24.812-41.414-32.832-43.387-33.227zm-86.641-9.043 8.6875-8.2305 64.301 10.148c0.019531 0.58203-0.0625 1.2461-0.37891 1.875-0.76172 1.5039-2.8281 2.6797-5.9023 3.4375l-18.566-1.6875c-1.0781-0.089843-2.1914 0.32812-2.9258 1.1562l-9.4922 10.605-6.9922 3.6133-14.062 3.2188c-0.76172 0.17578-1.4414 0.59375-1.9336 1.2031l-3.9258 4.8281-13.984 5.5352-9.0039-5.7812 5.6758-10.449zm-17.527 36.094 4.332 2.7852-7.4492 2.9453zm-121.58 104.43c-2.2695-4.6953-4.0547-9.3594-5.2227-13.875-0.37109-1.4062-1.8125-2.2344-3.1992-1.8906-1.3984 0.36328-2.2461 1.8008-1.8906 3.1992 1.1289 4.3555 2.8477 8.8359 4.9141 13.328l-4.4609 0.63672c-0.078126-0.35156-0.16016-0.70703-0.35547-1.0352-18.852-32.305 0.52344-48.824 1.3594-49.52 0.15234-0.125 0.23828-0.29297 0.36328-0.44141l1.4336-0.042969c-1.8633 3.4805-3.9258 8.5898-4.8164 15.246-0.1875 1.4414 0.82031 2.7578 2.2539 2.9453 0.11719 0.015625 0.23828 0.019531 0.35156 0.019531 1.3008 0 2.4297-0.96094 2.6055-2.2734 1.0781-8.0938 4.1094-13.539 5.8438-16.105l6.3555-0.17578c-5.6992 7.5586-13.762 24.367-1.1914 49.344zm-88.77-43.59c11.781-8.2305 26.922-9.9609 44.969-5.1797 0.32812 0.085938 0.64453 0.11328 0.99219 0.11719l24.922-0.67969c-5.8945 8.168-13.609 25.789 0.88281 51.766l-26.391 3.7812c-1.9102 0.28125-3.2422 2.043-2.9688 3.9609 0.25391 1.75 1.75 3.0039 3.457 3.0039 0.16797 0 0.33594-0.007812 0.50391-0.035156l57.121-8.1914c0.47656 3.3867 1.8984 8.3711 5.543 13.559-2.2461 2.7773-3.9766 5.4453-4.9648 7.125l-23.625 7.5117-11.527-8.2383c-0.55859-0.39844-1.2188-0.62109-1.8984-0.65234l-14.219-0.56641-78.281-19.902c1.3555-8.6211 6.8711-34.387 25.484-47.379zm126.9 45.191c0.80469 1.8047 2.1719 4.3828 4.2969 7.4961h-6.7773l-3.1211-5.2656c-0.36328-0.62891-0.95312-1.0352-1.6016-1.1953zm-10.105 4.9062 2.1758 3.6758c-1.7578 0.76172-3.4375 1.8633-5.0117 3.1992-2.3672-3.7383-3.2461-7.1523-3.5625-9.4219l7.3086-1.0508c-1.2383 0.75-1.6523 2.3516-0.91016 3.5977zm18.383 97.148c-0.28516-4.7891-0.99219-9.6055-2.5117-14.363-3.793-11.922-11.094-21.707-20.012-28.141-5.418-12.762-21.035-20.629-23.59-21.84l-1.5039-1.0781 12.531-3.9844c6.7148 4.8516 37.324 27.98 44.219 50.324-1.3359 6.3984-5.4258 13.578-9.1328 19.082zm-14.238 38.156-0.21094 0.15234c0.070312-0.054688 0.14062-0.11719 0.20312-0.18359zm59.996-40.348 11.129 19.566c-21.762-2.3438-33.031 13.719-37.289 21.832l-1.0234-1.7344zm11.926 35.762c2.7734-0.17578 5.7383 0.0625 8.7344 0.55469l1.4297 2.5117c-20.379-1.8672-32.629 11.977-37.969 20.047l-2.4844-4.2266c1.8984-2.8281 5.9219-8.0938 12.098-12.363 1.1914-0.82422 1.4844-2.4648 0.66406-3.6523-0.82422-1.1914-2.4727-1.4766-3.6523-0.66406-5.6055 3.8789-9.5547 8.4141-12.02 11.727l-0.64453-1.0938c0.078126-0.15234 0.24609-0.23047 0.30078-0.39844 0.39062-1.1133 9.8477-27.41 36.898-20.816 0.10547 0.019532 0.20312-0.007812 0.30859 0.007813l1.8125 3.1836c-1.9961-0.14844-3.9492-0.17578-5.8086-0.042968-1.4492 0.097656-2.5391 1.3438-2.4492 2.7852 0.082032 1.4414 1.3125 2.6016 2.7812 2.4414zm44.648 139.58-27.355-33.102c-0.51172-0.62109-1.2266-1.043-2.0156-1.2031l-15.934-3.1836-13.027-22.758-28.621-67.094 41.637 70.824c0.30078 0.51953 0.72656 0.95313 1.2539 1.2539l26.781 15.625 33.223 45.527zm-113.69-62.211-3.8867-5.7109c1.9531-2.75 6-7.7344 12.312-12.02 1.2031-0.8125 1.5195-2.4492 0.70703-3.6484-0.82031-1.2188-2.4492-1.5195-3.6484-0.70703-5.543 3.7578-9.4727 7.9531-11.984 11.102 2.9414-6.7461 14.188-27.391 39.25-22.211l1.0586 2.4766c-2.7031 0.007812-5.3398 0.15234-7.8906 0.55469-1.4336 0.21875-2.4141 1.5664-2.1914 2.9961 0.19531 1.3008 1.3164 2.2188 2.5898 2.2188 0.13281 0 0.26562-0.007812 0.40625-0.035156 2.9961-0.46094 6.1172-0.54688 9.3516-0.41406l2.2812 5.3555c-20.617-2.0898-32.98 11.91-38.355 20.043zm19.965-63.141 9.5117 22.281c-23.535-2.5625-35.973 14.82-40.871 24.102l-17.465-25.691 17.887-7.1484c0.32031-0.042969 0.64453-0.070313 0.9375-0.19531zm-33.523-1.6562c-0.88281 0.66406-1.3984 1.6992-1.3984 2.8008v6.4609l-27.684 11.059c-3.3164-8.3008-8.6172-15.398-15.328-20.656l13-4.6562c6.0625 3.4922 12.703 5.5039 19.48 5.5039 3.5547 0 7.0625-0.53906 10.43-1.6094 2.918-0.92969 5.6406-2.2617 8.1758-3.8906zm-42.254-13.629c1.2383 1.2969 2.4844 2.5742 3.8281 3.7188l-8.8203 3.1641c2.2266-2.5781 3.8672-4.9531 4.9922-6.8828zm57.492-12.891c-3.6875 9.3945-10.387 16.051-18.859 18.746-2.6875 0.85547-5.4805 1.2891-8.3164 1.2891-15.742 0-30.848-12.906-36.734-31.395-3.4727-10.906-3.2969-22.227 0.48828-31.863 3.6953-9.3945 10.387-16.043 18.859-18.746h0.007812c2.6875-0.85547 5.4805-1.2891 8.3086-1.2891 15.742 0 30.848 12.914 36.734 31.402 3.4727 10.898 3.3047 22.211-0.48828 31.855zm-106.9-24.016c1.3164-0.097657 3.2266-0.17578 5.5508-0.097657-0.67969 0.59375-3.4023 2.9883-7.4531 6.6836 0.46875-2.2891 1.1055-4.4844 1.9023-6.5859zm3.3906-7.1602c4.1641-7.2188 9.6602-12.887 14.152-16.785 3.1836 5.6016 9.2734 14.707 16.203 17.676-0.16016 2.7305-0.089844 5.4727 0.15234 8.2539-10.18-7.9961-22.957-9.2422-30.508-9.1445zm23.59-24.621 1.3281 1.2656c0.92578 0.91016 2.2812 1.2305 3.5156 0.83984 1.2383-0.39063 2.1562-1.4414 2.3867-2.7148l0.90234-5.0195 8.3086 4.418c-2.6094 3.2422-4.7891 6.9922-6.4453 11.199-1.0234 2.5977-1.7656 5.3125-2.3398 8.0781-3.9258-2.793-8.457-9.1289-11.535-14.645 1.4648-1.0352 2.4023-1.625 2.4492-1.6523 0.69922-0.40234 1.1562-1.0547 1.4297-1.7695zm43.309-20.348c2.6875 1.5039 6.6797 4.0664 10.34 7.4414-3.2617-0.92578-6.5859-1.5625-9.9688-1.5625-1.0977 0-2.1836 0.14844-3.2695 0.25391zm-150.41-33.398 11.359-8.9961 101.58 25.832c0.23047 0.0625 0.47656 0.097657 0.72656 0.10547l13.547 0.53906 17.18 12.27-5.5078 11.633-13.098 4.4258-11.508-6.125c-0.98828-0.52344-2.1641-0.55469-3.1719-0.054688-1.0078 0.48828-1.7148 1.4297-1.9102 2.5273l-0.58203 3.2188-12.277-11.586c-0.44141-0.39844-0.97266-0.6875-1.5469-0.82031l-57.168-13.609c-0.089844-0.019531-0.17578 0.007812-0.25781-0.007812l-1.8672-6.3281c-0.54688-1.8555-2.5078-2.918-4.3477-2.3672-1.8555 0.54688-2.9102 2.4922-2.3672 4.3477l13.461 45.641c2.1133 6.1797 6.3125 24.066 0.44922 32.445-1.1133 1.582-0.72656 3.7656 0.85547 4.8711 0.61719 0.42578 1.3164 0.62891 2.0078 0.62891 1.0977 0 2.1914-0.51953 2.8633-1.4922 9.0859-12.973 0.80469-37.676 0.48828-38.586l-2.2617-7.6641c9.7031 0.97266 12.398 7.3633 12.949 9.1133-0.45312 26.426-7.2109 45.367-20.074 56.301-12.082 10.27-26.348 10.387-31.113 10.102-6.2383-10.578-11.383-24.961-10.688-43.422zm13.07 133.43c7.6172-0.29297 19.867-2.4023 30.883-11.727 14.621-12.367 22.238-33.266 22.645-62.133 0.007813-0.28516-0.027343-0.58203-0.097656-0.85938-1.2539-5.2656-7.5742-14.52-21.926-14.84l-4.9648-16.828 52.66 12.535 10.234 9.7852c-0.14062 0.0625-0.28516 0.070313-0.42578 0.15234-1.2891 0.76953-31.051 18.914-31.688 49.812-13.152 12.32-31.801 30.738-44.809 47.312-2.8164-2.2773-7.625-6.6602-12.512-13.211zm4.5273 38.918c0.40625-0.37891 0.71484-0.83984 0.90234-1.3594 1.8398-4.9766 5.6758-11.039 10.617-17.562 0.007812-0.015625 0.019531-0.015625 0.027344-0.027344 0.007812-0.007812 0.007812-0.015624 0.007812-0.019531 20.578-27.125 60.773-62.379 61.277-62.812 1.3945-1.2188 1.5547-3.2695 0.45312-4.7266 8.6094 1.0938 19.508 4.6562 25.781 15.062 1.918 5.8086 4.6953 11.074 8.0508 15.73-1.5625 3.2148-8.0625 14.805-22.801 19.637-0.41406 0.13281-0.79688 0.35156-1.1328 0.62109-8.3164 6.8672-32.488 27.559-39.312 41.117-0.40625 0.48437-0.69922 1.043-0.79688 1.6797-0.72656 1.7695-1.1406 3.4102-1.0703 4.8242 0.078125 1.75 1.4492 3.0859 3.1445 3.2695 2.2461 6.2383 5.5664 11.746 9.668 16.371-28.148-1.3438-51.191-13.035-54.93-15.043-7.3633-9.1719-0.67578-16.02 0.11328-16.762zm97.582 38.797c-18.914 6.0117-39.781-6.2148-46.48-27.273-0.35156-1.1055-0.60938-2.2109-0.875-3.3125 4.5156-8.2812 21.09-24.73 36.918-37.863 4.4297-1.5195 8.1211-3.5859 11.324-5.8164 9.9688 4.8438 17.684 13.875 21.266 25.137 6.7148 21.062-3.2344 43.094-22.152 49.129zm38.988-0.89062-18.816-4.4023c6.8164-7.8477 10.758-18.285 11.012-29.406h1.2656v5.0039c0 1.2383 0.65625 2.3867 1.7227 3.0156l18.922 11.164zm0.46875-30.809v-6.5117c0-1.9336-1.5664-3.5-3.5-3.5h-5.0625c-0.25391-2.1289-0.67969-4.2578-1.2109-6.3906l4.9648-1.9805 17.648 25.949zm71.883 71.855-14.258-14.211-22.609-30.016c3.3828-6.1953 14.973-23.332 37.316-18.598l7.4492 17.457 14 24.5c0.50391 0.88281 1.3594 1.4961 2.3594 1.6953l16.273 3.2539 26.473 32.031c-0.10547 0.43359-0.14062 0.89062-0.0625 1.3594 1.625 10.758-9.3164 15.77-13.109 17.172l-41.344-21.59zm79.277 48.496c-0.33594-0.54688-0.80469-0.99219-1.3711-1.2891l-16.297-8.5117c6.1602-3.5625 12.27-9.8125 12.355-18.934l21.938 8.0938 9.8906 13.551 10.48 33.102-3.3516 6.6992-16.305-4.1914zm-31.668-144.45 16.34 27.312c0.20312 0.34375 0.46094 0.65234 0.76953 0.90234l39.586 32.695 28.691 68.305c-10.199-5.3047-15.988-2.1719-16.773-1.6797-1.5898 0.99219-2.043 3.0234-1.1211 4.6484 0.91797 1.6328 3.0312 2.1992 4.7031 1.3633 0.0625-0.019531 6.1172-2.8086 18.258 7.7227l14.266 33.973-13.012 24.457c-13.293 2.3516-31.984 4.0234-39.004 1.5195 1.457-3.4141 5.5312-10.297 16.316-16.988 0.054687-0.035156 0.078125-0.10547 0.13281-0.14844 0.17578-0.125 0.26562-0.30859 0.42188-0.46094 0.25781-0.25781 0.57422-0.47656 0.73438-0.80469l5.25-10.5c0.40625-0.8125 0.47656-1.7578 0.20312-2.625l-11.082-35c-0.11719-0.35547-0.28516-0.69922-0.50391-1.0078l-51.348-70.32c-0.28516-0.39062-0.65234-0.72266-1.0625-0.96094l-26.621-15.539-28.707-48.816c2.9258-5.5703 14.336-23.605 36.848-19.32l6.3711 20.512c0.082032 0.26953 0.20313 0.52344 0.34375 0.76172zm-24.262-119.07-11.559 45.113-33.504 48.887-27.426 12.199v-1.8672l10.852-8.1055c0.98047-0.72656 1.5039-1.918 1.3867-3.1289l-0.79688-8.4414c1.8398-2.668 3.4453-5.6016 4.7188-8.8281 1.2109-3.0781 2.0312-6.3203 2.6055-9.6328 2.5742-3.1367 13.434-16.898 16.402-29.352l22.883-10.414c1.7578-0.79688 2.5352-2.8789 1.7344-4.6328-0.79688-1.7578-2.8711-2.5352-4.6328-1.7344l-21.031 9.5664c-7.8242-20.379-30.891-39.773-41.672-48.008l11.73-3.7305 1.7852 0.48438c-0.41406 0.57422-0.69922 1.2383-0.69922 1.9961 0 1.9336 1.5664 3.5 3.5 3.5h44.801zm-45.188-23.129-22.309-6.0078c-0.65234-0.16016-1.3281-0.15234-1.9688 0.042969l-3.7109 1.1758c2.8438-3.332 5.9375-6.0078 8.2656-6.0078h17.113l5.5781 10.793zm58.086-43.211-11.023 9.9883-41.336 23.281-3.0781-5.957c-0.60156-1.1602-1.8047-1.8984-3.1094-1.8984h-2.7656c-2.75-3.4023-4.5781-6.3008-5.6914-8.3984l17.953-1.5273c0.89062-0.078125 1.707-0.48438 2.3047-1.1406l20.277-22.457 35.461-24.879zm132.74-78.953-37.34-5.832c-0.50391-0.070313-1.0273-0.035157-1.5273 0.10547l-39.66 11.668c-0.37109 0.10547-0.71484 0.27344-1.0234 0.48828l-2.7734 1.9453-8.5898-10.809c-1.2031-1.5117-3.4102-1.75-4.9141-0.56641-1.5195 1.2031-1.7695 3.4023-0.56641 4.9219l8.3242 10.48-75.48 52.949c-0.21094 0.14844-0.41406 0.32031-0.58984 0.51953l-19.629 21.727-19.383 1.6523-25.121 3.5977c-0.015625 0.007813-0.035156 0-0.050781 0.007813l-5.2227 0.75c-16.836-30.926 1.6328-46.789 2.4414-47.469 0.37891-0.30859 0.67188-0.67969 0.88281-1.0781l43.672-1.1914c1.1289-0.027344 2.1719-0.60156 2.793-1.5312l14.566-21.434 75.383-29.855c0.050781-0.019531 0.089844-0.035156 0.14062-0.054687l7.7852-3.0859 19.25-9.918c0.38672-0.19531 0.72656-0.45312 1.0156-0.77734l8.7422-9.7734 17.137 1.5469c0.019531 0.007813 0.042968 0 0.070312 0.007813l19.164 1.7305c0.32813 0.070313 32.023 6.9297 37.148 25.844-1.9297 1.6133-6.8789 4.5195-16.645 3.4336z" style="fill: rgb(0, 62, 232);"/>
    <use transform="matrix(1, 0, 0, 1, 70, 665)" style="fill: rgb(0, 62, 232);" xlink:href="#s"/>
    <use transform="matrix(1, 0, 0, 1, 95.6875, 665)" style="fill: rgb(0, 62, 232);" xlink:href="#e"/>
    <use transform="matrix(1, 0, 0, 1, 112.9453125, 665)" style="fill: rgb(0, 62, 232);" xlink:href="#c"/>
    <use transform="matrix(1, 0, 0, 1, 136.68359375, 665)" style="fill: rgb(0, 62, 232);" xlink:href="#a"/>
    <use transform="matrix(1, 0, 0, 1, 160.3046875, 665)" style="fill: rgb(0, 62, 232);" xlink:href="#b"/>
    <use transform="matrix(1, 0, 0, 1, 177.03515625, 665)" style="fill: rgb(0, 62, 232);" xlink:href="#c"/>
    <use transform="matrix(1, 0, 0, 1, 200.7734375, 665)" style="fill: rgb(0, 62, 232);" xlink:href="#l"/>
    <use transform="matrix(1, 0, 0, 1, 238.01171875, 665)" style="fill: rgb(0, 62, 232);" xlink:href="#k"/>
    <use transform="matrix(1, 0, 0, 1, 263.0625, 665)" style="fill: rgb(0, 62, 232);" xlink:href="#j"/>
    <use transform="matrix(1, 0, 0, 1, 298.0625, 665)" style="fill: rgb(0, 62, 232);" xlink:href="#g"/>
    <use transform="matrix(1, 0, 0, 1, 310.0625, 665)" style="fill: rgb(0, 62, 232);" xlink:href="#d"/>
    <use transform="matrix(1, 0, 0, 1, 334.10546875, 665)" style="fill: rgb(0, 62, 232);" xlink:href="#f"/>
    <use transform="matrix(1, 0, 0, 1, 359.0234375, 665)" style="fill: rgb(0, 62, 232);" xlink:href="#a"/>
    <use transform="matrix(1, 0, 0, 1, 382.640625, 665)" style="fill: rgb(0, 62, 232);" xlink:href="#b"/>
    <use transform="matrix(1, 0, 0, 1, 399.37109375, 665)" style="fill: rgb(0, 62, 232);" xlink:href="#a"/>
    <use transform="matrix(1, 0, 0, 1, 435.17578125, 665)" style="fill: rgb(0, 62, 232);" xlink:href="#i"/>
    <use transform="matrix(1, 0, 0, 1, 460.09375, 665)" style="fill: rgb(0, 62, 232);" xlink:href="#a"/>
    <use transform="matrix(1, 0, 0, 1, 483.7109375, 665)" style="fill: rgb(0, 62, 232);" xlink:href="#f"/>
    <use transform="matrix(1, 0, 0, 1, 508.62890625, 665)" style="fill: rgb(0, 62, 232);" xlink:href="#h"/>
    <use transform="matrix(1, 0, 0, 1, 533.6796875, 665)" style="fill: rgb(0, 62, 232);" xlink:href="#h"/>
    <use transform="matrix(1, 0, 0, 1, 558.734375, 665)" style="fill: rgb(0, 62, 232);" xlink:href="#a"/>
    <use transform="matrix(1, 0, 0, 1, 70, 700)" style="fill: rgb(0, 62, 232);" xlink:href="#r"/>
    <use transform="matrix(1, 0, 0, 1, 85.2265625, 700)" style="fill: rgb(0, 62, 232);" xlink:href="#e"/>
    <use transform="matrix(1, 0, 0, 1, 102.48828125, 700)" style="fill: rgb(0, 62, 232);" xlink:href="#d"/>
    <use transform="matrix(1, 0, 0, 1, 126.53125, 700)" style="fill: rgb(0, 62, 232);" xlink:href="#q"/>
    <use transform="matrix(1, 0, 0, 1, 175.1875, 700)" style="fill: rgb(0, 62, 232);" xlink:href="#b"/>
    <use transform="matrix(1, 0, 0, 1, 191.91796875, 700)" style="fill: rgb(0, 62, 232);" xlink:href="#i"/>
    <use transform="matrix(1, 0, 0, 1, 216.8359375, 700)" style="fill: rgb(0, 62, 232);" xlink:href="#c"/>
    <use transform="matrix(1, 0, 0, 1, 252.7578125, 700)" style="fill: rgb(0, 62, 232);" xlink:href="#p"/>
    <use transform="matrix(1, 0, 0, 1, 282.05078125, 700)" style="fill: rgb(0, 62, 232);" xlink:href="#d"/>
    <use transform="matrix(1, 0, 0, 1, 306.09765625, 700)" style="fill: rgb(0, 62, 232);" xlink:href="#o"/>
    <use transform="matrix(1, 0, 0, 1, 331.01171875, 700)" style="fill: rgb(0, 62, 232);" xlink:href="#f"/>
    <use transform="matrix(1, 0, 0, 1, 368.1171875, 700)" style="fill: rgb(0, 62, 232);" xlink:href="#n"/>
    <use transform="matrix(1, 0, 0, 1, 393.765625, 700)" style="fill: rgb(0, 62, 232);" xlink:href="#e"/>
    <use transform="matrix(1, 0, 0, 1, 411.02734375, 700)" style="fill: rgb(0, 62, 232);" xlink:href="#d"/>
    <use transform="matrix(1, 0, 0, 1, 435.07421875, 700)" style="fill: rgb(0, 62, 232);" xlink:href="#g"/>
    <use transform="matrix(1, 0, 0, 1, 447.0703125, 700)" style="fill: rgb(0, 62, 232);" xlink:href="#c"/>
    <use transform="matrix(1, 0, 0, 1, 470.80859375, 700)" style="fill: rgb(0, 62, 232);" xlink:href="#m"/>
    <use transform="matrix(1, 0, 0, 1, 491.5546875, 700)" style="fill: rgb(0, 62, 232);" xlink:href="#b"/>
  </g>
</svg>