<?xml version="1.0" encoding="utf-8"?>
<svg width="700pt" height="700pt" version="1.1" viewBox="0 0 700 700" xmlns="http://www.w3.org/2000/svg" xmlns:xlink="http://www.w3.org/1999/xlink">
  <g>
    <path d="m600.36 451.46-32.074-50.043c-0.21875-0.34375-0.49609-0.65234-0.82031-0.89453l-11.066-8.4648-12.832-16.617 5.4609-4.9961c0.91016-0.83984 1.3164-2.0938 1.0586-3.3047l-17.598-83.516-2.8281-24.695-5.0625-21.117c8.0273-1.2109 14.422-2.6172 14.988-2.7422 0.95312-0.21094 1.7695-0.8125 2.2617-1.6445 15.883-27.07-10.383-63.188-15.527-69.824-0.14844-23.289-21.742-35.645-26.215-37.953-7.8203-9.6055-17.844-11.285-23.387-11.426 0-1.1484 0-2.2969-0.078125-3.4648-1.6328-25.43-19.887-45.18-41.266-43.793-8.0977 0.52344-15.406 4.082-21.258 9.6875-2.6758-1.4219-5.6406-1.5742-7.0352-1.3164-0.22266 0-0.44141-0.007813-0.66406-0.007813-15.625 0-24.27 12.047-27.25 19.781l-18.121 6.3203-25.605-5.7383c-7.5898-9.8711-17.312-12.605-24.668-12.648 3.5625-7.5898 5.3633-16.527 4.7461-25.969-1.6367-25.426-20.035-45.148-41.273-43.793-10.359 0.66406-19.738 6.2031-26.41 15.582-6.5117 9.1562-9.6602 20.93-8.875 33.152 0.25391 3.8711 0.92578 7.582 1.8984 11.129l-17.359 4.9062c-29.566 3.1836-37.75 27.516-39.277 33.305l-15.598 14.105c-32.816 14.559-21.141 44.961-21.02 45.27 0.39063 0.96484 1.1836 1.7148 2.1758 2.0352 3.7305 1.2109 7.3789 1.6992 10.828 1.6992 12.965 0 23.148-6.8828 25.488-8.5977l15.238-4.7969c2.8711-1.3438 5.6562-1.6992 8.2891-1.5039l-4.0039 22.23-9.9336 20.789-13.117 8.5898c-0.50391 0.33594-0.91797 0.78906-1.1953 1.3281l-46.594 90.789c-0.88281 1.707-0.21875 3.8086 1.4844 4.7031l7.0781 3.7031-8.5977 17.598c-0.28516 0.58984-0.40625 1.2461-0.33594 1.8984l1.2266 11.859-5.9727 4.1094c-0.58203 0.39844-1.0234 0.96484-1.2812 1.6172l-33.074 84.852-15.293 34.055c-0.55469 0.57422-0.89062 1.3008-0.95312 2.1211l-3.1641 7.0352c-3.8516 5.7695-4.9844 11.223-3.375 16.184 2.5195 7.7891 10.953 10.996 11.32 11.137 0.23828 0.089843 0.49609 0.14844 0.75 0.1875 0.92969 0.125 1.8359 0.17578 2.7109 0.17578 15.07 0 21.859-17.48 22.16-18.262 0.27344-0.72266 0.30078-1.5039 0.085937-2.2383-0.60938-2.0312 1.0508-6.25 2.5547-8.918 3.6953-2.5625 5.8086-8.9023 6.5781-11.684l5.0742-17.695 20.504-42.426 28.258-47.004 18.508-27.973 37.73 4.5352c1.3945 0.22266 2.7305-0.49609 3.4297-1.6953l7.6875-13.027 15.098 32.031c0.59375 1.2656 1.6953 2.0664 3.2812 2.0078l15.805-0.51172 35.406 29.988 25.34 40.922 9.7148 14.902-10.613 18.172-19.895 20.621c-0.19531 0.14062-0.34375 0.35156-0.51172 0.53125l-12.672 13.133c-0.72266 0.28125-1.3711 0.75-1.7773 1.4688-0.10547 0.18359-0.11719 0.37891-0.18359 0.55859l-2.6094 2.7109c-12.234 9.4141-17.078 15.996-15.723 21.344 1.2969 5.0469 7.125 5.9648 9.7227 6.3711 9.0156 1.9375 22.316-1.9023 22.883-2.0781 0.48438-0.14844 0.9375-0.39062 1.3164-0.72266 11.977-10.465 40.031-11.348 40.32-11.355 1.6875-0.050781 3.1016-1.2969 3.3594-2.9609l4.7656-30.641 1.8398-2.4844 3.2695 13.379c2.2539 7.6914 6.4102 12.754 12.34 15.059 2.4727 0.96094 5.0312 1.3359 7.5391 1.3359 9.1133 0 17.508-4.9922 17.953-5.2656 0.27344-0.16016 0.51953-0.37109 0.73438-0.60156 8.6016-9.1719-4.9336-32.34-7.6367-36.707l-10.367-19.355 20.18-27.215c0.28125-0.37109 0.47656-0.78906 0.58984-1.2461l5.1719-20.859 10.633-10.723 1.0508 0.45312 25.383 11.668c1.1484 0.53906 2.5195 0.39062 3.5547-0.37109l11.152-8.3086 10.121 16.102c0.69141 1.0938 1.9883 1.7578 3.1992 1.6328l32.348-2.2344 11.152 27.062c0.14062 0.33594 0.32812 0.65234 0.56641 0.92969l16.57 19.445 35.566 29.52c8.8906 7.6641 13.551 29.414 14.727 37.977-3.5898 14.953-2.6523 24.668 2.8555 29.707 2.8086 2.5703 6.1602 3.2422 8.8828 3.2422 2.793 0 4.9336-0.71484 5.1094-0.76953 8.8984-3.1094 15.027-8.6523 18.25-16.477 7.6016-18.488-4.1797-43.027-4.8281-44.352zm-80.383-202.94c-0.042968 0.015625-0.085937 0-0.125 0.015625l-50.254 15.133-27.734-7.6094v-23.051l5.293 0.53906 25.586 1.1602c0.11328 0.015625 11.164 1.1914 23.121 4.0391 2.4844 0.58984 5.5781 0.83203 8.9609 0.83203 4.0312 0 8.4688-0.35156 12.797-0.84766zm-152.97 150.44-17.465-36.969c-0.26562-0.56641-0.6875-1.0508-1.2031-1.3984l-15.848-10.719-7.7344-10.316-4.3047-33.672-26.773-98.98v-17.121l20.258-51.172 42.184 4.7656c0.51172 0.054688 0.98828 0.007813 1.4492-0.14062l25.969-8.1914-16.988 29.758-15.672 41.152-2.8438 3.6758c-0.007812 0.007812-0.015625 0.019531-0.019531 0.027343l-1.8359 2.3711c-0.32812 0.42188-0.55469 0.91016-0.65625 1.4297l-3.0234 14.559c-0.35156 0.27344-0.77734 0.60937-1.2539 1-0.050782 0.050781-0.10547 0.085937-0.15234 0.13281-7.0195 5.8438-25.137 24.137-16.281 51.422 0.20312 0.46875 5.2227 11.516 16.352 14.355 1.7227 0.44141 3.4805 0.65625 5.2695 0.65625 6.3086 0 13.039-2.7148 20.09-8.1055 0.86719-0.66406 1.3711-1.6953 1.3711-2.7773v-8.1133c5.4531-6.6836 12.172-20.406 4.4453-32.012l4.8008-20.273 19.992-34.363 13.914-17.109 7.168 17.41c0.30859 0.75 0.86719 1.2812 1.5195 1.6523-6.1953 12.117-2.4766 28.352 1.4688 37.227 0.51172 1.1484 1.5977 1.9336 2.8438 2.0586l10.816 1.1055v25.633l-7.2305 14.895-36.086 84.961-13.48 22.238zm-142.23-198.46c-1.6719-0.92969-3.8164-0.31641-4.7539 1.3867l-5.0898 9.2734c-3.7461-2.7773-7.6289-5.7031-11.465-8.6367l6.9844-14.617 34.637 21.453c0.55859 0.34375 1.1953 0.52344 1.8477 0.52344 0.11328 0 0.21875-0.007813 0.32812-0.015625l11.215-1.0586v16.742c-8.1914-0.1875-18.93-0.34375-22.723 0.019531-2.0312-0.94531-7.9023-4.9961-15.121-10.234l5.5352-10.086c0.92188-1.6914 0.30469-3.8203-1.3945-4.75zm40.699 7.6445 21.188-2.0039v1.2266c0 0.30859 0.042969 0.61719 0.125 0.91016l3.8281 14.148-25.145 2.8008zm229.61-77.574c0.34375 0.43359 0.77734 0.78516 1.2734 1.0234 0.23828 0.11328 23.555 11.43 22.953 33.109-0.019532 0.83984 0.25781 1.6602 0.78516 2.3086 0.30078 0.37109 29.395 36.496 16.438 61.543-3.6953 0.77734-9.3516 1.8125-15.344 2.6445-0.57422-0.16797-1.168-0.25391-1.793-0.10547-0.37891 0.089844-0.69922 0.27344-1.0156 0.46875-7.9805 0.99219-16.137 1.4922-20.887 0.35547-12.418-2.9609-23.547-4.1367-24.227-4.207l-25.594-1.1602-20.789-2.1367c-2.3438-6.3789-8.7422-27.566 5.7539-36.531l10.465 2.0938c0.90234 0.17578 1.8555-0.007813 2.625-0.51953l5.7734-3.8516c3.457 1 12.637 4.6836 14.523 15.504-1.0352 3.5156-4.332 15.555-2.7852 22.094 0.37891 1.6094 1.8203 2.6953 3.4023 2.6953 0.26562 0 0.53125-0.027344 0.80469-0.089844 1.8828-0.44141 3.0469-2.332 2.5977-4.2148-0.8125-3.4297 0.65234-10.953 2.1133-16.43l17.82 2.7422c1.3281 4.1289 2.8555 11.859-0.60156 15.66-1.3008 1.4297-1.1953 3.6484 0.23047 4.9414 1.4492 1.3086 3.6484 1.2031 4.9492-0.23047 4.0391-4.4375 4.3203-10.652 3.6133-15.777 1.2734-2.043 4.9844-7.1758 10.254-7.1758 1.3086 0 2.4922-0.72656 3.1016-1.8828 0.60156-1.1562 0.51172-2.5469-0.23047-3.6172l-13.883-19.977c-0.14844-0.21875-0.32031-0.42188-0.51953-0.59375-5.0312-4.5781-18.488-19.586-14.379-28.23 0.83203-1.75 0.089843-3.8359-1.6523-4.668s-3.8438-0.089843-4.6602 1.6602c-6.832 14.352 12.25 32.957 15.688 36.141l10.652 15.344c-2.6328 1.0859-4.8164 2.7773-6.5312 4.5078-0.097656-0.24609-0.21094-0.54688-0.23047-0.59375-0.46875-1.1211-1.4922-1.918-2.6953-2.1055l-20.488-3.1484c-3.1641-13.125-15-18.656-21.152-19.754-0.89453-0.16016-1.8047 0.027344-2.5547 0.53125l-5.8516 3.8984-10.34-2.0664c-0.78516-0.15234-1.625-0.035156-2.3438 0.35156-2.5195 1.3633-4.6133 2.9805-6.3633 4.7812l-8.7227-21.188c-0.46094-1.1406-1.5039-1.9453-2.7227-2.1289-1.2031-0.16797-2.4492 0.29297-3.2266 1.2539l-17.941 22.121-20.566 35.258c-0.17578 0.29297-0.30859 0.62109-0.38672 0.96094l-5.2852 22.328c-0.24609 1.0352-0.007813 2.1289 0.65234 2.9609 7.2188 9.2188-0.085937 20.418-2.9688 24.18-5.0117-0.36328-8.4844-1.6367-9.6953-3.7383-1.7305-2.9961 0.6875-7.5938 0.69922-7.6211 0.20312-0.36328 0.34375-0.75781 0.40625-1.168 1.3867-8.8984-2.7656-13.047-3.2422-13.496-1.3867-1.2812-3.4727-1.1914-4.8164 0.14063-1.3281 1.3281-1.3164 3.5273-0.042969 4.9062 0.078125 0.085937 1.8555 2.0664 1.2539 6.8516-0.96484 2.0234-3.4727 8.3516-0.35547 13.832 2.2969 4.0312 7.0352 6.3477 13.848 7.0977v4.4805c-6.6797 4.7812-12.734 6.5664-17.949 5.2227-7.7148-1.9336-11.578-10.086-11.605-10.086-7.4688-23.043 7.8047-38.332 13.902-43.324 1.9375-0.60938 10.145-2.75 14.211 3.2891 0.67969 1.0078 1.7852 1.5469 2.9062 1.5469 0.67969 0 1.3516-0.1875 1.9531-0.59375 1.6016-1.0781 2.0312-3.2539 0.95312-4.8594-3.9414-5.8594-10.094-7.3867-15.395-7.2109l2.332-11.242 0.88281-1.1484c2.2188-1.0977 10.648-4.8359 14.152-0.54688 1.2266 1.4961 3.4375 1.7227 4.9297 0.49609 1.4961-1.2188 1.7148-3.4219 0.49609-4.9219-3.6484-4.4648-9.043-5.0977-14.086-4.2266l14.258-37.539 18.996-33.195 7.043-1.3594c2.7031 3.0742 5.1602 4.543 5.3906 4.668 0.51953 0.28125 1.0859 0.42578 1.6641 0.42578 0.22266 0 0.44922-0.035157 0.66406-0.078126 7.1055 12.832 19.172 21.293 32.656 21.293 0.69141 0 1.3867-0.019531 2.0859-0.070312 18.152-1.1758 32.359-17.52 34.949-38.289 4.2227 0.082032 12.559 1.3242 18.816 9.3867zm-59.254-56.629c0.54688-0.035157 1.0938-0.054688 1.6328-0.054688 16.703 0 30.844 16.395 32.191 37.316 1.3984 21.656-11.5 40.18-28.75 41.293-17.562 1.1055-32.445-15.664-33.832-37.262-1.4062-21.652 11.5-40.18 28.758-41.293zm-182.28-41.043c5.4258-7.6289 12.941-12.117 21.152-12.648 0.54688-0.035156 1.0938-0.054687 1.6328-0.054687 16.711 0 30.848 16.387 32.199 37.309 1.3984 21.656-11.508 40.188-28.758 41.301-17.562 1.0859-32.43-15.66-33.824-37.262-0.68359-10.617 2.0117-20.797 7.5977-28.645zm-99.961 133.67c-1.3984-4.7305-4.1289-19.055 9.2188-29.555-0.015626 0.24609-0.078126 0.48828-0.035157 0.74219 0.28516 1.918 2.1406 3.2344 3.9844 2.9336l9.4648-1.4336c-2.7656 9.3398 0.96094 17.977 3.5 22.422-4.6328 2.8203-14.891 7.7773-26.133 4.8906zm72.473 1.8008c0.67969 0.76172 1.6367 1.1914 2.6328 1.1914 0.35156 0 0.69922-0.050781 1.0352-0.16016 19.824-6.2031 20.68-33.328 20.707-34.48 0.015625-0.57422-0.11719-1.1406-0.37109-1.6445l-9.1289-18.258c-0.20312-0.40625-0.47656-0.76172-0.82031-1.0625-13.684-12.047-47.879 11.906-51.73 14.68-1.5742 1.1289-1.9258 3.3164-0.79687 4.8867 1.1406 1.5664 3.332 1.918 4.8867 0.79688 13.453-9.6758 35.195-20.613 42.547-15.477l8.3633 16.742c-0.26562 3.9609-2.1016 21.086-13.816 26.398-4.1289-3.9258-15.133-12.438-27.797-8.4336-2.6445-7.1758-0.070312-11.164 0.11719-11.43 1.1328-1.5312 0.82422-3.6953-0.69141-4.8594-1.5312-1.1758-3.7227-0.89062-4.9062 0.65234-0.22266 0.30078-5.0273 6.9219-1.1406 17.785l-9.1914 2.8711c-2.3242-3.9844-6.4609-13.266-0.94531-21.84 0.73438-1.1602 0.73438-2.6406-0.007813-3.793-0.75-1.1562-2.0703-1.7852-3.4648-1.5547l-13.152 1.9961c1.1211-0.59375 2.2695-1.1836 3.543-1.7305 0.35547-0.14844 0.67969-0.35547 0.96484-0.61719l16.809-15.211c0.56641-0.51172 0.95312-1.1953 1.0859-1.9531 0.050782-0.25781 5.1328-25.816 34.012-28.973l18.312-5.1328c6.5508 15.496 19.902 26.102 35.016 26.102 0.69141 0 1.3789-0.019532 2.0781-0.0625 10.586-0.6875 19.84-6.5234 26.23-15.395 3.543-0.71484 15.238-1.9531 24.094 10.438 0.50391 0.69922 1.2461 1.1914 2.0859 1.3789l25.887 5.8047c-1.4219 4.7461-1.875 12.027 2.7109 21.594 0.60156 1.2539 1.8633 1.9883 3.1562 1.9883 0.51172 0 1.0234-0.11328 1.5117-0.34375 1.7422-0.83203 2.4766-2.9258 1.6445-4.668-5.3672-11.18-2.2109-17.746-0.96484-19.684l16.484-5.7461c1.043-0.36328 1.8633-1.2188 2.1914-2.2812 0.21094-0.6875 5.3203-16.59 21.785-16.59h0.47656c0.32031-0.050782 0.96094-0.0625 1.6445 0.015624-6.3789 8.8203-9.918 20.648-9.0938 33.391 0.20312 3.1367 0.66406 6.1875 1.3516 9.1211-1.7852-3.3242-3.2148-8.0078-3.0469-14.387 0.050781-1.9336-1.4766-3.543-3.4102-3.5898-1.8984 0.17578-3.5352 1.4844-3.5898 3.4102-0.18359 7.1055 1.3242 12.523 3.3398 16.676l-5.0039 0.96484c-1.3516-0.41406-4.7305-1.6992-6.6641-4.6953-1.5312-2.3789-1.8984-5.4805-1.0781-9.2188 0.42188-1.8906-0.77734-3.7539-2.6758-4.1641-1.8555-0.40625-3.7539 0.78516-4.1641 2.668-1.2461 5.6719-0.53906 10.578 2.0938 14.594 0.50391 0.77734 1.0625 1.4766 1.6523 2.1133l-22.715 7.168-44.121-4.9844c-1.582-0.16797-3.0664 0.72266-3.6484 2.1914l-21.484 54.277c-0.16016 0.41406-0.24609 0.84766-0.24609 1.2891v10.004l-38.891 3.668-34.93-21.637 3.5703-19.816c5.5859 2.4922 9.3867 6.707 9.668 7.0156zm-108.82 274.85-5.293 18.285c-0.96094 3.4297-2.8086 7.2383-3.7812 7.8047-0.65625 0.28516-1.2109 0.75781-1.5898 1.3633-0.875 1.3945-4.8867 8.2109-4.0469 13.984-1.4336 3.1719-7.0273 13.762-16.582 12.789-1.2461-0.55469-5.5352-2.7305-6.7812-6.6211-0.90234-2.8203-0.042968-6.2227 2.8281-10.617l3.0469-6.7695c1.9453 0.14844 5.1719 0.9375 8.5625 4.1523 0.67969 0.64453 1.5469 0.96094 2.4062 0.96094 0.92969 0 1.8555-0.37109 2.5391-1.0938 1.3242-1.3984 1.2656-3.6172-0.14062-4.9492-3.7031-3.5078-7.4141-4.9961-10.414-5.6289l3.1133-6.9141c1.7852 0.007813 5.4102 0.53125 9.2617 4.1719 0.67969 0.64453 1.5469 0.96094 2.4062 0.96094 0.92969 0 1.8555-0.37109 2.5391-1.0938 1.3242-1.3984 1.2656-3.6172-0.14062-4.9492-3.9688-3.7578-7.9609-5.2422-11.055-5.7891l4.1914-9.3164c1.9023 0.089844 5.2656 0.78906 8.8203 4.1562 0.67969 0.64453 1.5469 0.96094 2.4062 0.96094 0.92969 0 1.8555-0.37109 2.5391-1.0938 1.3242-1.3984 1.2656-3.6172-0.14062-4.9492-3.8008-3.5977-7.6172-5.0898-10.652-5.6836l0.44922-0.99219 13.301-34.125c3.6523 3.0234 9.8281 6.5586 18.5 7.1406zm197.16-66.551-30.172-25.559 15.715-0.83984c1.9336-0.10547 3.4102-1.75 3.3125-3.6758-0.097656-1.9258-1.7852-3.5273-3.6758-3.3125l-25.844 1.3789-13.418 0.43359-16.941-35.938c-0.015625-0.019531-0.035156-0.035156-0.050781-0.054687-0.015625-0.035156-0.015625-0.070313-0.035157-0.10547l-20.777-38.648c-0.91016-1.707-3.0469-2.3438-4.7383-1.4297-1.707 0.91797-2.3438 3.0391-1.4297 4.7383l9.9453 18.5-9.3398 15.961c-0.73438 1.2539-0.31641 2.8555 0.9375 3.5898 0.42188 0.24609 0.875 0.36328 1.3242 0.36328 0.90234 0 1.7773-0.46094 2.2617-1.3008l7.7227-13.203 6.9844 12.992-8.8828 15.062-36.148-4.3477-28.254-8.1484c-1.8906-0.54687-3.793 0.53125-4.332 2.3945-0.53125 1.8633 0.53125 3.8008 2.3945 4.332l22.883 6.6016-17.254 26.09-28.488 47.402-1.1953 2.4766c-10.52 0.35156-16.766-4.6758-19.137-7.168l16.75-42.965 6.7969-4.668c1.0586-0.72656 1.6328-1.9688 1.4961-3.2461l-1.3359-12.938 9.6523-19.754c0.83203-1.6992 0.15234-3.7578-1.5195-4.6406l-7.0195-3.668 44.598-86.879 12.426-8.1328c28.371 21.734 33.871 24.281 35.918 24.281 0.31641 0 0.55469-0.054688 0.77734-0.11719 1.793-0.30859 14.414-0.19531 25.578 0.097656 0.015626 0 0.027344-0.007812 0.042969-0.007812s0.027344 0.007812 0.035157 0.007812c0.13281 0 0.25781-0.007812 0.39844-0.019531l30.105-3.3516 21.117 77.973 4.3242 34.109c0.078125 0.60938 0.30859 1.1758 0.67188 1.6602l8.6445 11.523c0.23828 0.31641 0.51953 0.58203 0.83984 0.79688l15.539 10.516 15.008 31.766c-1.168 0.15234-2.2383 0.83203-2.75 1.9805-2.5391 5.6562-14.973 10.348-19.867 11.641l-20.902-33.746c-0.17578-0.28516-0.41016-0.56641-0.69141-0.80469zm26.297 42.141-0.875-1.4141c6.6484-2.043 17.57-6.6641 21.715-13.613l1.1836 2.5078-14.258 24.422zm16.059 52.348c-0.34375 0.45313-0.55859 0.98828-0.65234 1.5469l-4.4648 28.688c-7.8828 0.51953-29.527 2.8008-41.188 12.398-3.8867 1.0586-13.082 2.9609-18.73 1.7656-0.070312-0.015625-0.72656-0.13281-0.79688-0.14844-2.8633-0.44922-3.5-0.97266-3.625-1.1211-0.007813-0.035157-0.48438-3.5273 13.586-14.406l1.9805-2.0508c2.2969 1.6328 5.7461 4.4023 8.5625 8.043 0.69141 0.89453 1.7227 1.3594 2.7734 1.3594 0.75 0 1.5039-0.23828 2.1406-0.72656 1.5312-1.1836 1.8125-3.375 0.62891-4.9062-2.9961-3.8789-6.5312-6.8672-9.1914-8.8398l8.7578-9.0664c2.5898 1.875 6.8828 5.3555 10.348 10.059 0.6875 0.9375 1.7422 1.4297 2.8125 1.4297 0.72656 0 1.4492-0.21875 2.0703-0.6875 1.5625-1.1406 1.8984-3.3398 0.74219-4.8867-3.6523-4.9688-8.043-8.7148-11.074-10.988l7.2539-7.5039c2.5977 1.875 6.9219 5.3828 10.383 10.078 0.6875 0.9375 1.7422 1.4297 2.8125 1.4297 0.72656 0 1.4492-0.21875 2.0703-0.6875 1.5625-1.1406 1.8984-3.3398 0.74219-4.8867-3.668-4.9844-8.0703-8.7422-11.109-11.023l5.6211-5.8242c0.19531-0.20312 0.36328-0.42578 0.50391-0.67188l6.9102-11.824 18.324 12.375zm31.508-16.914c-8.9727 0.49609-15.301 8.0859-15.625 8.4922-1.2266 1.5039-0.99219 3.7031 0.50391 4.9219 0.65234 0.52344 1.4297 0.78516 2.2031 0.78516 1.0234 0 2.0234-0.44141 2.7148-1.2969 0.070312-0.078125 6.5742-7.8594 14.254-5.3477l0.55859 1.0352c1.043 1.6992 2.0859 3.6055 3.1016 5.5703-8.9805 0.48828-15.324 8.0938-15.652 8.4961-1.2266 1.5039-0.99219 3.7031 0.50391 4.9219 0.65234 0.53125 1.4297 0.78516 2.2031 0.78516 1.0234 0 2.0234-0.44141 2.7148-1.2969 0.0625-0.085937 6.2109-7.4219 13.637-5.5039 2.6172 6.5039 4.0664 12.641 2.3398 15.133-3.4727 1.9453-12.34 5.6406-18.852 3.1094-3.8555-1.5039-6.5234-4.9336-8.1211-10.352l-4.6055-18.871 13.816-18.633zm82.48-76.879 0.73437-47.367c0.027344-1.9336-1.5117-3.5273-3.4453-3.5547-1.7422 0.070312-3.5273 1.5117-3.5547 3.4453l-0.28125 18.223-0.43359 0.50391c-0.94531 1.0938-0.82031 2.7578 0.28125 3.6953 0.027343 0.019532 0.0625 0.015625 0.089843 0.035156l-0.37891 24.219-11.145 8.2969-9.4023-4.3203 10.836-12.594c0.94531-1.0938 0.82031-2.7578-0.28125-3.6953-1.0938-0.94531-2.7578-0.83203-3.6953 0.28125l-11.816 13.727-12.391-5.6992c-0.085937-0.042968-0.17578 0-0.25781-0.035156l-13.027-5.6836c-1.75-0.75-3.8359 0.035156-4.6055 1.8047-0.76953 1.7773 0.035156 3.8359 1.8047 4.6055l8.4844 3.7031-9.4023 9.4766c-0.44141 0.44922-0.75781 1.0156-0.91016 1.625l-5.2344 21.117-33.578 45.281-18.965-12.809 33.906-58.059 13.68-22.633 36.246-85.23 6.2422-12.852 28.477 7.8125c0.30078 0.085938 0.60938 0.125 0.92578 0.125 0.34375 0 0.6875-0.050781 1.0156-0.14844l33.398-10.059 2.3164 16.953c0.17578 1.3164 1.3086 2.2695 2.5977 2.2695 0.11719 0 0.23047-0.007812 0.35547-0.019531 1.4336-0.19531 2.4414-1.5195 2.2383-2.9531l-2.4297-17.773 12.48-3.7578 1.1602 4.8242 2.8086 24.598 17.242 81.887-3.9961 3.6523-9.3047-8.5117c-0.53125-0.48438-1.1836-0.75781-1.8672-0.85547 0.52344-0.65234 0.77734-1.5039 0.51953-2.3711l-5.9414-20.145c-0.40625-1.3945-1.8477-2.1914-3.2617-1.7695-1.3867 0.41406-2.1836 1.8672-1.7695 3.2617l5.9414 20.145c0.27344 0.92578 1.0508 1.4688 1.9258 1.6875-0.76172 0.60938-1.3359 1.4141-1.4062 2.4141l-1.582 24.836-19.656 3.5703-21.219 1.4648zm148.42 149.5c-2.4648 5.9766-7.0703 10.074-14.07 12.531-0.042969 0.015625-4.3477 1.3867-6.9805-1.0234-1.8477-1.6875-4.2617-6.7461-1.168-20.992 3.9219-0.078125 10.078-1.1406 13.23-6.7188 0.95312-1.6797 0.35547-3.8203-1.3242-4.7734-1.6797-0.94531-3.8164-0.35547-4.7734 1.3242-1.4062 2.5-4.6758 3.0859-7 3.1641-0.23047-1.3711-0.53906-3.0938-0.96094-5.1016 3.9219-0.1875 9.5703-1.4414 12.535-6.6914 0.95312-1.6875 0.35547-3.8203-1.3242-4.7734-1.6719-0.94531-3.8203-0.35547-4.7734 1.3242-1.6367 2.9258-5.8516 3.2266-8.0938 3.1641-0.59375-2.2344-1.2812-4.5703-2.0781-6.9375 3.7852-0.40625 8.5625-1.8984 11.215-6.5859 0.95312-1.6875 0.35547-3.8203-1.3242-4.7734-1.6797-0.94531-3.8203-0.36328-4.7734 1.3242-1.5664 2.793-5.4531 3.1914-7.7578 3.1719-1.4961-3.4102-3.2461-6.6445-5.293-9.4219 4.5625-1.6797 10.395-4.9844 12.199-11.41 0.51953-1.8672-0.55859-3.793-2.4219-4.3203-1.8906-0.50391-3.793 0.56641-4.3203 2.4219-1.3711 4.8867-7.9648 6.9648-10.887 7.6562l-33.895-28.055-15.777-18.598-10.746-26.066 7.4062-1.3438c1.5898-0.28516 2.7734-1.6172 2.8711-3.2266l1.2891-20.273 6.0703 5.5508 14.883 19.27c0.18359 0.23828 0.40625 0.45312 0.64453 0.64453l10.941 8.3633 31.695 49.449 20.258 33.367c0.11328 0.23828 10.922 22.742 4.5039 38.359z" style="fill: rgb(0, 62, 232);"/>
    <path d="m287.4 269.21c-0.44141-1.3789-1.8906-2.1367-3.3125-1.6875-1.3711 0.44922-2.1367 1.9258-1.6797 3.3047l6.4961 19.977c0.36328 1.1055 1.3867 1.8125 2.4922 1.8125 0.26562 0 0.53906-0.042969 0.8125-0.13281 1.3711-0.44141 2.1367-1.9258 1.6797-3.3125z" style="fill: rgb(0, 62, 232);"/>
    <path d="m276.38 235.29c-0.44141-1.3789-1.8984-2.1367-3.3125-1.6875-1.3711 0.44922-2.1367 1.9258-1.6797 3.3047l4.5273 13.957c0.35547 1.1133 1.3867 1.8125 2.4922 1.8125 0.26562 0 0.53906-0.042969 0.8125-0.13281 1.3711-0.44922 2.1367-1.9258 1.6797-3.3047z" style="fill: rgb(0, 62, 232);"/>
    <path d="m300.38 309.16c-0.44141-1.3711-1.8906-2.1406-3.3125-1.6797-1.3711 0.44141-2.1367 1.9258-1.6797 3.3125l6.4883 19.977c0.35547 1.1055 1.3867 1.8125 2.4922 1.8125 0.26562 0 0.53906-0.042969 0.8125-0.13281 1.3711-0.44141 2.1367-1.9258 1.6797-3.3125z" style="fill: rgb(0, 62, 232);"/>
    <path d="m514.65 321.45c0.11719 0 0.23047-0.007812 0.35547-0.027343 1.4336-0.1875 2.4414-1.5195 2.2383-2.9531l-2.8438-20.812c-0.1875-1.4297-1.4414-2.4766-2.9531-2.2383-1.4336 0.1875-2.4414 1.5195-2.2383 2.9531l2.8438 20.812c0.17969 1.3086 1.3086 2.2656 2.5977 2.2656z" style="fill: rgb(0, 62, 232);"/>
    <use transform="matrix(1, 0, 0, 1, 70, 665)" style="fill: rgb(0, 62, 232);" xlink:href="#s"/>
    <use transform="matrix(1, 0, 0, 1, 95.6875, 665)" style="fill: rgb(0, 62, 232);" xlink:href="#e"/>
    <use transform="matrix(1, 0, 0, 1, 112.9453125, 665)" style="fill: rgb(0, 62, 232);" xlink:href="#c"/>
    <use transform="matrix(1, 0, 0, 1, 136.68359375, 665)" style="fill: rgb(0, 62, 232);" xlink:href="#a"/>
    <use transform="matrix(1, 0, 0, 1, 160.3046875, 665)" style="fill: rgb(0, 62, 232);" xlink:href="#b"/>
    <use transform="matrix(1, 0, 0, 1, 177.03515625, 665)" style="fill: rgb(0, 62, 232);" xlink:href="#c"/>
    <use transform="matrix(1, 0, 0, 1, 200.7734375, 665)" style="fill: rgb(0, 62, 232);" xlink:href="#l"/>
    <use transform="matrix(1, 0, 0, 1, 238.01171875, 665)" style="fill: rgb(0, 62, 232);" xlink:href="#k"/>
    <use transform="matrix(1, 0, 0, 1, 263.0625, 665)" style="fill: rgb(0, 62, 232);" xlink:href="#j"/>
    <use transform="matrix(1, 0, 0, 1, 298.0625, 665)" style="fill: rgb(0, 62, 232);" xlink:href="#g"/>
    <use transform="matrix(1, 0, 0, 1, 310.0625, 665)" style="fill: rgb(0, 62, 232);" xlink:href="#d"/>
    <use transform="matrix(1, 0, 0, 1, 334.10546875, 665)" style="fill: rgb(0, 62, 232);" xlink:href="#f"/>
    <use transform="matrix(1, 0, 0, 1, 359.0234375, 665)" style="fill: rgb(0, 62, 232);" xlink:href="#a"/>
    <use transform="matrix(1, 0, 0, 1, 382.640625, 665)" style="fill: rgb(0, 62, 232);" xlink:href="#b"/>
    <use transform="matrix(1, 0, 0, 1, 399.37109375, 665)" style="fill: rgb(0, 62, 232);" xlink:href="#a"/>
    <use transform="matrix(1, 0, 0, 1, 435.17578125, 665)" style="fill: rgb(0, 62, 232);" xlink:href="#i"/>
    <use transform="matrix(1, 0, 0, 1, 460.09375, 665)" style="fill: rgb(0, 62, 232);" xlink:href="#a"/>
    <use transform="matrix(1, 0, 0, 1, 483.7109375, 665)" style="fill: rgb(0, 62, 232);" xlink:href="#f"/>
    <use transform="matrix(1, 0, 0, 1, 508.62890625, 665)" style="fill: rgb(0, 62, 232);" xlink:href="#h"/>
    <use transform="matrix(1, 0, 0, 1, 533.6796875, 665)" style="fill: rgb(0, 62, 232);" xlink:href="#h"/>
    <use transform="matrix(1, 0, 0, 1, 558.734375, 665)" style="fill: rgb(0, 62, 232);" xlink:href="#a"/>
    <use transform="matrix(1, 0, 0, 1, 70, 700)" style="fill: rgb(0, 62, 232);" xlink:href="#r"/>
    <use transform="matrix(1, 0, 0, 1, 85.2265625, 700)" style="fill: rgb(0, 62, 232);" xlink:href="#e"/>
    <use transform="matrix(1, 0, 0, 1, 102.48828125, 700)" style="fill: rgb(0, 62, 232);" xlink:href="#d"/>
    <use transform="matrix(1, 0, 0, 1, 126.53125, 700)" style="fill: rgb(0, 62, 232);" xlink:href="#q"/>
    <use transform="matrix(1, 0, 0, 1, 175.1875, 700)" style="fill: rgb(0, 62, 232);" xlink:href="#b"/>
    <use transform="matrix(1, 0, 0, 1, 191.91796875, 700)" style="fill: rgb(0, 62, 232);" xlink:href="#i"/>
    <use transform="matrix(1, 0, 0, 1, 216.8359375, 700)" style="fill: rgb(0, 62, 232);" xlink:href="#c"/>
    <use transform="matrix(1, 0, 0, 1, 252.7578125, 700)" style="fill: rgb(0, 62, 232);" xlink:href="#p"/>
    <use transform="matrix(1, 0, 0, 1, 282.05078125, 700)" style="fill: rgb(0, 62, 232);" xlink:href="#d"/>
    <use transform="matrix(1, 0, 0, 1, 306.09765625, 700)" style="fill: rgb(0, 62, 232);" xlink:href="#o"/>
    <use transform="matrix(1, 0, 0, 1, 331.01171875, 700)" style="fill: rgb(0, 62, 232);" xlink:href="#f"/>
    <use transform="matrix(1, 0, 0, 1, 368.1171875, 700)" style="fill: rgb(0, 62, 232);" xlink:href="#n"/>
    <use transform="matrix(1, 0, 0, 1, 393.765625, 700)" style="fill: rgb(0, 62, 232);" xlink:href="#e"/>
    <use transform="matrix(1, 0, 0, 1, 411.02734375, 700)" style="fill: rgb(0, 62, 232);" xlink:href="#d"/>
    <use transform="matrix(1, 0, 0, 1, 435.07421875, 700)" style="fill: rgb(0, 62, 232);" xlink:href="#g"/>
    <use transform="matrix(1, 0, 0, 1, 447.0703125, 700)" style="fill: rgb(0, 62, 232);" xlink:href="#c"/>
    <use transform="matrix(1, 0, 0, 1, 470.80859375, 700)" style="fill: rgb(0, 62, 232);" xlink:href="#m"/>
    <use transform="matrix(1, 0, 0, 1, 491.5546875, 700)" style="fill: rgb(0, 62, 232);" xlink:href="#b"/>
  </g>
</svg>