<?xml version="1.0" encoding="UTF-8"?>
<svg width="700pt" height="700pt" version="1.1" viewBox="0 0 700 700" xmlns="http://www.w3.org/2000/svg" xmlns:xlink="http://www.w3.org/1999/xlink">
 
 <g>
  
  
  <path d="m431.14 445.12c-0.6875-0.88281-1.7695-1.3242-2.8359-1.3438-8.1328 0.23828-13.027-8.4062-14.07-10.449 0.59375-2.8984 1.0586-5.4258 1.3516-7.1602 0.17578-0.019531 0.33594-0.015625 0.51172-0.042969 0.72656-0.11719 1.3242-0.49609 1.8203-0.96484 6.0352-2.2617 10.414-5.9414 12.867-11.172 5.3984-11.535-0.19531-26.594-2.6953-32.227 25.508-29.266 29.512-95.375 29.938-104.34 22.094-37.059 23.695-103.29 23.809-111.28 4.5703-11.039 5.3281-20.035 2.2344-26.734-1.9961-4.332-5.0312-6.5039-6.9375-7.5039l-4.5312-115.18c-0.078125-1.8906-1.625-3.3594-3.5-3.3594h-0.14062l-229.52 9.043c-1.9336 0.078126-3.4375 1.6992-3.3594 3.6328l4.3594 110.77c-5.1094 2.1484-15.945 8.0352-14.68 18.941-0.14062 2.9961-0.070312 20.496 18.543 33.895l14.566 88.969c0.042969 0.26562 0.11719 0.51953 0.21094 0.76172 0.17578 0.42578 4.2773 10.352 11.25 21.344 0.9375 6.2734 7.0547 45.109 18.738 75.445-2.7031 8.2812-16.438 54.809 7.9023 76.727-1.582 5.0273-4.3125 16.836 0.60938 27.344 2.9805 6.3789 8.3359 11.031 15.68 14.09-1.3594 3.1836-2.8711 6.4414-4.5977 9.7734-0.83203 1.5977-0.31641 3.5547 1.1914 4.5352 1.457 0.96094 30.59 19.754 61.23 19.754 6.0977 0 12.258-0.74219 18.258-2.5195 1.8555-0.54688 2.9102-2.4922 2.3672-4.3477-0.55469-1.8633-2.5117-2.9062-4.3477-2.3672-28.133 8.3086-61.469-9.1914-71.008-14.758 7.9727-16.148 11.586-30.609 12.684-43.266 7.1602-2.8984 36.016-13.363 63.441-6.0977 1.8828 0.51953 3.7812-0.62891 4.2773-2.4844 0.48828-1.8672-0.62109-3.7852-2.4844-4.2773-26.84-7.0977-53.922 1.1055-64.828 5.1875 0.007813-0.64453-0.035156-1.2383-0.042969-1.8672 0.11719-0.042968 0.23828-0.027344 0.35547-0.085937 0.085937-0.042969 8.0234-3.9531 19.074-7.6797 1.8359-0.61719 2.8125-2.5977 2.1992-4.4297-0.61719-1.8359-2.582-2.8125-4.4297-2.1992-8.0508 2.7109-14.352 5.4375-17.578 6.9141-2.3086-24.535-13.754-38.82-14.566-39.797-0.16797-0.20312-0.37109-0.39844-0.58984-0.55859-6.8594-5.1445-12.797-15.898-17.773-28.617-0.078124-0.26562-0.15234-0.52344-0.29297-0.76172-12.195-31.586-18.559-74.789-18.648-75.398-0.078125-0.49609-0.25391-0.97266-0.51953-1.3945-6.1445-9.5547-10.121-18.629-10.934-20.504l-14.734-90.02c-0.14844-0.95312-0.69141-1.793-1.4844-2.332-17.766-12.082-16.773-28.141-16.73-28.797 0.019532-0.25781 0.015626-0.52344-0.019531-0.77734-0.72266-5.1367 4.1641-8.7422 8-10.746l0.62109 15.918c0.042969 0.92969 0.44141 1.8047 1.1211 2.4375 0.65234 0.59375 1.4961 0.92969 2.3789 0.92969h0.14062l198.99-7.8398c0.015625 0.23828-0.019531 0.46875 0.050781 0.70703 8.9883 32.957 0.34375 53.34 0.37891 53.332-19.426 32.375-16.477 60.258-16.367 60.914-0.32031 10.066-3.1992 21.254-6.9375 31.844-2.2734-27.973-10.5-47.844-24.551-59.145-14.387-11.559-29.883-9.9805-33.336-9.4492-5.9375-0.89062-48.594-5.6367-58.035 38.43l-4.6289 19.266c-0.57422-1.9531-0.90234-3.1797-0.91016-3.1797-3.1797-33.895-32.789-115.84-34.039-119.32-0.65625-1.8125-2.6797-2.7383-4.4805-2.1016-1.8203 0.65625-2.7656 2.668-2.1016 4.4883 0.30078 0.83984 30.555 84.574 33.738 118.12 0.50391 1.9805 11.117 42.855 30.086 60.668 0.86719 2.8789 3.3516 15.129-10.617 32.02-1.2305 1.4922-1.0234 3.6875 0.46875 4.9297 0.65234 0.53906 1.4414 0.79688 2.2266 0.79688 1.0078 0 2.0039-0.43359 2.6953-1.2734 10.652-12.871 12.949-23.828 12.914-30.98 0.39844 0.21094 0.77734 0.49609 1.1836 0.67969 0.26563 0.125 0.54688 0.20312 0.83203 0.25781l6.0352 1.0781c0.75 5.0391 3.2422 15.805 11.32 23.023 5.1719 4.6211 11.66 6.9492 19.18 6.9492 0.72266 0 1.4414-0.019531 2.1836-0.0625 0.50391 0 12.473-0.16016 19.027-8.9805 4.0898-5.4883 4.8945-12.965 2.7578-22.07l10.543-5.5664c2.2461 2.0312 6.1797 6.25 6.8867 11.656 0.23047 1.7578 1.7344 3.0469 3.4648 3.0469 0.15234 0 0.30859-0.007812 0.46094-0.027343 1.9102-0.25391 3.2617-2.0078 3.0156-3.9336-0.97266-7.3984-5.832-12.887-8.8828-15.695 5.7617-9.9609 25.543-46.234 26.469-75.762-0.035156-0.26562-2.8281-26.672 15.582-57.395 0.40625-0.90234 9.7383-22.371 0.39063-57.555l23.527-0.92578c0.92969-0.035156 1.8047-0.44141 2.4375-1.1211 0.62891-0.67969 0.96484-1.5898 0.92969-2.5117l-0.35547-8.9727c0.054688 0.11328 0.125 0.17578 0.18359 0.29297 1.5742 3.4141 2.4023 9.9531-2.5898 21.723-0.18359 0.42578-0.28125 0.88281-0.28125 1.3438-0.007812 0.72266-0.76172 72.332-23.262 109.15-0.31641 0.51172-0.48438 1.0938-0.51172 1.6875-0.027343 0.74219-3.1797 74.719-29.672 102.47-1.0273 1.0859-1.2656 2.7031-0.58203 4.0312 0.089844 0.16797 8.8008 17.254 3.6172 28.293-1.9258 4.1016-5.6484 6.7891-11.172 8.3164-14.055 0.8125-21.387-15.645-21.699-16.379-0.76953-1.7773-2.8477-2.5742-4.5977-1.8281-1.7695 0.76172-2.5898 2.8203-1.8281 4.5938 0.35547 0.83984 7.9297 17.988 23.344 20.41-1.918 10.844-6.707 31.668-13.293 38.48-0.83984 0.86719-1.1758 2.1211-0.875 3.2969 5.125 20.203 9.9414 44.332 8.9375 47.754-1.0703 1.6016-0.63672 3.7812 0.97266 4.8516 0.59375 0.39844 1.2734 0.58984 1.9375 0.58984 1.1289 0 2.2344-0.54688 2.9102-1.5625 2.75-4.1211-0.73437-23.059-5.1172-41.672 20.188-2.8281 27.469-28.52 27.789-29.688 0.30469-1.0742 0.074218-2.2148-0.59766-3.0859zm-121.84-36.047c2.3867 3.1211 23.191 32.453 6.4453 78.75-5.5781-2.3789-9.6094-5.8594-11.801-10.516-5.0273-10.684 0.32031-24.066 0.37891-24.207 0.58984-1.4492 0.14844-3.1133-1.0781-4.082-18.562-14.531-13.645-46.613-9.7734-62.488 4.5742 9.7656 9.8438 17.887 15.828 22.543zm-4.582-104.62 7.3086-30.43c8.6602-40.473 48.852-33.328 50.574-32.992 0.44141 0.085938 0.91797 0.085938 1.3516-0.007812 0.15234-0.035156 14.82-2.8555 28.223 7.9258 14.461 11.629 22.059 34.145 22.574 66.934 0.007812 0.59375 0.20312 1.1211 0.46875 1.6016-5.8945 13.398-11.949 23.977-13.68 26.906l-18.5 9.7734c-2.9531-4.7617-3.4297-9.4062-3.4219-11.73 11.844-7.3359 20.344-22.129 21.328-39.586 0.0625-1.043-0.35156-2.0586-1.1211-2.7734-16.035-14.797-33.789-46.418-33.973-46.738-0.62891-1.1289-1.7227-1.5898-3.1211-1.793-1.2969 0.027344-2.4727 0.76172-3.0586 1.9102-0.16797 0.35156-17.754 34.805-33.672 52.695-0.70703 0.78516-1.0156 1.8477-0.83984 2.8828 2.0078 12.391 7.8945 22.742 15.793 29.602-0.69922 2.7109-1.8555 7.6445-2.3867 12.164l-4.3203-0.76953c-13.52-6.4766-23.809-29.605-29.527-45.574zm27.641 5.0703c12.355-14.363 24.988-36.805 30.598-47.242 5.7812 9.6875 18.453 29.766 30.883 41.777-1.7852 20.504-15.191 36.328-31.047 36.328-14.32 0.003906-26.926-12.883-30.434-30.863zm52.359 65.125c-4.4297 6.0117-13.391 6.1953-13.648 6.2031-17.527 0.96484-23.176-13.012-24.969-20.91l15.91 4.9219c0.34375 0.11328 0.69141 0.15234 1.0273 0.15234 1.4961 0 2.8789-0.96484 3.3477-2.4727 0.57422-1.8477-0.46094-3.8086-2.3086-4.375l-18.656-5.7695c0.30078-3.0859 1.0352-6.6562 1.6875-9.4141 4.8438 2.7305 10.129 4.3945 15.695 4.3945 3.4727 0 6.8398-0.62109 10.051-1.7344 0.37109 3.2344 1.3789 7.4414 3.9766 11.789l-1.8555 0.98047c-1.707 0.90234-2.3672 3.0234-1.4648 4.7305 0.62891 1.1914 1.8477 1.8672 3.0938 1.8672 0.55469 0 1.1133-0.13281 1.6328-0.40625l8.4492-4.4609c1.1602 6.1602 0.57422 11.074-1.9688 14.504zm-136.49-218.11-5.0039-127.28 222.52-8.7656 5.0117 127.29zm154.05 314.36c-0.24609-0.98828-0.48438-1.9688-0.72656-2.9414 4.6953-5.9297 8.1484-16.148 10.52-25.324 2.6328 3.1289 6.418 6.3906 11.559 7.6211-2.6602 6.625-9.3672 19.301-21.352 20.645z"/>
  
  <path d="m380.82 407.02c0.51953-1.8633-0.56641-3.793-2.4297-4.3125-1.8984-0.53906-3.793 0.56641-4.3125 2.4297-1.3164 4.6914-6.418 17.199-14.152 18.695-6.7422 1.3008-13.816-5.9922-18.684-12.328-3.7188-4.8164-6.7891-13.504-6.8242-13.578-0.63672-1.8281-2.6328-2.7852-4.4609-2.1484s-2.7852 2.6406-2.1484 4.4609c0.14062 0.40625 3.4727 9.8281 7.8828 15.555 7.7852 10.102 15.387 15.203 22.625 15.203 0.98828 0 1.9609-0.097656 2.9336-0.28125 13.523-2.6406 19.332-22.836 19.57-23.695z"/>
  <use x="70" y="665" xlink:href="#s"/>
  <use x="95.6875" y="665" xlink:href="#e"/>
  <use x="112.945312" y="665" xlink:href="#c"/>
  <use x="136.683594" y="665" xlink:href="#a"/>
  <use x="160.304688" y="665" xlink:href="#b"/>
  <use x="177.035156" y="665" xlink:href="#c"/>
  <use x="200.773438" y="665" xlink:href="#l"/>
  <use x="238.011719" y="665" xlink:href="#k"/>
  <use x="263.0625" y="665" xlink:href="#j"/>
  <use x="298.0625" y="665" xlink:href="#g"/>
  <use x="310.0625" y="665" xlink:href="#d"/>
  <use x="334.105469" y="665" xlink:href="#f"/>
  <use x="359.023438" y="665" xlink:href="#a"/>
  <use x="382.640625" y="665" xlink:href="#b"/>
  <use x="399.371094" y="665" xlink:href="#a"/>
  <use x="435.175781" y="665" xlink:href="#i"/>
  <use x="460.09375" y="665" xlink:href="#a"/>
  <use x="483.710938" y="665" xlink:href="#f"/>
  <use x="508.628906" y="665" xlink:href="#h"/>
  <use x="533.679688" y="665" xlink:href="#h"/>
  <use x="558.734375" y="665" xlink:href="#a"/>
  <use x="70" y="700" xlink:href="#r"/>
  <use x="85.226562" y="700" xlink:href="#e"/>
  <use x="102.488281" y="700" xlink:href="#d"/>
  <use x="126.53125" y="700" xlink:href="#q"/>
  <use x="175.1875" y="700" xlink:href="#b"/>
  <use x="191.917969" y="700" xlink:href="#i"/>
  <use x="216.835938" y="700" xlink:href="#c"/>
  <use x="252.757812" y="700" xlink:href="#p"/>
  <use x="282.050781" y="700" xlink:href="#d"/>
  <use x="306.097656" y="700" xlink:href="#o"/>
  <use x="331.011719" y="700" xlink:href="#f"/>
  <use x="368.117188" y="700" xlink:href="#n"/>
  <use x="393.765625" y="700" xlink:href="#e"/>
  <use x="411.027344" y="700" xlink:href="#d"/>
  <use x="435.074219" y="700" xlink:href="#g"/>
  <use x="447.070312" y="700" xlink:href="#c"/>
  <use x="470.808594" y="700" xlink:href="#m"/>
  <use x="491.554687" y="700" xlink:href="#b"/>
 </g>
</svg>
