<?xml version="1.0" encoding="UTF-8"?>
<svg width="700pt" height="700pt" version="1.1" viewBox="0 0 700 700" xmlns="http://www.w3.org/2000/svg" xmlns:xlink="http://www.w3.org/1999/xlink">
 
 <g>
  <path d="m367.23 109.68c-1.5312-2.8828-2.6211-5.9805-3.2383-9.1875-9.6719 3.5977-19.859 7.9805-19.859 20.176 0 7.875-1.1875 16.23 3.5938 22.941v0.003906c2.2773 3.6094 3.4297 7.8164 3.3164 12.082 0.23438 17.844 7.6992 33.168 11.57 50.027v0.003906c4.5781 3.3711 9.875 5.6406 15.477 6.6328 5.1289 0.46875 10.285 0.66797 15.438 0.58984 6.793 0 13.625-3.2383 20.297-2.3672 1.1875-2.7656 2.4883-5.3711 3.7148-7.6211 0.10547-0.72266 0.45312-1.3906 0.98438-1.8945 0.17578-0.17188 0.35938-0.32812 0.55469-0.47656 0.19141-0.20703 0.40234-0.39063 0.62891-0.55078 4.0508-2.6016 7.8711-5.5469 11.41-8.8086 2.332-3.1523 5.1758-5.8867 8.4141-8.0938 0.69141-0.39453 1.4023-0.75 2.1289-1.0664-0.25391-5.2344-0.042968-10.48 0.63281-15.676 0.79297-5.0547 6.082-10.266 7.3867-15.473l-0.003906-0.003907c3.6172-11.234 3.6172-23.324 0-34.562-0.046876-0.21875-0.070313-0.44531-0.078126-0.67187-2.9805 0.45312-5.9922 0.66406-9.0039 0.63281-0.4375 4.5781-1.8945 9.3984-2.1875 12.754-0.070312 0.54688-0.25781 1.0742-0.55078 1.5391 0.57031 0.88672 0.66016 2 0.23828 2.9688-0.42188 0.96484-1.2969 1.6602-2.3359 1.8438-1.5781 0.31641-2.9609 1.3828-4.543 1.8555h0.003906c-1.8203 0.44531-3.6641 0.77734-5.5273 0.98828-3.0078 0.79297-6.2109 0.14453-8.6719-1.7617-3.2617-4.5625-4.8281-10.121-4.4219-15.715-3.1328 0.10938-6.2656-0.27344-9.2773-1.1406-1.3125-0.42188-2.582-0.96484-3.7891-1.6211-0.078125 0.078124-0.078125 0.15625-0.15625 0.23437-2.0117 2.0117-1.8945 5.3672-3.9375 7.3789l-0.003906 0.003906c-1.7266 2.0547-4.043 3.5273-6.6367 4.2266-1.0312 0.20312-2.0703 0.34766-3.1172 0.4375 0 0.082031 0.039062 0.12109 0.039062 0.16016v0.003906c5.5508 2.2891 10.836 5.1914 15.75 8.6445 3.3203 2.0195 5.5898 5.3984 6.1992 9.2383 0.71484 2.3672 11.016 5.9219 13.191 7.8164v0.003906c3.3867 2.7617 5.9883 6.3711 7.5352 10.465 1.7031 4.2617-5.1719 6.082-6.8281 1.8555v-0.003907c-2.7617-5.9883-8.3008-10.23-14.805-11.328-2.2031-0.57031-4.0391-2.0898-5.0156-4.1484-2.7656-4.375-0.63281-6.0039-6.1992-9.1602-2.8047-1.5391-5.8828-3.7891-9.0039-5.3672v-0.003906c-0.39844 1.625-1.3633 3.0547-2.7227 4.0273-1.707 0.97266-3.875 0.38672-4.8555-1.3125-0.81641-1.4297-0.5-3.2344 0.75-4.3008v-0.039062c0.03125-0.078125 0.042969-0.16016 0.039062-0.24219 0.054688-0.56641 0.027344-1.1367-0.082031-1.6953-0.19922-1.0117-0.58594-1.9727-1.1406-2.8398 0-0.039063 0-0.078125-0.039062-0.078125-0.39844 0.078125-0.83203 0.19531-1.2266 0.27734v-0.003906c-2.3125 0.5-4.6953 0.56641-7.0312 0.19531-4.5-0.79297-2.6016-7.6211 1.8984-6.832 4.5 0.78906 9.4766-2.2891 14-2.6016 3.8672-0.31641 4.8945-4.0703 6.4766-7.1484-4.6562 2.5195-10.121 3.1016-15.203 1.6172-4.4023-0.92969-8.1484-3.8086-10.176-7.8281zm21.207 94.965h-0.003906c-4.3906 0.10938-8.7383-0.89844-12.633-2.9219-4.0312-2.2109-0.4375-8.3125 3.5938-6.1602h-0.003907c2.7891 1.4375 5.9102 2.1172 9.043 1.9727 1.9141 0.066406 3.4336 1.6406 3.4336 3.5547 0 1.9141-1.5195 3.4883-3.4336 3.5547zm13.348-17.453h-0.003906c1.9648 0 3.5547 1.5898 3.5547 3.5547 0 1.9609-1.5898 3.5508-3.5547 3.5508-12.602-0.78516-24.961-3.8359-36.484-9-4.2266-1.6562-2.3672-8.5703 1.8945-6.875v0.003906c10.918 4.9492 22.633 7.918 34.59 8.7656zm-32.891-28.586c2.918 2.3672 5.2109 5.4453 8.1328 7.7344h-0.003906c3.5117 1.9375 7.2344 3.4648 11.098 4.543 3.3945 1.625 6.9727 2.832 10.66 3.5977 4.4961 0.94531 2.5625 7.7773-1.8984 6.8672-4.2539-1.0117-8.3945-2.457-12.355-4.3047-3.957-1.0547-7.7578-2.6328-11.297-4.6992-3.3164-2.625-6.125-5.918-9.3594-8.6836h0.003906c-2.6133-1.8477-5.1328-3.8242-7.543-5.9258-3.1562-3.3555 1.8984-8.3711 5.0195-5.0547l-0.003907 0.003907c2.3672 2.1562 4.8867 4.1367 7.543 5.9219z"/>
  <path d="m441.7 190.43c-3.1992 3.1211-5.9219 6.5625-8.9648 9.793-2.3672 2.4492-5.8789 3.1992-8.5664 5.4102-1.5781 2.8008-3.1602 5.5273-4.4609 8.4492 0.48047 1.5938-0.14453 3.3164-1.5391 4.2266-0.11719 0.26562-0.20703 0.54297-0.27734 0.82422-2.332 8.8477-1.1055 21.836 11.727 14.926v0.003906c5.0625-3.1406 9.3984-7.3281 12.715-12.281 2.9258-3.4531 6.4805-6.3203 10.477-8.4531 7.1094-4.6992 16.82-12.871 9.1602-22.543-4.4727-5.6484-15.41-5.1328-20.27-0.35547z"/>
  <path d="m408.38 222.72c0.48828-0.33984 1.0664-0.53125 1.6602-0.55078 0.28516-1.5625 0.66797-3.1055 1.1445-4.6211-5.6484-0.078125-12.082 2.625-17.652 2.4883-6.5469 0.29297-13.105-0.050781-19.582-1.0273-0.94922-0.19531-12.754-3.3945-12.754-4.543-0.98828 4.6992-3.1992 15.242-0.28125 19.902v0.003906c0.085938 0.11328 0.14063 0.25 0.16016 0.39062 0.20312 0.11719 0.39844 0.19531 0.55469 0.27734 3.5742 2.3906 7.6328 3.9531 11.887 4.582 1.8477 0.10156 3.6836 0.36719 5.4844 0.78906 7.3477-8.293 20.336-11.602 29.379-17.691z"/>
  <path d="m370.75 97.715c0 0.078125 0.039062 0.15625 0.039062 0.23438v0.003906c-0.16406 5.6055 3.2461 10.699 8.4883 12.688 0.91016 0.19531 8.8086 1.3828 9.1875-0.79297 0.1875-1.0352 0.88281-1.9102 1.8477-2.3281 0.96875-0.42188 2.0781-0.33203 2.9648 0.23828 0.34766-0.019531 0.69531 0.019532 1.0273 0.11719 3.5859 1.3047 7.0703 2.8789 10.422 4.6992 3.8242 1.2227 7.8672 1.5859 11.848 1.0664 1.2188 0.011719 2.3477 0.66016 2.9727 1.707s0.66016 2.3438 0.089844 3.4258c0.039062 2.1289-0.15625 12.637 2.8438 12.637v-0.003906c2.3125 0.03125 4.6172-0.30078 6.8281-0.98438 0.69531-0.23438 1.3672-0.52734 2.0156-0.875 0-0.15625-0.078125-0.31641-0.078125-0.47266 1.0039-10.395 5.3789-18.527-7.0742-24.074-9.2383-4.1445-23.492-14.137-33.605-14.293-6.7891-0.078125-11.645-0.66797-16.855 4.8555-0.875 0.85938-1.875 1.582-2.9609 2.1523z"/>
  <path d="m404.55 87.961c10.977 5.4922 24.09 9.1602 33.168 17.535 1.0859 0.99609 1.8867 2.2617 2.332 3.668 14.098-0.70703 11.812-14.293 1.4219-19.504-7.9766-3.9375-16.031-7.1875-24.207-10.66-6.5156-2.7656-12.832-6.2773-19.07-9.625-3.7109-2.0742-7.9844-2.918-12.203-2.4102-8.9219 5.9219-11.121 11.281-6.5938 16.07v-0.003906c0.37891 0.26562 0.71094 0.58594 0.98828 0.95312 8.2734-1.2109 16.719 0.17578 24.164 3.9766z"/>
  <path d="m366.8 245.51c-1.9336-0.70703-4.6602-2.7656-7-3.7891 0.015625 1.582-0.078125 3.168-0.27734 4.7383-0.28125 1.1016-2.1875 6.0781-0.67188 6.8281 2.543 0.8125 5.1641 1.3672 7.8164 1.6602 2.4375 0.79297 4.9336 1.4023 7.4648 1.8164 0.085938 0.042969 0.17969 0.070312 0.27344 0.078125-0.71094-3.4102-0.46484-6.9492 0.71484-10.227-2.7969-0.16016-5.5781-0.52734-8.3203-1.1055z"/>
  <path d="m419.04 56.293c-7.6992-5.1719-15.637-14.766-26.141-14.531-5.4531 0.15625-18.598 11.055-8.5703 15.598 0.83984 0.35156 1.4844 1.0625 1.75 1.9336 10.305-0.78906 20.562 6.4766 29.312 10.898 10.582 5.332 30.957 9.043 38.305 20.219 9.7227-6.6719-31.145-31.785-34.656-34.117z"/>
  <path d="m467.96 275.12c-0.34375-0.10156-0.66406-0.26172-0.94922-0.47266-6.0352 2.0664-12.316 3.3242-18.68 3.75-12.938 0.9375-25.73 3.3242-38.141 7.1094 0.054688 0.9375-0.29297 1.8555-0.94922 2.5234-8.25 8.6484 7.543 12.715 11.73 13.465v0.003906c6.8828 1.3906 14.035 0.37109 20.254-2.8828 6.1992-2.8828 13.383-3 19.465-6.3164 4.0312-2.1875 7.6211 3.9375 3.5938 6.1602v-0.003907c-8.4062 3.7891-17.109 6.8789-26.02 9.2422-2.3516 0.78906-4.793 1.293-7.2656 1.5v1.6172c0.62109 0.61719 0.97656 1.4531 0.98828 2.3281 0.15625 5.5703-0.35547 11.094-0.75391 16.664 0.039063 1.0234 0.078125 2.0508 0.078125 3.0391 11.652-5.332 25.59-12.793 33.367-22.031 6.75-8.0547 1.6992-15.125 4.0625-23.73 0.55859-1.9375 2.9258-11.059-0.78125-11.965z"/>
  <path d="m356.77 372.06c-12.125-3.0625-24.523-17.57-29.574-28.23-0.875-2-1.5117-4.0938-1.8945-6.2383-6.9141 7.8164-12.555 17.254-19.25 25.309-7.5742 8.25-14.641 16.953-21.164 26.062-6.8555 10.398-9.9883 22.812-8.8867 35.219 0.4375 9.5938 5.332 16.266 8.75 24.758 1.6992 4.2266-5.1719 6.082-6.875 1.8555-2.3672-5.8828-7.0664-11.332-8.0547-17.766-0.70703-4.4219-0.98438-8.8867-1.8164-13.309l0.003907-0.003906c-0.43359-2.8125-0.43359-5.6758 0-8.4883-5.7266 2.2891-11.41 5.8438-16.941 8.1719-5.7227 2.4492-15.676 4.375-19.07 10.23 0.035156 0.31641 0.007812 0.63672-0.078125 0.94531-5.25 17.648-3.9062 37.746-1.8164 55.832 1.1875 10.621-0.23438 49.277 15.203 48.25 38.102-2.5273 83.902-4.6602 112.44-34l0.003906 0.003906c0.37891-0.38281 0.83594-0.68359 1.3398-0.875-0.55078-10.859-1.1016-21.68-1.4609-32.609-1.0156-31.629-0.89453-63.41-0.85547-95.117z"/>
  <path d="m352.9 243.06c-0.007813-2.2383 0.38281-4.4609 1.1445-6.5625-3.0625-6.9062-2.8438-21.438 1.8555-28.352-0.94531-4.1055-2.0898-8.1719-3.3555-12.203-8.207 7.125-14.242 16.418-17.414 26.812-3.2383 8.6875-8.0547 20.812-7.2656 30.188 1.2148 10.707 4.6992 21.031 10.227 30.281 3.1602 5.7266-3.3945 13.348 2.8047 17.969 3.3555 2.4844 0.58984 7.875-2.7266 6.5625-2.3711 5.5664-6.8672 12-6.8672 17.332v0.003906c0.12891 5.1133 0.81641 10.195 2.0547 15.16 5.25 8.2148 13.562 20.562 23.414 24.363v-5.3086c0-7.6602 0-15.312 0.11719-22.941-0.94141 0.33594-1.9883 0.1875-2.8047-0.39453-3.1992-2.1367-6.75-4.375-7.1836-8.5312 0.03125-1.9492 1.6055-3.5195 3.5508-3.5508 2.4062 0 4.4609 4.1094 6.5156 5.4453 0.039062-2.6016 0.15625-5.1719 0.23438-7.7734h0.003906c-1.0312 0.027344-2.0391-0.30859-2.8438-0.94922-2.9531-1.8359-5.4883-4.2734-7.4375-7.1484-2.2148-4.0234 3.9375-7.6211 6.125-3.5938 1.1484 1.7617 2.6719 3.2422 4.4609 4.3438 0.23438-4.5 0.51562-9.0039 0.91016-13.562 1.1445-12.91 0.19531-26.809 2.7266-39.484-2.3594-0.22266-4.625-1.0195-6.5977-2.3242-5.3594-4.0117-2.2812-10.488-1.6484-15.781z"/>
  <path d="m438.94 408.42c-4.4609-15.715-6.8281-31.746-11.844-47.461l0.003906 0.003906c-2.3828-8.1992-3.332-16.75-2.8047-25.27-0.23438-9.3984-0.39453-19.688-0.39453-26.496v-0.039063c-3.1367-0.36719-6.2305-1.0312-9.2422-1.9766-10.348-3.1992-17.938-10.145-14.215-18.715l0.003906-0.003906c-6.2695 2.1523-13.055 2.25-19.383 0.28516-5.9141-2.2461-9.5117-8.2617-8.6836-14.535-0.23438-4.1172 2.0625-7.9648 5.8008-9.7109-0.48047-0.55859-0.92188-1.1523-1.3125-1.7773-0.63281 0.85156-1.6758 1.293-2.7266 1.1484-2.0664-0.21875-4.1055-0.66016-6.082-1.3125-2.7266 13.383-1.1445 28.586-2.6875 42.211l0.003906-0.003907c-1.4492 16.371-1.9492 32.812-1.5 49.238 0 28.945 0.51562 57.887 0.51562 86.832 0 15 0.47266 30.008 0.47266 45.062 0 5.5312 1.1445 10.82 1.5 16.309 0.62891 11.215 11.016 10.66 19.387 10.859 14.438 0.35547 28.875 1.3438 43.434 1.3438 7.5039 0 15.086 0.31641 22.582 0.078126 5.793-0.125 11.398-2.0586 16.035-5.5312-0.55859-18.254-5.6484-36.082-14.809-51.883-7.7344-14.027-9.8047-33.371-14.055-48.656z"/>
  <path d="m446.4 45.277c0.16406-0.90625 0.69141-1.707 1.4609-2.2109 5.8047-4.0312-1.2656-12.359-4.8125-14.652-3.293-2.7969-8.1289-2.7852-11.414 0.023438-0.55469 0.4375-3.832 3.2031-3.7148 3.9102 0.074219 0.51562 0.046875 1.0391-0.078125 1.543 2.0508 1.6562 4.1094 3.2773 6.3164 4.7383 3.7148 2.4219 8.0547 4.4375 12.242 6.6484z"/>
  <path d="m461.33 246.38c0.39453-8.7266 7.4375-20.375-5.0586-26.418-0.039063 0-0.039063-0.039063-0.078126-0.039063-4.0156 2.3945-7.5703 5.4805-10.5 9.1172-2.7031 3.5-5.8477 6.6328-9.3594 9.3203-4.1484 3.3594-13.977 7.6211-19.273 4.6211-4.5469-2.5195-7.4492-7.2266-7.6602-12.418-5.1953 3.4648-10.691 6.4492-16.422 8.9258-6.4375 2.7656-20.73 15.715-6.5938 22.59v-0.003906c5.7891 2.6953 12.367 3.1641 18.48 1.3125 15.645-3.4883 30.652-9.375 44.496-17.449 1.6953-0.91797 3.8125-0.31641 4.7734 1.3516 0.96094 1.668 0.42188 3.8008-1.2188 4.8086-17.375 9.9141-46.812 26.219-67.52 17.137-14.688 4.9727 1.4219 16.148 10.465 13.309 3.7734-1.4141 7.6211-2.6133 11.527-3.5977 6.7109-1.3828 13.125-4.1836 19.824-5.4453 7.9375-1.5 16.031-1.3125 23.965-2.7266 6.0664-0.63672 11.965-2.3594 17.414-5.0938 6.0039-3.9883-2.6875-14.531-5.4844-16.188h-0.003906c-1.1055-0.64453-1.7852-1.832-1.7734-3.1133z"/>
  <path d="m391.09 34.734c5.7461-1.0664 11.672 0.32422 16.344 3.832 3.7539 2.9609 28.703 17.5 43.945 31.785 10.348-3.7891-3.6328-15.121-9.043-18.199l0.003907-0.003906c-5.3086-2.4609-10.293-5.5625-14.848-9.2383-1.4336-1.6445-3.0352-3.1406-4.7773-4.4609-2.1289-1.3828-4.4609-2.4883-6.4375-4.0703h0.003906c-1.3633-1.3945-2.8125-2.6992-4.3438-3.9062-2.3945-1.2578-4.9258-2.2344-7.543-2.9102-1.8398-0.82812-3.7578-1.4766-5.7227-1.9336-2.625-0.32031-6.9141-0.078125-7.875 2.9219-0.19922 1.9648-0.078125 3.9531 0.35547 5.8789-0.003907 0.10547-0.027344 0.20703-0.0625 0.30469z"/>
  <path d="m347.1 99.75c7.3789-4.5 17.375-4.7773 23.625-11.375 0.69141-0.69141 1.4609-1.3008 2.2891-1.8164-2.9023-4.4531-3.6562-9.9766-2.0508-15.043-1.25 0.87109-2.5586 1.6641-3.9102 2.3633-4.582 2.3711-9.8711 3.5-14.371 6.125-4.6211 2.6484-4.6211 7.3438-6.6328 11.73-1.0664 2.3281-3.7891 3.8281-4.9336 6.1602h-0.003906c-1.2188 2.3789-1.6289 5.0859-1.1719 7.7188 2.0859-2.2969 4.5-4.2734 7.1602-5.8633z"/>
  <path d="m376.69 60.48c0.14062-0.050781 0.28906-0.066407 0.4375-0.039063-4.0312-5.4531-4.8125-15.359 0.27734-19.664v-0.003906c1.8555-1.5039 3.9023-2.7617 6.0781-3.7461 0-0.11719-0.039063-0.15625-0.039063-0.27734-0.011718-2.418 0.23828-4.8281 0.75-7.1875-11.605 6.6328-18.375 18.164-25.703 29.219-2.8008 4.1719-6 8.0586-9.5547 11.609-1.5195 1.6055-2.6758 3.5156-3.3945 5.6094 4.6172-4.2266 12.594-5.7656 17.965-8.25l-0.003906-0.003906c4.2031-2.7578 8.6094-5.1875 13.188-7.2656z"/>
  <use x="70" y="625.625" xlink:href="#u"/>
  <use x="86.054688" y="625.625" xlink:href="#d"/>
  <use x="96.839844" y="625.625" xlink:href="#a"/>
  <use x="111.679687" y="625.625" xlink:href="#g"/>
  <use x="126.4375" y="625.625" xlink:href="#b"/>
  <use x="136.894531" y="625.625" xlink:href="#a"/>
  <use x="151.730469" y="625.625" xlink:href="#i"/>
  <use x="175.007812" y="625.625" xlink:href="#c"/>
  <use x="190.664062" y="625.625" xlink:href="#f"/>
  <use x="212.539062" y="625.625" xlink:href="#h"/>
  <use x="230.847656" y="625.625" xlink:href="#a"/>
  <use x="245.683594" y="625.625" xlink:href="#f"/>
  <use x="267.558594" y="625.625" xlink:href="#t"/>
  <use x="284.402344" y="625.625" xlink:href="#g"/>
  <use x="299.164062" y="625.625" xlink:href="#c"/>
  <use x="314.824219" y="625.625" xlink:href="#c"/>
  <use x="330.480469" y="625.625" xlink:href="#s"/>
  <use x="337.980469" y="625.625" xlink:href="#b"/>
  <use x="70" y="647.5" xlink:href="#r"/>
  <use x="79.515625" y="647.5" xlink:href="#d"/>
  <use x="90.304688" y="647.5" xlink:href="#e"/>
  <use x="105.332031" y="647.5" xlink:href="#q"/>
  <use x="135.742188" y="647.5" xlink:href="#b"/>
  <use x="146.199219" y="647.5" xlink:href="#p"/>
  <use x="161.773438" y="647.5" xlink:href="#a"/>
  <use x="184.222656" y="647.5" xlink:href="#o"/>
  <use x="202.53125" y="647.5" xlink:href="#e"/>
  <use x="217.558594" y="647.5" xlink:href="#n"/>
  <use x="233.132812" y="647.5" xlink:href="#m"/>
  <use x="256.320312" y="647.5" xlink:href="#l"/>
  <use x="272.355469" y="647.5" xlink:href="#d"/>
  <use x="283.140625" y="647.5" xlink:href="#e"/>
  <use x="298.171875" y="647.5" xlink:href="#k"/>
  <use x="305.667969" y="647.5" xlink:href="#a"/>
  <use x="320.503906" y="647.5" xlink:href="#j"/>
  <use x="333.472656" y="647.5" xlink:href="#b"/>
 </g>
</svg>
